<svg xmlns="http://www.w3.org/2000/svg" width="985.8" height="883.88" viewBox="0 0 985.8 883.88"><defs><style>.a{fill:#35c1e8;}</style></defs><path class="a" d="M963.06,515c-3,.65-6,1.41-9.1,1.94-2.39.41-6.11,3.35-6.73-.83-.38-2.58-2-7,4.49-8.86,5.73-1.68,12.69-3.13,17.19-8.32,2.37-2.74,4.54-.29,7.84.47-4.36-6.42,1-10.87,2-16.11s4.46-8.73.34-15.73c-5.54-9.39-6.83-21.48-9-32.6-1.32-6.89-5.2-13.31-4.19-20.66,2.9-.72,2.55,2.82,4.53,3.13.81-7.47.78-7.4-8-11.69-.88-.42-1.18-2.28-1.51-3.54-7.1-26.31-14.75-52.49-21-79a336.82,336.82,0,0,0-13.8-44.05c-.84-2.18-1.61-3.36,1.42-4.3,3.25-1,6.15-3.27,9.86-2.26-1.68,8.51,4.73,15.23,6.73,22.69,2.23,8.31,6.15,17.17,8,26,2.16,10.52,7.84,20.2,6.84,31.54-.49,5.61,5.39,9.2,6.6,15.06,6.44,31.06,17.23,61,23.93,92,1.06,4.91,3.3,9.61,3.21,14.78-.05,3.2,1.8,7.08-5.07,6.25-4.63-.56-3,5.4-1.46,6.94,4,4.1,3.56,8.34-.28,10.64s-3.83,12.69-12.16,6.15c-1.79-1.4-3.58.55-3.16,2.34C972.13,513.67,966.42,513.14,963.06,515ZM956.7,339.11c0-1.75-.75-2.51-1.85-2.41-.46,0-1.05,1.12-1.19,1.81-.29,1.32.73,1.94,1.8,1.85C956,340.32,956.45,339.38,956.7,339.11Z" transform="translate(-7.1 -58.06)"/><path class="a" d="M851.2,545.12l-2.77.58c-1.61-.93-5.68,1.82-4.91-2,1-4.93-3.2-4.19-6-6.82L897.19,521c-3.46,12-3.49,11.9-14.36,14.93C872.26,538.86,861.74,542,851.2,545.12Z" transform="translate(-7.1 -58.06)"/><path class="a" d="M819.36,641c2.55,1.65,5,3.51,8.15,3.93,1.76,3,.16,5.81-1.47,7.87-3.9,4.9,1.22,6.82,2.73,9.94,3.72-2.87,10.08,7.74,12.58-2.64.82-3.42,1.76-8,8-5.81s3.83,6.33,3.53,10.25c-.58,7.5-4.22,13.13-8.92,19-4.09,5.15-6.56,5.27-11.66,2.49-11.19-6.12-22.55-12-34.11-17.32-6.77-3.15-12.47-8.29-19.9-10.15-3.56-.89-3-3.37-1.66-5.92,3.72-7.33,7.33-14.71,11.11-22,1.08-2.07,3.72-6.13,4.94-3.06,1.55,3.91,10-.27,7.07,7.53-2.13,5.59-3.82,11.45,5.85,14.25,6.74,1.94,6.7-2.66,9.26-5.13-1.14,1.92-1.93,3.74,1,4.84,1-2.05-.47-3.28-1.16-4.72C814.54,640.9,817,641.08,819.36,641Z" transform="translate(-7.1 -58.06)"/><path class="a" d="M769.63,809.61a39.85,39.85,0,0,0-2-3.53c-1.5-2.18-.44-3.86,1.15-5.16,3.45-2.83,7.4-5.13,10.55-8.24,24.57-24.2,47.35-49.86,64.19-80.27,2.58-4.66,6.31-8.73,8.5-13.53,1.85-4,4.05-1.4,5.38-.71,3.17,1.64-.58,1.76-1,2.49-6.12,10.67-12.08,21.45-18.71,31.8-18,28-39.86,52.75-64.82,74.77C772.27,807.78,771.54,808.22,769.63,809.61Z" transform="translate(-7.1 -58.06)"/><path class="a" d="M939.45,531.78a8.74,8.74,0,0,0-2,6.91c-1.65,3.71-4.88,6.55-5.14,11.07-.3,5.37,2.6,3.24,5,2.6l-.12,15.19c-.75,1.45-1.5,2.9-2.34,4.54-3.54-3.58-2.48-8.9-6.63-14.9,0,11.24-7.69,17.67-7.54,26.8,1.71-2.28,2.74-4.85,4.17-7.18s1.2-6.94,4.54-6c2.84.76,4.84,4.46,5,8.13,0,1.4-.05,2.81-.09,4.21-8.49,39.55-20.88,77.75-39,114-14.51,29-32.34,55.78-52.05,81.41a2.11,2.11,0,0,0-1.39.61l-2-.93a47.47,47.47,0,0,0-11.86-18c2.65,7.77,6.75,12.71,10.33,17.95-5.18,3.84-6,10.44-10,15.29a302.13,302.13,0,0,1-40.12,41c-.4-3.86-.71-7.75-5.14-11.72.8,5.48.06,9.83,5.36,11.52l-10.15,9.12c-2.53-2-3.7-5.72-7.48-6-4,4.4,5,6.91,1.55,11.23l-.59,0-.23.54-1.26,1c-15.8,10.55-30.93,22.11-47.6,31.33-3.6,2-6.79,5.16-11.68,3-2-.88-2.34-.32-3,3.77-.27,1.68-1.43,2.22-2.69,2.85a445,445,0,0,1-50.53,21.37c-13.22,4.66-26.26,10-39.82,13.86a410.23,410.23,0,0,1-78,14c-22.94,1.85-46,2.37-69,.27-42.08-3.85-83.25-12-123-26.91-17.68-6.63-34.51-15-51.46-23.2-5.34-2.58-9.92-5.58-10.26-12.19-3.26-.95-1.95,5.82-6.66,2.86-5.65-3.56-7.2-4.66-7-12.11-3.09,3.52-4.33,5.73-9,.39-3.27-3.77-10.52-5.83-15.69-9.56-12.4-9-23.35-19.8-35.27-28.9-27.75-21.18-48.95-47.64-69.54-75-12.6-16.72-12.23-16.69-32-12.4-9.89,2.15-18.48,1.44-29.17-3.17-14.72-6.35-19.06-16.6-22.81-29-4.44-14.7-8.16-29.62-12.19-44.45a3.15,3.15,0,0,0-1.25-3.37c-.15-.6-.31-1.19-.46-1.79-.87-2.65,1-5.78-1.44-8.14l-.18-.2c-1.84-4.32.8-4,3.73-6.48,8.75-7.26,7.94.4,9.28,4.41,1.79,5.37,2.74,11,4.25,16.48,2.14,7.73,4.29,15.46,6.76,23.09,1.35,4.17,3.61.1,5.43.08s2-1.15,1-2.85c-6.6-11.24-9.14-22.93-8.25-36.56a3,3,0,0,0-1-2.2c-8.73-6.9-7.64-17.81-10.34-26.89-8.68-29.22-16.12-58.8-24.1-88.23-1-3.8-.71-6.34,3.63-7.91,5-1.81,9.67-4.47,12.73-9.07-5.28.38-8.74,4-12.86,6.25s-5.59,1.35-5.23-3.34c.67-8.91,8.31-17.74,18.65-20.63,13.7-3.82,27.51-7.24,41.22-11,5.32-1.47,10.66-3.86,11.89,6.16,2.44-4.54-1.27-9.31,4.59-10.65,14.1-3.23,27.76-8.52,42.2-10,4-.41,10.16-3.24,12,4.54,6.78-10.09,8.08-11.08,19.12-14.16,7.37-2.06,14.81-3.84,22.15-6,2.37-.7,7-.16,5.63-4.42-1-3.09-4.59-.94-6.71-.39q-25.41,6.57-50.67,13.64c-3,.84-5.33,1.57-6.63-2.41-.47-1.44-1-4.23-4-3.13l.18.21c.63-1.18,1-3.1,1.94-3.42a150.78,150.78,0,0,1,27-6.54,2.16,2.16,0,0,1,1.51.22c4.39,3.65,8.13,4,9.19-.17,1.69-6.51,6.91-6.12,10.92-6.56,14.91-1.64,18.24-4.72,19.1-19.79l.63-2.69c5.1-18.41,10.94-36.44,20-53.52,10.48-19.83,20.4-40.32,34.29-57.61,12.48-15.53,26.45-30.43,42.61-42.9,24.52-18.95,49.59-36,78.88-47.76A403.82,403.82,0,0,1,451.57,200c5.11-1,6.59.72,7.63,5.74,1.15,5.62-1.46,6.31-5.54,6.89-5.34.76-11.85,4-15.72,2-6.43-3.29-6.92,3.64-11.31,4.1-13.18,1.38-25.44,7-37.7,12.09-45.22,18.71-84,47.2-113.9,84.66-5.77,7.22-11.8,14.16-16.89,22.06-11.86,18.37-21.43,37.73-30.2,57.68-5.16,11.77-7.39,24.21-11,36.34-.39,1.32-1.78,3.55.5,4.4,2.66,1,3.31-1.43,3.95-3.3a46.48,46.48,0,0,0,1.35-4.92c3.94-17.85,11-34.6,18.62-51.08,11.28-24.42,26.49-46.35,43.95-66.79,14-16.38,30.66-29.78,47.63-42.74,18.84-14.38,39.78-25.22,61.9-33.71,3.71-1.42,7.53-5.56,11.39-.15,1.28-6.13,7.19-3.69,10.06-5.55,12.37-8,26.42-8,39.85-10.86,4.74-1,4.05,2.45,3.92,5.28L458,223.42l-1.6.33c-20.92,1.07-40.29,8.52-59.43,15.84-42.29,16.16-78,42-108.16,75.86-14.29,16-25.32,34-36,52.44-10.35,17.94-16.39,37.56-23.34,56.82-.44,1.23-3.74,6.12,1.31,7.84,1.74.77,3.95-1.1,5.69,1.19l-21.75,18.05c7.16,5.29,11.86.57,16.06-3.73,4.73-4.83,8.79-10.3,13.14-15.49,2.5-1.67,4.39-3.82,7.59-4.94,13.58-4.75,27.59-8.76,41.68-9.2,8.74-.28,13.68-6.14,21-8,30.61-7.61,61.06-15.86,91.41-24.42,3.31-.93,6.43,2.34,8.06.26,3.09-3.94,7.35-4.08,11.31-5.1,33.26-8.55,66.53-17.14,99.57-26.35,47.59-13.26,95.53-25.15,143-38.7,11.28-3.22,22.66-6.11,34.46-9.28-12.87-16.39-50.38-44.85-71.29-55.32-45.63-22.84-93.8-33.7-144.82-31.7.39-2.45.34-5-3.07-3.69-1.63.62-7-1.52-4.22,4l-3.33.7-3.36-.7c-1.63-1.07-2,1-3.16,1.24-2.25-2.88-3.72-5.81,1.63-6.5s10.85-.41,16.15-1.32c3.8-.65,3.5,5.72,6.12,3.79,7.6-5.62,15.93.86,24.54-2.82,7.26-3.11,17.69,1.72,26.75,2,3.6.13,3.75,4.6,4.23,3.83,3.55-5.73,7.77-1.37,11.1-.67,15.79,3.27,30.95,8.43,46.09,14.26,37.51,14.45,70.18,35.46,97.73,64.71,2.17,2.3,5,7.15,11.18,4.23-6.21-6.21-11.46-12.28-17.53-17.78a299.6,299.6,0,0,0-85-54c-4.17-1.77-7.4-3.46-6.79-9.53-2.9,5.61-3,5.76-6.82,4.31-24.48-9.18-49.88-13.93-75.86-16.17-16.89-1.45-33.74-1.67-50.57.44-4.74.59-6.49-.85-7-5.71-.48-4.7.42-6.88,5.46-6.93,4.54,0,9.07-.89,13.62-1,36.58-1,72.27,2.35,107.39,14.45,23.2,8,45.66,16.73,66.51,29.56A305.94,305.94,0,0,1,724.09,295c3.6,3.94,6.83,4.68,11.08,3.47,6-1.7,11.78-3.86,17.67-5.82h0A31.63,31.63,0,0,0,766.48,289l.81.07.74-.36,2.25-.47.49-.07,62.75-16.26a61.21,61.21,0,0,0-11.06-18c-14.64-16.53-28.53-33.85-45-48.68-1.49-1.33-3.27-2.56-3.3-4.74-.07-4.86-3.63-2.39-5.77-2.9l-1.56-1.17c-14.59-13-29.18-26-46.25-35.79-12.23-7-23.7-15.26-36.52-21.4-14.44-6.92-28.73-15.35-43.61-19.89-17.3-5.27-34.19-13.19-52.63-14.59-4.74-.35-8.31-6-13.79-2.84-.36.21-1.62-.56-2.06-1.16-.94-1.31.44-2,1.13-2.76,2-2.24,4.44-1.5,7.08-1.13,15.8,2.22,31,7.2,46,12a398.54,398.54,0,0,1,123.47,65.08c29.43,22.81,55.76,48.17,77.93,78.1,3.74,5,6.56,10.88,11.23,15.3,1.64,1.55,3.26,2.61,5.2,1.26,2.69-1.86.26-3.45-.73-4.91-7.47-11-14.55-22.41-24.28-31.5-9.05-8.46-13.11-21.08-24.3-27.65-6.88-4.05-10.77-11.53-17.63-16-6.17-4-11.85-9.23-8.88-18.25a1.91,1.91,0,0,0-2.34-2.49c-1.67,2.8,1.64,6.21-1.11,8.87-3.53-.11-5.51-2.89-7.87-4.79-2.55-2.06-6.46-3.64-6.11-7.65.38-4.39,5.5-1.47,7.35-4a7.23,7.23,0,0,0,.57-1.87c-3.76-.22-7.69-.53-10.54,1.75-2.49,2-3,1.67-5.81,0-23.49-14.15-46.19-29.69-71.68-40.4-22.8-9.59-45.87-18.2-69.91-24.19-4.62-1.15-11.5-.12-13.37-4.06-2.61-5.5,6.25-6,7.8-10.43a4.58,4.58,0,0,0,.12-.85c1.55-.49,3.44-1.89,2.24-3s-2.65.8-3.24,2.38c-8.85,3.67-15.1,11.66-27.24,9.5-55.1-9.8-110-7.37-164.5,5.65-3.12.74-6.9,3.72-9.92-.81-.76-1.13-1.4,0-2.37.56-11.74,7.4-23.85,13.84-38.48,12,.08-2.19.78-4.4-.68-6.45-.88-1.24-.18-3.51-2.42-3.83a1.89,1.89,0,0,0-1.35.72c-1.69,2.12,1.17,2.49,1.61,3.85a39.17,39.17,0,0,0,2.84,5.59c1,1.66,1.15,3.49-.79,4.25-3.39,1.33-1.44-3.71-4.21-3.72.19,2.64,1.31,5.39-2.61,6.71-10.7,3.6-20.36,9.79-31.32,12.8l-.21-1.18-1,.61,1.33.43c-7.88,6.63-17.55,10.25-26.25,15.52C240.66,169.71,201,204.67,168.46,247.69c-1.67,2.21-2.78,5-6.23,5.24-6.52.5-13,1.33-19.53,1.75-2.45.16-5.79,1.11-7.19-1.14-1.84-3,1.68-4.91,3-7.22,1.68-2.94,3.53-5.77,5.31-8.64,4.72-.3,5.57-2.75,7.18-7.33,2.4-6.81,8.56-12.3,13.11-18.35,6.17-5.8,12.24-11.69,16.78-18.93,29.4-28.2,60.38-54.37,95.95-74.63a500.2,500.2,0,0,1,52.47-25.95A426.91,426.91,0,0,1,369.53,77.9c27-8.38,54.44-14.54,82.59-17.29,44-4.31,87.72-3.62,131.21,5.66,9.84,2.09,19.43,5.41,29.43,6.54,7.64.86,11.79,4.76,13.38,12,.34,1.52.89,3.31,3.24,3.23,1.3-2,0-3.82-.57-5.56-1.67-5,1.11-4.84,4.34-3.81,19.88,6.39,39.63,13.28,58.14,23,24.78,13,49.55,26.05,71.83,43.27,29.54,22.81,57.33,47.46,80.26,77.07,4.17,5.39,8.39,10.75,12.55,16.16,1.78,2.31,5.57,4.37,1.49,8.47-1.87,1.87.56,3.54,3,3.15,2.11-.34,4.21-.65,5.1,1.7,5.24,13.84,15.22,8.24,23.67,5.19,16.09-5.81,34.76-1.5,45.43,11.88-4.32.95-10.26-3.76-12.8,3.64a3.83,3.83,0,0,1-2.12-.47c-11.21-9.11-23-6.15-35.28-2.57-3.09.91-6.16,4.4-11.15.31-3.69-3-3.74-6.29-4.76-9.77-2.41,1-2,2.56-2,3.88.49,12.35-3.94,15.48-16.25,11.29-.79-.27-1.52-.8-1.66.09-1.17,7.79-8.08,6-12.68,7.23q-72.16,19.6-144.48,38.7c-2,.52-4.51.64-3.91,3.24.5,2.17,2.87,2.5,5,1.91,6.72-1.85,13.42-3.77,20.15-5.55Q792.92,299.26,873.16,278c11.52-3.05,11.48-3.17,14.48,6.95.25-.05.68,0,.73-.16.29-.79.84-1.71.66-2.41-2-7.82,1.55-11,9-11.23,4.23-.13,8.18,1.42,12.55,1.49,7.65.14,12.78,9.66,11.65,17.57-.18,1.28,0,3.1.79,3.95,10.74,11.6,9.43,27.42,14.45,41,.33.89,2,3.23-1.13,3.43.27.07.55.14.82.19,1.78.32,2,1.84,2.33,3.17,6.15,22.79,12.52,45.52,18.3,68.41,2,7.76,4.13,15.41,4.55,23.81.25,4.89,4.4,11.7,6.76,17.69,1.37,3.46-2.42,7.36-.93,8,5.52,2.41,4.76,7.65,5.76,11.48,4,15.46-7.84,29.08-23.05,27.11-1.4-.18-2.15,0-2.58,1.16-1.31,3.64-4.76,3.76-7.65,4.54-20.33,5.42-40.8,10.34-61,16.23-13.49,3.93-27.43,6.11-40.7,11-10.91,4-11.05,3.62-6.39,13.82.72,1.58,1.71,3.35-.62,4.22a31.69,31.69,0,0,1-5.72,1c.62-6.18-6.65-4.48-8.59-8.74-2.45-5.37-6.23-10.19-9.84-14.93-2.39-3.14-3.3-10.26-7.78-8.07-2.55,1.25.73,8.47,3,12.57.53,1,1.6,1.61,2.33,2.48,5,6,10,12,15.26,18.38-6.35,1.9-12.25,3.7-18.16,5.44-2.5.74-4.81,1.32-5.34,4.6-1,5.88-2.28,11.69-3.45,17.54l-.42.39.16.56A28.39,28.39,0,0,0,789.8,593l0,.05c-.94,2-2.06,4-2.79,6.13-14.54,42.22-37.83,79.06-68.45,111.37-2.22,2.33-3.89,6.8-7.7,5.7-4.32-1.26-1.92-6.42-3.42-9.69-1.67-3.62,3-5.6,5.18-7.86,15.88-16.61,28.37-35.62,40.68-54.89,10.81-16.94,13.62-37.87,27.38-53.2.17-.2-.28-1.07-.57-1.55-3.49-5.5.65-10.3,1.48-15.38.57-3.49,3.06-6.76,1.08-10.51-3.58,0-3.78,2.51-4.58,5.09-2.35,7.63-5.08,15.14-7.81,22.65-.58,1.59.46,4.71-2.68,4.33-2.74-.34-3.28-2.76-3-5.25,2.29-7.68,7.28-14.69,6.28-24l-129.5,35a9,9,0,0,1-5.73-8.71c.28-3.14,4.76-2.28,7.33-3.06,4.92-1.48,10-4.8,15.14-.44,4.18-6.12,11.14-7,17.39-8.48,19.61-4.76,39.08-10,58.48-15.56,19.69-5.64,39.56-10.66,59.38-15.85,3.37-.89,6.73-1.46,7-6.66-10.06,2.49-19.79,5-29.58,7.27s-19.24,6.55-29.8,6.68c-3.91,0-7.72,6.68-12.28-2.37-.23,5.69-1.88,7.87-5.74,8.87-25.84,6.71-51.72,13.31-77.36,20.74-9.26,2.69-16.7,3.7-21.39-6.6a1.66,1.66,0,0,0-2.75-.66,23.77,23.77,0,0,0,1.06,4.9c2.69,6.1,1.26,9.35-5.8,9.79s-13.45,3.91-20.22,5.71c-32.16,8.54-64.33,17-96.46,25.69-4.4,1.19-8.12,2.54-8.85-4-.21-1.87-.84-4.33-3.72-3.31-2.14.75-1.62,2.9-1.22,4.42,1.13,4.18.57,6.71-4.36,8-39.55,10.25-79.09,20.52-118.47,31.36-5.48,1.51-7.4.33-8.33-5-3.51,2.48-.79,7-6.64,8.77-22.27,6.9-44.92,12.27-67.37,18.37q-83.52,22.68-167.21,44.77c-8.56,2.26-17.34,6.43-26.22,1.1-3.13-1.88-5.81-4.49-8.67-6.8a2.61,2.61,0,0,0-3.78.37c-1,1-.23,2.21.48,3C82.23,730.52,92,733.82,97.92,742c3.06-4.31-2.61-4.63-1.38-7.82,9.86-.72,19.28-3.83,28.89-6.52,35.87-10,71.94-19.33,107.94-28.86,10.12-2.67,20.54-4.53,30.48-7.37,9.65-2.76,19.12-6,29.07-7.64-.15.6-.29,1.2-.38,1.8a6.19,6.19,0,0,0,.63.17c-.15-.62-.29-1.25-.44-1.87,14.07-6.11,29.26-8.38,43.83-12.75,10.92-3.28,10.94-3.2,13.52,7.68l-53,14.38c14.62,14.49,28.35,27.45,44.78,37.18a7.09,7.09,0,0,0,5.19,3.45l-.05,0,1.83,1.38c1.58,2.16,4,3,6.3,3.92.55,2.2,1.38,4.93-.7,6.17-1.06.63-3.87-.67-5.28-1.84-4.69-3.87-9.31-10.11-13.76-11.58-10.51-3.45-17.14-11.09-25-17.4C303.81,709.1,298,702.83,291.8,697c-1.36-1.3-3-2.24-4.45-.79-2,1.91.46,2.83,1.47,3.85,5.3,5.35,10.29,11.12,16.16,15.77,3.71,3,3.29,6.13,3.23,9.75,0,2.56-2.61,5.54-3.37,4.9-2.78-2.33-6.65-1.21-9.32-4.44-6.67-8.06-14.25-15.36-21.3-23.12-2.14-2.36-4-3.27-7.29-2.23-13.84,4.3-27.79,8.22-41.7,12.28l-3,.53c-11.72,2.51-23.39,5.22-34.6,9.59l0-.08-23.56,5c13.65,15.18,23.75,32.38,39.17,45.17l2.13,3.34c-.11,1.08.43,1.52,1.46,1.47a.58.58,0,0,0,.8.56A39.68,39.68,0,0,0,218.88,790l.05.09a1.49,1.49,0,0,0,1.59,1.7l.06,0c0,1.75,0,3.5,0,5.26-3.08,3.05-4.45-.23-6.11-1.78-13.35-12.38-24.71-26.6-36.77-40.18-6.06-6.82-9.36-15.62-16.37-21.76-1.68-1.46-2.55-4.17-5.24-2.61-3.69,2.14,0,4,.88,5.36A411.9,411.9,0,0,0,223,811c41.85,37,89,64.87,141.81,83a381,381,0,0,0,73.55,17.8c18.91,2.51,37.84,4.56,56.91,5,2.79.06,4.83.68,3.78,3.68-.92,2.62-.14,6.28-3.63,7.59-1,.36-1.63-5.61-3.18-.42-.58,1.92-1,4.82,1.64,6,2,.93,4.25,1.24,6.8,1.93.14-2.58.3-4.81.37-7,.34-11.14,1.18-11.91,12.07-12.43,6.27-.3,12.53-.3,18.83-.84A417.33,417.33,0,0,0,638.5,892.46c4.26-1.53,6.88-1.12,10.23,5.13-1.5-6.67,0-8.59,3.9-10.22,12.86-5.34,25.5-11.23,38.11-17.16,11.32-5.32,11.25-5.46,21.31.07-3.73-8.62.69-12.7,7.16-16.28,23.46-13,43.44-30.89,64.37-47.3,5.45-4.28,10.58-10.64,15.26-16.54,3.75-4.73,12-5.08,12.41-13.19.1-1.81,2.73-3.5,4.22-5.22,21.8-25,40.6-52.11,55.1-81.92,10.6-21.81,21.92-43.34,27.8-67.27C903,603.77,908.5,585.17,911.26,566c1-7.07,3.62-2,7.2-.55-5.41-11.18-2.7-21.79-3.21-32.21-.08-1.76,1.39-4.38-1.55-4.89s-3.51,1.64-4,4.22c-2.31,13.07-3.83,26.3-5.74,39.37-4.39,30.19-13.89,58.57-24.92,86.65-2,5-5.66,8.56-11.73,10.56,8.39-19.42,16.84-37.7,21.72-57.32,4.33-17.37,9.36-34.61,10.68-52.6.11-1,.23-1.93.34-2.89,2.12-6.51,2.33-13.31,3-20,.17-1.75,1.17-4.63-1.74-4.79-5.82-.34-2.28-3.59-1.34-4.83,2.1-2.74,3.79-5.68,7.43-7.44,10.31-5,21.58-6.38,32.31-9.71,3-.94,3,1.27,3,3.4C942.71,519.41,940.53,525.5,939.45,531.78Zm-346.07-5-.41-2.07c-.28.29-.8.58-.8.86,0,.83.31,1.53,1.39,1-1.27,3.07,1.49,5.29,1.75,8.1.36,4-2.56,9.77,1.55,11.57,3.13,1.37,8.09-1.41,12.22-2.38,1.39-.32,2.74-.78,4.11-1.16,16.12-4.5,16.06-4.5,16.55-21.35.07-2.26-1.37-5,1.9-6.73,3.86-2,6.06.37,9,4.25-.29-4.87-.16-7.57,4.22-8a37.14,37.14,0,0,0,11.49-3.12c7.66-3.46,12.14-.92,14.93,6.54,3.2,8.56,7.93,12.66,18,8.27,5.17-2.26,11.38-2.5,17-4.41s6.44-3.24,3.19-8.38q-34-53.68-67.39-107.7c-2.42-3.9-4.65-5.62-9.55-4.09-9.22,2.87-18.66,5.07-28.06,7.35-3.4.82-4.51,2.79-4.67,6.06-.52,10.56-2.76,20.43-12.67,27.15,5.7,1.32,7.07-4.57,11.57-5.77,0,3.4.08,6.2,0,9-.69,20.85-1.15,41.7-2.26,62.53C596,511.83,597.49,519.73,593.38,526.78ZM773,493.71a4.36,4.36,0,0,0-3.2-5c-11.35-2.34-12.06-11.64-13.94-20.36a74,74,0,0,0-3.55-12.27c-.88-2.19-2.58-4.63-.55-6.12,2.56-1.89,4.44.73,6.29,2.57,5.2,5.17,6,12.91,13.52,17.52,6.51,4,12.19,11.44,16.08,19.25,1.31,2.64,4.4,5.69,8.38,4.65,10.63-2.78,21.18-5.82,32.57-9-11.05-15.35-23.15-28.58-35-42-3.57-4.07-9.68-7.5-2.24-14.43,5.31-4.94,7.63-12.36,8.15-20.09,1.12-16.48-11-38-25.39-40.12-10.16-1.51-21.08-2.37-31.6.51C730.73,372,718.87,375,707,378c-11.54,2.95-11.55,2.91-8.38,14.68.3,1.1.74,2.16,1,3.26,4.91,18.35,9.8,36.7,14.8,55.44-2.87-.61-4.83-3.23-7.79-.88,9.15,12.3,15.7,25.72,18.78,41,4.1,20.33,4.63,20.45,24.41,14.55,7-2.08,11.56-1.88,12.64,6.58.18,1.47,1.16,3.26,4.52,2.22-4-7.55-2.38-16.08-5.36-23.54C766.56,488.62,768.55,494.3,773,493.71ZM189.92,540.18c.68,14.78-.65,28.69,4.73,42.64,5.18,13.42,8.41,27.44,17.23,39.37,12.64,17.1,29.48,22.83,49.46,18.5,19.63-4.26,33.06-15.92,37.07-36.6,2.42-12.51,2.71-24.62-.69-37.37-4.8-18-10.3-35.29-22.31-49.85-6.35-7.71-14.55-12.42-24.19-15.11-10.13-2.83-21.82-2-29.63,1.22-9.17,3.81-19.51,11-24.37,22.16a25.84,25.84,0,0,1-11.78,13.06c-7.78,3.89-9,11-10,18.41Q182.69,548.39,189.92,540.18ZM472.37,395.66c-1.63,2.67-3.78,3.18-3,5.43,5.52,16.51,3.68,34,9.38,51,12.25,36.58,20.93,74.36,30.71,111.75,1.41,5.41,3.31,6,8.24,4.59,18.24-5.17,36.54-10.19,55-14.62,6.75-1.61,7.6-4.15,5.84-10.52-5.39-19.46-5.09-19.54-24.27-14.61-17.6,4.53-17.36,4.48-21.15-13.58-1.05-5,.25-6.53,4.85-7.45,6.11-1.23,12.58-2.19,18-4.95,11.8-6,.08-13.87.69-20.94.39-4.6-2.26-8.37-8.19-5.83a11.09,11.09,0,0,1-1.63.53c-5.78,1.49-11.56,3-17.36,4.43-1.73.42-3.5,1.81-4.89-1.15-3-6.49-6.64-13.55-5.46-20.16.81-4.53,8.93-3.23,13.54-5.22a7.69,7.69,0,0,1,.81-.27c6.2-1.9,15.48-2.07,17.76-6.15s-2.64-12.14-3.53-18.56c-1-7-4.12-8-10.39-6.2-18,5.22-36.24,9.78-54.26,15-6.27,1.82-8.08.39-7.74-6.1A129.71,129.71,0,0,0,472.37,395.66ZM91.93,600c-7.33-13.3-7.33-13.31,8.66-16.61,1.36-.28,2.87-.07,4.12-.58,7-2.87,16.68-3.56,11.69-15.78-1.56-3.82,1.14-6.77,5.33-8.27,4.89-1.75,8.49-.21,11.11,3.64,6.77,10,7.56,23.84-10.27,28-2.58.59-7.21.23-5.84,5.23,2.85,10.44,7.47,20.64.89,32.86,7.65-2.81,11.17-7,15.29-10.39,6.19-5.09,13.75-3.42,16.77,4a40.36,40.36,0,0,1,2.47,11.62c.45,5.11-.75,9.62-6.56,11.44-5.59,1.76-10.18.8-13.23-4.46-1.2-2.08-2-4-5.05-3.18-8.17,2.27-16.39,4.3-24.56,6.55-7.25,2-3.36,8.57-2,10.23,13.81,16.81,32.18,21.91,52.53,15.89,19.33-5.71,33.52-15.35,33.16-38.48-.28-17.1-8.42-28.87-24.59-34.64-4.12-1.47-4.51-1.74-1.65-5.92,5.51-8,6.87-18.39,14.06-26.22-4.89,2.46-7.13,3.27-8.59-3.18-3.48-15.31-13.33-25.14-28.71-29.47-11-3.08-21.53,3.32-32.39.7-1.67-.4-2,.91-1.52,2.07,1.43,3.65-1.68,4.7-3.67,5.67C82.27,549,86,567.49,80.53,581.22,78.69,585.88,81.78,597.46,91.93,600Zm825-168.81c2.23-16.15-13.11-23.89-21.52-35.65-9.52,1.72-16.25-6.12-25-7.29-5.09-.68-9.71-3.22-13.83-6.38-8-6.13-7.17-14.65,2.14-18.64,7.08-3,14.43-4.47,22-.3,3.48,1.93,7.59.41,7-3.77-1.2-8.12-3.72-16.06-5.94-24-.67-2.4-3.22-1.76-5.12-2.11-12.31-2.22-23.69,1.09-34.74,5.95-15.57,6.86-25.27,18.21-25.88,35.83-.65,18.34,10.1,29.13,25.08,37.05,8.28,4.38,17.11,7.3,25.87,10.5,7,2.56,13,7.7,12.22,15.43s-7.94,10-14.9,11.09a50.31,50.31,0,0,1-17.85-.75c-4.45-.94-6.44-.19-4.86,4.94A75,75,0,0,1,845,470.57c.29,4.79,3.33,6.65,7.93,7.08,13.34,1.25,26.22-.6,37.92-7C905.63,462.49,917.75,452,916.93,431.2ZM412.22,503.44c-8.18-10.56-15.52-19.22-21.9-28.54-5.17-7.55-10.64-10.44-19.75-6.9-7.36,2.86-15.39,3.93-23.06,6-2.11.58-5.14.9-1.43,4.57,16,15.83,31.31,32.39,47.51,48a44.62,44.62,0,0,1,12.84,23.31c1.89,8.31,4.22,16.53,6.44,24.77,5.6,20.78,5.62,20.77,26.54,14.84,13.7-3.88,13.59-3.86,9.81-17.91-6.6-24.48-16.76-48.75-4.52-74.41,1.2-2.53,1.54-5.47,2.25-8.22,3.72-14.41,7.43-28.83,11.45-44.4-11.28,3.06-21,6.32-31,8.17-7.07,1.31-9.15,5.16-9.89,11.43C416.06,476.61,414.21,489,412.22,503.44ZM285.5,451.59c.62-8.25,9.61-5.8,9.37-12.57-.22-6.2,4-7.95,9-9.1,5.55-1.27,11.06-2.7,16.54-4.23,4.16-1.16,8.59-1.66,12.68-2.68,16.69-4.13,32.52-13.58,50.71-10.34.37.06,1.14-.28,1.21-.57,2.06-7.92,9.29-5.44,14.38-7.08,6.35-2,14-1.59,19.35-4.12,14.5-6.93,30.32-8.32,45-13.7,3.51-1.29,7.76,1.93,8.62.46,3.22-5.46,8.63-5.09,13.27-6.15,30.59-7,60.38-17,91.17-23.55,13.16-2.8,26.51-7.47,39.72-11.47,11.16-3.38,22.47-6.28,33.74-9.31,2.36-.63,4.82-1.31,3.88-4.31-1-3.22-3.13-.9-4.83-.44l-37.57,10.13c-13.46,3.62-26.91,7.31-40.4,10.84-13.75,3.59-27.75,6.39-41.26,10.71-12.48,4-25.28,6.58-37.84,10.2-30,8.65-60.47,15.93-90.54,24.51-17,4.85-34.4,8.24-51.42,13.3-34,10.11-68.48,18.53-102.7,27.86-2.49.68-7.73.3-6.64,4.3s5.4,1.23,8.11.54c9.91-2.53,19.73-5.43,29.63-8,2.76-.73,5.74-2.41,9.3.82C280.32,439.82,282.8,444.41,285.5,451.59ZM308.72,607c7.94-4.92,14.5-20,12.87-28.92-.27-1.47-.67-3-2.25-3.18-2.59-.31-2.26,1.9-2.42,3.46-.64,6.44-1.85,13.3-6.22,17.69C306.77,600.05,307.72,603,308.72,607Zm19.39,15.38c-.45,6.47-.15,11.94-1.35,17.06C325,647,330.22,648,335,649.64c1.13.39,3,.67,3.42-1.32a2.08,2.08,0,0,0-1.59-2.61c-6.18-1.16-3.9-5.3-3.73-9.18C333.26,631.8,335.49,626.11,328.11,622.42Zm-136-139.09c5.23-4.1,14.89-1.77,16.15-11.22.14-1.05,1.89-1.94,3-2.78,3.57-2.75,7.18-5.44,10.78-8.16C206.66,461.48,200.09,473.47,192.12,483.33ZM691.66,339.15c-8.25-7.92-18.35-10.32-27.34-14.71-1.6-.78-2.11-3.82-4.76-2.42-1.27.67-1.17,1.83-.77,2.89.82,2.22.68,4.85,4.39,5.19,7.2.66,13.24,4.72,19.53,7.88C685.26,339.25,687.5,341.07,691.66,339.15ZM62.05,714.8c10.58-6.2,20.26-23,17.59-29.48C73.7,695.25,68.82,705.55,62.05,714.8ZM490.53,563c1.72-12.75-1.78-22.76-5.74-32.68-.43-1.09-1.3-2-2.6-1.67-1.88.51-1.45,1.7-1,3.23C484.18,541.58,485.25,551.87,490.53,563Zm46.81-184c7.35,10,11.06,22.45,19.32,32.21C552.61,399.11,546.74,388.14,537.34,378.94Zm-60.2,99.5c-1.12,10.66-2.7,21.35,4.41,30.5C481.11,498.58,481.39,488.13,477.14,478.44Zm9,101.23c.52,11.15,1.25,20,8.53,26.8C492.85,597.94,494.56,588.3,486.1,579.67ZM316.19,550.49c-.64-9.24,2.15-17.54-3.21-25.31C308.48,534.27,309.56,544.16,316.19,550.49ZM711.63,334.61c6,7.18,13.72,11.13,23.33,10.83Zm63.73,153.1c-.45,4.54.56,8.41,4.18,11.18,2,1.5,4.69,3.2,6.77,1.08,2.29-2.36,0-4.53-1.74-6.39C782.1,490.9,779.6,488.3,775.36,487.71ZM370.71,615.07c-.25,9.46,3,15.53,4.38,22.59C382.14,628.71,375.14,623.49,370.71,615.07Zm573-137.89c-3.06,8,2.67,9.49,8.52,11.88C952.11,482.43,946.33,481,943.69,477.18ZM321.21,504.45c0,1.67,0,2.75,0,3.83,0,2.51,0,5,.09,7.53.16,4.6,2.34,6.55,3.82,3.93,2.74-4.87.39-9.66-1.41-14.3C323.58,505.11,322.76,505,321.21,504.45Zm-15.68,62.16c5.06-5.39,8.07-10.3,3.07-17.71C307.61,555.08,302.34,559.53,305.53,566.61Zm2,71.66c-6.07,7.17-6.8,10-5.64,18.16Zm6.34-136.74c-1.47-5.38.36-9.36-2.7-12.69C304.54,493.51,305.29,497.14,313.89,501.53Zm-25.53-43c-2.69,8.78.93,11.66,6.77,12.93,1.31.29,3,.63,3.55-1.11a2.37,2.37,0,0,0-2.09-3C291.61,467.65,290.23,464,288.36,458.49Zm330.25,97.69c-2.65,5.17-1.28,8.59,3.51,11.1C623.46,562.76,622.13,559.39,618.61,556.18ZM910,387.26c3.57-3.72,3.68-8.82,3.42-14A31.27,31.27,0,0,0,910,387.26Zm-741.2,88.46-2.24.48c1.11,4.61,2,9.29,6.6,12.51Zm300.52-8.31c-.66-5,2.68-10.76-2.2-16.67C467.51,457.15,465.78,462.45,469.33,467.41ZM588,430c-1.5-5-1.93-10.62-8-14.22C582.08,421.64,582.83,427,588,430ZM359.51,632.08c-5.23-1.92-6.26-.69-7.67,2.69-1.29,3.08-2.62,5,.78,7.57C354.7,638.51,351.58,632.8,359.51,632.08ZM872.45,486.62c-6.06,8.88-6.61,10.81-4.88,16.61A44.47,44.47,0,0,0,872.45,486.62ZM299,118.77c-.79,2.88-11.88,6.5-.42,9.16C298.72,124.7,298.86,121.74,299,118.77ZM914.86,459.16c-.93,4.29-3.68,8.17-2.72,13C917.5,466.19,917.5,466.19,914.86,459.16ZM960.8,447.7c-1.89,5.71-3.68,10.39-2.31,16.36C962,458.75,961.34,453.73,960.8,447.7ZM131.22,502.78c-2.51-4.77-4.5-7.67-9.09-9.58C123.66,498.3,126.15,500.66,131.22,502.78ZM167.07,589c1.24,4.53,1.76,8.21,7.13,7.59C172,594.39,171.63,590.86,167.07,589ZM924.83,406.62c2.31-7.63,2.31-7.63-4.51-9.77C926.09,398,922.9,402.75,924.83,406.62ZM885.9,496.24l-2.16,9.32c1.06.07,2.72.59,3.08.12C889.09,502.73,887.68,499.61,885.9,496.24Zm-37.1-262c-3.62,2-.42,5.43-3.17,7-1,.55-3.8-1.74-2.88,1.58a4.31,4.31,0,0,0,2.94,2.54,3.23,3.23,0,0,0,3.46-3C849.41,239.89,849,237.38,848.8,234.23Z" transform="translate(-7.1 -58.06)"/><path class="a" d="M129.8,260.35c10.15,3.69,20.08,3.1,30-1.92-7.68,8.73-9.95,20.75-19.57,27.41-2.84,2-.12,4.48-1.44,6.81-4.29,7.57-8.09,15.36-17.86,18.29l7.39.4c-12.48,23.62-20.5,48.45-29.12,73-2.2,6.27-2.77,13.09-4.63,19.51-1.18,4.09-2.37,11.15-7.85,2.28-1.5-2.42-3.25-2-5.53-.19-3.06,2.43-2.08,4.15.07,6.14,13.52,12.51,5.37,26.73,2.88,40.68l-6.61-13.47c-1.1,8.21,2.89,14.54,4.88,21.11,1.31,4.34-1.21,11.25,7.32,12.73,3.46.6,1.85,9-2.58,9.77-10.28,1.82-20.41,4.76-30.24,7.67-9.06,2.68-20.6,1.76-27,10.1-5.92,7.78-9.71,16.51-9.87,27.49C20,539.54,26.79,547.67,29,557.81c5,23.68,12.28,46.89,18.63,70.28,2.46,9.07-5.2,11.48-10.25,15.61l-.39-2.35a23.64,23.64,0,0,0-3-10.07c-5-28.45-15.46-55.46-21.85-83.53-2.12-9.34-5.74-18.57-4.91-28.26,1.53-17.91,13-30,32.09-35.15,18.57-5,18.68-4.95,20.57-24.2A458.75,458.75,0,0,1,111.2,289.48c3.77-7.16,9.12-13.38,11.88-21.05q3.26-4.12,6.52-8.23Z" transform="translate(-7.1 -58.06)"/><path class="a" d="M536.28,161.49c-.44-7.41,1.64-14.6,1.65-22.06,0-6.19,3.67,1.24,5.83-1.32-4.15-7-7.7-14.57,2.18-21.21,4.91-3.3,4.72,1.69,6.9,3.49,2.13-2.14-3.78-6.46,1.85-6.8,4.23-.25,6.06,2.38,6.06,6.43,0,7.26.79,14.37,3.74,21.62A57.27,57.27,0,0,0,570,122.49c1.1-10.63,8.43-3.86,13-4.4,6.88-.83,4,4.35,3.56,7.18q-4.47,30.51-9.43,61c-.53,3.27.2,8.6-5.8,6.89-5.18-1.48-13.37,2.37-14.23-7.79a96.13,96.13,0,0,0-4.15-19.63c-3.62,5.74-4,12.19-4.9,18.31-.82,5.62-3.32,4.89-7.44,4.42-3-.34-4.3-5.3-8.71-2.35-1.58,1-1.49-3-1.18-4.68,1.09-6.14,2.45-12.22,3.71-18.33l1.73,2.62C537.92,164.38,536.84,162.92,536.28,161.49Z" transform="translate(-7.1 -58.06)"/><path class="a" d="M394.2,163.24c7,.41,10.44,4.65,12.39,10.81a109.07,109.07,0,0,0,5.78,15.12c3.05,6.25,1.17,9-5.23,10.91-10.48,3.2-10.3,3.56-14.12-7.23-1.9-5.34-4-10.6-6.19-15.86-1-2.41-2.36-5.25-5.51-3.76-2.9,1.38-.89,3.94-.16,6,2.43,6.66,4.61,13.44,7.5,19.91,2.24,5,1.5,7.29-4,9.27-13.4,4.83-13.28,5.14-18.05-8-6.28-17.36-12.26-34.84-19.05-52-2.4-6.08-.43-8.16,4.85-9.52s11.22-6.18,15.43,1.85c.89,1.69,2.06,1.73,3.43,1.08,2.46-1.17.17-2.44-.28-3.23-2.59-4.55-1.22-6.34,3.77-7.32,6.39-1.24,12.13-.74,16.24,4.56C398.22,145.1,399.27,154.93,394.2,163.24Zm-14.88-7.42c-.41-2.12-2.74-5-2.12-8.67.12-.68-.79-3.81-3.2-2.2-1.54,1-5.12.58-3.7,4.32,1.11,2.91,1.86,6,3.15,8.8.59,1.28.49,3.82,2.91,3.34C378.52,161,379.65,159.35,379.32,155.82Z" transform="translate(-7.1 -58.06)"/><path class="a" d="M199.51,272.73c-1.1-1.77-1.89-4.12-3.51-5.47-5-4.14-2.46-7.26.32-11.36,3.4-5,6.83-1.77,10.39-1.23,1.37.21,1.61,1.27,2.23,2.2,12,18,31.32,24.35,50.09,31.33,7.19,2.67,4.25,5.72,2,9.82-4.84,9-12.24,5.32-19,4.08-2.31-.42-4.41-2-7.73-3.58.5,6.73,6,8.13,8.84,11.36,3.06,3.49,4.9,5.84.58,9.7-3.46,3.09-3.74,10.75-8.27,10.6-3.29-.11-6.46-6.08-9.56-9.56-6-6.77-13.15-12.59-18.12-20.32a5.42,5.42,0,0,0-3.2-2.15c-5.88-2.06-11.62-4.55-17.3-7.13-13.66-6.2-13.47-6.13-3.71-18,2.62-3.16,4.78-3.68,7.81-1.49C193.81,273.35,196.27,274.37,199.51,272.73Z" transform="translate(-7.1 -58.06)"/><path class="a" d="M627.47,212.38c-7.17-.25-15.19-2.56-20.37-8.84-5.69-6.91-6.06-16.18-3.56-24.43,3.29-10.82,8-21.25,12.43-31.68,7.08-16.47,26.3-16.81,39.52-4.74,10,9.15,7.91,16.5,4.72,26-1.25,3.71-2.08,7.12-7.69,7.05s-9.54-3.28-13.47-5.85c-2.51-1.64,1-5.54,1.53-8.48,0-.27.27-.52.31-.79.71-4,6.52-9.22.59-11.67-5.17-2.13-5.73,5.1-7.24,8.58-4.69,10.77-8.85,21.78-13,32.76-.94,2.46-2.87,5.81,1,7.33s4.29-2.54,5.79-4.69c2.33-3.35,1.51-10.15,6.18-10.1,5.06,0,10.09,3.41,15.11,5.4,1.46.58,1.87,1.69,1.75,3.38C650.32,202.13,639.36,212.35,627.47,212.38Z" transform="translate(-7.1 -58.06)"/><path class="a" d="M291.93,266l-16.38,14.24c-4.54-5.29-9-10.68-13.66-15.87-10.6-11.84-21.23-23.65-32-35.32-3.54-3.83-5.24-7,.29-10.52,7.15-4.56,12.23-11.68,19.6-16.08,6.84-4.07,12.94-3.5,18.6,2,2,2,3.93,4.1,5.83,6.22,9.56,10.71,15.26,15.94.35,29.65-3,2.71-2.1,4.59.17,7C280.36,253.28,285.86,259.4,291.93,266Zm-29.29-33.75c2-.61,2.92-2.61,2.3-4-2.35-5.11-5.37-9.88-11.39-11.32a2.42,2.42,0,0,0-3.21,1.88C250.05,220.56,261,232.42,262.64,232.26Zm11.86,25.93c-3.77.24-7.68-.76-10.93,1.86-.91.73,0,2.74.82,2.77,3.66.13,7.27-.4,10-3.34C274.5,259.31,274.42,258.93,274.5,258.19Z" transform="translate(-7.1 -58.06)"/><path class="a" d="M314,157.5c3.77,2.35,5.2,6.55,7.13,10.2s-1.84,4.4-3.88,5.28c-6,2.61-6.07,5.68-2.66,10.94,2.95,4.54,5.65,5.16,9.35,1.87,4.49-4,6.58-1.61,8.85,2.46,2.11,3.79,5.29,7.28-1.17,9.91-8.17,3.34-3,7.52-1,11.88,2.45,5.33,5.4,5.52,9.79,2.37,3.36-2.42,6.77-5.72,10.15.72,2.51,4.79,5.23,8.27-1,12.66-7.21,5.13-16.63,5.83-23,12.45-1.94,2-3.52-.52-4.53-2.19q-17.46-28.8-34.83-57.64c-1-1.68-2.21-3.69.22-5.17,8.24-5,16.55-10,24.84-14.92C312.79,158,313.32,157.83,314,157.5Z" transform="translate(-7.1 -58.06)"/><path class="a" d="M212,376.31h-1.72c-4.72-3.09-9.59-5.89-15.12-7.31v0c-.71-3.86-4.38-4.1-7-5.42-12.63-6.43-25.3-12.8-38.09-18.89-4-1.91-5.59-3.56-3.3-8.2,3.54-7.19,8.55-13.61,10.8-21.51,1.77-6.21,5.89-2.53,8.69-1,3,1.57,8.89,2.45,4.83,8.11-3.77,5.28-3.8,8.59,2.91,11.4,4.6,1.92,7.32,2,9-3.14,1.89-5.76,5-4.79,9.61-2.44,4.83,2.45,6.92,4.53,3.27,9.33s-.73,7.18,3.55,8.59c3.84,1.26,7.77,6.7,11.49-1,4.12-8.57,6.09-8.57,14-3.61,2.94,1.83,3.68,5.12,1.32,5.91-7.12,2.38-2.89,9-5.77,13C216.94,364.92,214.74,370.83,212,376.31Z" transform="translate(-7.1 -58.06)"/><path class="a" d="M724.68,189.19c-3.32,4.56-6.79,6-11.53,1.47-4.43-4.23-6.49-.62-8.85,3s-4.54,7,1.19,9.26c6.73,2.67,4.22,6.33,1.71,10.55s-4.93,5.24-9.28,1.89c-9-6.93-8.86,4-12.19,7.14-3.85,3.69-1.27,5.4,3.19,7.22,6,2.45,3.81,7.89,2,12.44-2.12,5.45-5.37,3.25-8.71,1.22-6.49-4-12.23-9-19.47-11.91-3-1.23-5.16-4.52-2.16-9,10.76-16,21.13-32.28,31.52-48.53,2.15-3.35,8.11-3.94,5.71-11.32,9.94,6.34,18.19,11.78,26.62,16.92,5.31,3.23.42,6.35.28,9.51Z" transform="translate(-7.1 -58.06)"/><path class="a" d="M508.51,152.91c-3.18.38-4.61-4.91-6.7-1.34-1.9,3.24-10.18,1.7-6.3,9.73,2.07,4.27-.67,10.92,8,10.18,1-.09,2.4,3.45,4,5.85,2.43-1.83-1.26-5.13,2.18-6.61,3.31,3.68,2.34,8.4,1.33,12.2-1.06,4-5.65,3-8.92,3-8.49.08-19.52,3.09-24.76-1.07-5.54-4.41-1.66-16-2.09-24.4-.71-14.16-.75-28.35-1.55-42.49-.35-6,1.64-8,7.58-7.8a135.76,135.76,0,0,0,20.46-.78c6.37-.74,6.87,2.63,6.92,7.49.05,4.55.61,8.71-6.19,8-3.51-.36-7.4-1-7.44,5.13,0,5.82,1.43,11,7.51,10.24,7.53-1,5.65,3.52,6,7.18C508.63,149.12,508.51,150.82,508.51,152.91Z" transform="translate(-7.1 -58.06)"/><path class="a" d="M135.06,461.8c-.71,2.84,2.34,4.47,2.26,7.46-12.21,3.41-24.56,6.76-36.83,10.35-3.93,1.15-5.09.77-6.92-3.8-5.74-14.34-1-28.11.91-41.91a289.34,289.34,0,0,1,8.26-38.7c8.12-28.77,17.69-57,32.18-83.43,9.54-17.4,19.19-34.67,30.8-50.74,2.89-4,5.1-10.79,13.35-8.1a425,425,0,0,0-35.55,55.6c-2.7,5.05-5.42,10.35-9.93,13.78-4.14,3.16.55,6.08-1.26,9.76-11.55,23.46-19.42,48.29-26.18,73.56-4.84,18.07-6.37,36.52-9.05,54.87-1.14,7.77,1.65,8.67,8.2,6.5,7-2.33,14.26-3.87,21.33-6,3.15-.95,6-1.66,8.61,1Z" transform="translate(-7.1 -58.06)"/><path class="a" d="M454.82,185c.11,2.4-.07,3.79-2.67,4.75-13.89,5.11-17.13,3.48-19.81-11C429,160.8,426,142.84,422.55,125c-1-5.15-.21-7.62,5.45-8.53,17.52-2.83,13.15-4.28,16.3,11,3.67,17.81,6.57,35.79,9.81,53.69C454.37,182.53,454.63,183.93,454.82,185Z" transform="translate(-7.1 -58.06)"/><path class="a" d="M177.55,245.27a405.05,405.05,0,0,1,109-96.73c13.36-8.1,27-15.82,41.38-21.83,10.24-4.27,20.09-9.56,30.94-12.39,2.19-.57,3.17-.42,3.69,1.6.8,3.07-1.49,3.84-3.65,4.73-10,4.13-20.09,7.93-29.87,12.47A397.7,397.7,0,0,0,194.67,234.4c-2.77,3.21-6,6.14-8.21,9.68C183.93,248.08,181.42,247.6,177.55,245.27Z" transform="translate(-7.1 -58.06)"/><path class="a" d="M504.73,95.27a416.4,416.4,0,0,0-79.41,6.92,311.25,311.25,0,0,0-54.5,14.59c-2.39.9-3.87,1.25-5.28-1.66-1.77-3.62.69-4.37,2.82-4.32,9,.23,15.62-7.92,25.52-6.46,2.87.42,8.64-2.84,13.36-4.06,52.28-13.56,105-14.35,158.13-6.38,2.9.44,5,1.06,4.28,4.63s-2.66,1-4.36,1C544,98.27,523,94.38,504.73,95.27Z" transform="translate(-7.1 -58.06)"/><path class="a" d="M377.61,769.77c-2.32,2.07-.58,4.3-.53,6.41-2.32,1-3.83-.74-5.56-1.42-7.56-3-2.82-9.2-4.3-15.14,11,4.56,20.94,9,31.11,12.83,43.35,16.3,88,22.18,134.1,16.59,2.91-.36,6.39-1.89,8,2.46.42,1.15,1.58,2.17,1.78.22.6-6.18,5.72-4.47,9.1-5.36,10.17-2.67,20.52-4.66,30.63-7.52,6.22-1.76,12.6-2.13,18.77-5.4s13-5.25,19.35-8.47c6.59-3.36,13.25-6.56,19.8-10,6.74-3.51,13.58-6.79,19.66-11.5s12.34-9.18,18.81-13.31,11.77-10,17.75-14.93c2-1.62,3.51-7.82,7.39-3.39,3.21,3.67,7,8.1.39,13.52-13,10.7-26,21.31-40.15,30.33a275.63,275.63,0,0,1-60.22,29c-19.79,6.63-39.59,12.87-60.31,15.69-40,5.44-79.61,3.64-118.73-6.48-11.65-3-23.12-6.71-34.67-10.09-3.85-1.13-6.86-2.77-7.51-7.48C381.88,773.78,380.73,770.83,377.61,769.77Z" transform="translate(-7.1 -58.06)"/><path class="a" d="M544.88,880.37c-2-9.94-.57-20-1.3-30a40.21,40.21,0,0,0-5.27-17.93c-2.74-4.71-1.87-12.48-.37-18.31.86-3.34,7-2.81,10.75-2.48,4.95.43,8.74-2.83,13.66-2.87,13.23-.1,21.82,7.8,20.53,21-.44,4.46,1.49,10.33-5.56,13,13.21,5.78,10.36,18,13,27.52,2.44,8.71.41,10.26-8.79,12.45-7.83,1.86-10.67.09-10.42-8.32.17-5.84-1.88-11.74-2.93-17.62-.48-2.61-1.2-5.69-4.4-5.22-4.14.6-1.92,3.9-1.56,6.14,1.08,6.73,2.08,13.5,3.56,20.15,1.2,5.37-.3,8.18-6,8.56a35.72,35.72,0,0,0-6.7,1.22c-5.8,1.56-7.92-.82-7.2-6.46,4.68-3.32,1.14-6.58-.64-9.92Zm19.24-47.91c-1.1-2.89.5-8.29-5.15-9.48-2.29-.48-2.56,1.87-2,3.57,1.3,4.11-1.06,9.91,3.77,12.1C563.12,839.74,564.64,836.23,564.12,832.46Zm-14,28.18c3.22,3.75,2.12,8.05,6.2,9.39.35.12,1.59-1,1.55-1.47C557.5,865,557.06,861.28,550.1,860.64Z" transform="translate(-7.1 -58.06)"/><path class="a" d="M374.6,837.93c1.36,9.09-.65,18-1.78,26.88-.43,3.39-1.54,4.57-4.95,3.05-3.63-1.6-7.47-2.7-11.11-4.29-2.24-1-2.83-2.24-2-5.29,1.61-5.61,1.78-11.64,2.62-18-5.88,2.24-6.05,8.12-8.87,12-4.33,5.91-8.72,6-18.77-.31-6.43-4-.1-6.89,1.34-9.46A235.85,235.85,0,0,1,345,821.11a40.38,40.38,0,0,0,7.32-20.59c.24-2.82-1.42-7.13,4.15-7.69,1.64-.17,2.43-1.9-.4-3.11-4.15-1.78.3-4.69-.32-7.15-.32-1.29,1.21-1.67,2.43-1.27,3.59,1.16,2.23,4.09,2.17,6.46-.1,4-.83,8,3.41,12.61-.23-3.87-.77-6.45-.41-8.9s-1.5-7.33,3.66-6.35c2.68.51,9.68.5,4.62,7.11a2.44,2.44,0,0,0,.24,2.38c2.7,2.3-3.5,6,.8,7.16,3,.79,4.22-3.19,5.93-5.29,3.28-4,15.38-3.18,17.92,1.39a3.11,3.11,0,0,1-1.22,4.43c-7,2.72-6.08,10.72-10.5,15.12-5.26,5.23-7,12.12-8.42,19.12-.13.63-1.23,1.06-1.88,1.59-.25-.41-.51-.81-.77-1.22l-.38,1.11Z" transform="translate(-7.1 -58.06)"/><path class="a" d="M799,716c-5.22-6.18-4-10.11.55-12.26,4-1.89,5.46,2.53,7.73,4.71s1.76,6.56,6.89,6.86c2.21.13,3.72,5.22,2.92,8.26-2.57,9.8-6.29,19-14.84,25.51-10.19,7.79-18.37.56-25.88-4.06-9.87-6.06-18.55-14.09-27.62-21.41-10.9-8.79-5.58-33,7.17-38.63,3-1.3,8.66,5.53,9.09,11.53,3.78-3.75,8.51-6.6,1.57-11.37-.51-.34-.48-2.22,0-3,.85-1.54,2.43-1,3.79-.57,7.77,2.47,13.95,7.25,19.49,13-1.79,2.18-4.92,1.33-5.23,6.09-.51,8-7.54,9.6-14.34,4.46-2.7-2-4.79-5.13-8.32-5.73-2-.34-4.87-.64-5.81,1.79s.4,4.19,2.82,5.45c6.45,3.36,12.77,6.86,15.32,14.56.42,1.27,1.82,4.49,5.15,1.92,1.56-1.2,4.64,1,4.79,2.38.82,7.5,8.6,4.41,11.83,8.18,1.05,1.23,3.31.9,4.32-1a3.57,3.57,0,0,0-.81-4.64,90.29,90.29,0,0,0-7.68-6.72c-2.21-1.61-4-2.4-2-5.85C792.31,711.33,794.34,714.54,799,716Zm-2.41-1.92c2.2,8.09,6.21,12.54,10.73,19C805.79,724.93,802.16,720.27,796.58,714.09Z" transform="translate(-7.1 -58.06)"/><path class="a" d="M419,861c-.85-6.55,1.18-15.27-8.42-17.58-2.55-.61-2.09-2.52-1.79-4,2.23-10.5,4.63-21,6.95-31.46.38-1.73.81-3.72,3-3.18,7.79,1.9,16.61.22,23.1,6.67a5.22,5.22,0,0,0,2.87,1.56c10,.8,14,4.45,12.47,13.15-1.35,7.61-2.5,15.34-5.75,22.6a7.85,7.85,0,0,1-7.95,5.09c-5,0-1-3.85-2-5.8-1.18-2.33-1.82-4.75-4.69-5.81-.55,3.86,1.65,7,2.58,10.8-4.29,2.25-7.82,0-11.23-1.92-2.81,9.38-3.12,19.11-7.13,28.06-1,2.14-.61,2.91-3.32,2.63-16.63-1.71-17-2.09-13.57-18.3.53-2.51.68-5.23,1.81-7.44,1.26-2.48-1-7.74,3.42-7.23,3.84.44,8.89,2.11,8.31,8.31C417.64,858.36,418.58,859.68,419,861Zm13.55-31.46c-.9,2.74-1.12,5.5-2.94,7.91-.7.92-.25,3.84.68,4.61,1.48,1.21,3-.61,4.27-1.68,4.9-4.1,4.5-10,4.87-15.47.16-2.4-2-3.41-4.8-3.21C426,822.28,434.31,827.27,432.59,829.49Z" transform="translate(-7.1 -58.06)"/><path class="a" d="M735.08,759c1.85,7.31,6.93,12.71,10.94,18.76,3.4,5.11,7.41,10.09,6.15,18.53-6.29-6.42-13.36-9.3-23-12.15,5.38,6.19,9.05,11,13.35,15.19,3.71,3.61,2.41,6.13-.79,8.6-3.53,2.73-7.5,8.55-11.9,3.4-10.23-12-20.91-23.61-29.32-37.13-2.77-4.47-8.48-7-11.48-11.88-1.71-2.79-5.71-5.34-1.14-8.35,4.23-2.79,6.75-10.4,14.11-5.78,6.41,4,12.87,8,19.43,12,1.56-6.39-5-8.37-7-12.8-1-2.22-3.15-4-5-5.74-3.6-3.49-.88-5.21,1.7-7.27,4-3.19,4.15,1,5,2.73,4.48,9,7,19.6,19,22Z" transform="translate(-7.1 -58.06)"/><path class="a" d="M671.06,801.57c7.88-8.66,10.22-8.31,14.75.58,2.37,4.66.06,6.22-3.36,7.56-8.34,3.26-2.86,7.68-1.15,11.86,2.08,5.11,5.34,6.31,9.57,2.63,5.86-5.11,8.28-1.2,11.42,3.42,3.93,5.78.82,7.8-3.89,9.92-3.84,1.73-7.47,4-10.91,5.8-2.23-1.19-1.32-2.7-1.35-4,0-1.93-.93-3.55-2.88-3.38-2.13.18-2.31,2.29-2.23,4,.09,1.93,1.26,4.13.65,5.7-.94,2.43-3.81,3.32-6.21,4.09-3.17,1-4.25-2.06-4.54-3.85-2-12-11.91-19.51-16.65-30-4-8.76-9.09-17-13.88-25.38-2.47-4.3-2.82-7,2.54-9.84C650,777,658,775,664.16,769.48c2.77-2.51,5.08-.74,5.59,2.08.67,3.65,7.32,6.16,2.25,10.89-2.44,2.27-7.69,2.18-7.81,5.74C664,793,667.92,796.83,671.06,801.57Z" transform="translate(-7.1 -58.06)"/><path class="a" d="M288.36,806.64c-3.53,2.64-4,6.78-5.82,10.15-1.14,2.1-.66,6.66-5.31,3.6-3-1.95-7.06-3.19-3.31-8.19,4.21-5.62,7.91-11.63,11.87-17.51,2.24,1.76.38,4.43,3,5.73,1.85-4.85,4.3-9.54,5.39-14.53,2.67-12.13,11.92-20.31,17.61-30.6,1.64-3,3.95-.84,5.78.36,5.7,3.73,11.35,7.52,17,11.28,7.48,5,7.58,10.54.39,15.88-3.49,2.6-5.36-.68-7.16-2.22-2.79-2.37-6.74-4-7.24-.23s-11.28,7.21-1.32,12.23c2.06,1,7.82,3.07,3.56,6-3.3,2.28-2.77,14.44-11.43,6.07-4.7-4.55-7-1.25-8.94,2.42s-7.69,7-.53,11.62c7.81,5.06,7.76,8,1.39,14.57-1.18,1.21-2.09,2.9-4.13,1.56-4.51-3-9.36-5.56-13.35-9.12-2.58-2.31-2.27-6.06-.51-9.37C286.89,813.4,288.79,810.48,288.36,806.64Z" transform="translate(-7.1 -58.06)"/><path class="a" d="M481,812.52c2.55,9.75.57,18.4,6,26.9,1.42-7.88.69-14.43-.32-20.92-.58-3.74,0-4.71,3.75-3,5.54,2.45,11.5.22,17-.09,5.08-.29,6.31.35,5.82,4.68-.46,4,2.78,10.92-6,9.67-6.42-.92-8.34,1.34-8.12,7.79.18,5.2,1.55,7.46,6.76,6.76,5.62-.76,6.64,2.21,6.4,7.08s-.6,8-7,7.62c-4.87-.3-8.72,0-8.33-6.47a12.78,12.78,0,0,0-1-4.14c-.83-2.77-1.87-5.9-4.69-6.73-2.61-.78-2.6,2.55-3.21,4.11-1.19,3.08-2.76,7,1.18,9,3,1.58,4.51,4.21,6.64,6.43s4.16,3.79,1,7.57-1,6.85,4.23,6.76c1.71,0,3.42-.07,5.13,0,3.9.08,8.61-.88,7.5,5.76-.73,4.34,2.23,10.7-7.16,9.41-7.81-1.08-15.9-.2-23.86,0-3.54.07-5.21-1.14-5.12-4.93.52-23,.92-46.07,1.4-69.1C479.08,815.92,479.67,815.25,481,812.52Z" transform="translate(-7.1 -58.06)"/><path class="a" d="M642.94,860.68c.63,2.63-.67,3.48-2.27,4.43-13.06,7.76-16.15,6.64-21.26-7.68-6.18-17.34-12.22-34.75-18.83-51.93-1.94-5-.76-6.63,3.91-8.5,13.59-5.44,13.37-5.63,18.31,8.24C629.08,822.86,635.59,840.4,642,858,642.38,859,642.74,860.12,642.94,860.68Z" transform="translate(-7.1 -58.06)"/><path class="a" d="M220.46,796.94c4.6-3.24,5.95,2.5,9.09,3.3l.34.27a36.28,36.28,0,0,0,10.55,9.14v.07c9.18,8.91,19.75,16,30.18,23.33,36.16,25.32,75.74,43.38,118,55.83,12.49,3.68,24.92,7.2,38,8.17,3,.22,7.27,2.12,7.16,8a265.66,265.66,0,0,1-41-8.48C330,879.19,274,849.22,225.46,805.7,222.91,803.41,218.66,801.82,220.46,796.94Z" transform="translate(-7.1 -58.06)"/><path class="a" d="M383.07,754c36.11,17.43,74.37,25.51,114.29,25.92,12.44.12,24.88-.87,37.32-1.35,1.46,4.17.47,6.83-4.43,6.3-10.4-1.12-21,5.06-31.26-1-7.95,5.21-16.19,1.23-24.34.81-37.12-2-71.66-13-104.65-29.61-4.47-2.26-9.79-3.57-10.51-9.83-.14-1.19-.05-2.24,1.25-2.75A3.27,3.27,0,0,0,364,744.1a23,23,0,0,0,10.46,5.71l3,1.23A8,8,0,0,0,383.07,754Z" transform="translate(-7.1 -58.06)"/><path class="a" d="M641.58,741a77.79,77.79,0,0,0,18.83-12c2.35-1,4.37-1.08,5.53,1.75,1.33,3.24-1.72,4-3.27,5a285.28,285.28,0,0,1-94.77,42.34c-6.88,1.65-14,2.5-20.78,4.32-4.37,1.16-5.54-1.1-6.56-4.3,13.34-4.37,27.46-5.56,40.75-10.22s26.91-8.39,38.91-16.26c3.85-2.53,8.44-3.94,12.7-5.86A17.49,17.49,0,0,0,641.58,741Z" transform="translate(-7.1 -58.06)"/><path class="a" d="M646.12,882.43c.19,0-.93-1.3-1.24-2.41-.8-2.89,2-3,3.62-3.68,13.33-5.71,26.87-11,39.48-18.24,13-7.48,25.76-15.49,38.81-22.94,3.58-2,6.15-7.47,11.72-4.44,1.58-3.18,5-5.08,6.65-7.56,2.41-3.56,6.09-4.92,8.66-7.82.81-.92,2.24-3.21,3.91-.88,1.31,1.81,2.59,3.68-.23,5.74-6.65,4.86-12.91,10.28-19.66,15a431.2,431.2,0,0,1-81,44.59C654.08,880.94,650.94,881.27,646.12,882.43Z" transform="translate(-7.1 -58.06)"/><path class="a" d="M311.56,723c14,9.77,27.06,19.69,41.31,28,5.16,3-.47,8,1.67,11.65.26-.12.51-.26.78-.36,3.09-1.15,2.37-8.86,7.54-5.43,5.59,3.71-1.62,6.33-2,9.66-.34,3-1.9,2.11-3.34,1.36A287.83,287.83,0,0,1,312,738.23C305.9,733.4,312.53,728.23,311.56,723Z" transform="translate(-7.1 -58.06)"/><path class="a" d="M559.3,900.48c5.7-1.67,16.86-1.13,27.37-5.28,4.8-1.9,10.44-1.72,15.71-2.37,1.3-.17,3-.5,3.25,1.59s-1.41,3.07-3,3.48c-5.18,1.33-10.37,2.64-15.62,3.6-16.57,3-33.33,5-49.89,7.89A134.46,134.46,0,0,1,507.78,911c-2.31-.09-4.52.25-4.72-3.19-.23-3.82,2.49-3.15,4.53-3.19C523.22,904.36,538.73,902.57,559.3,900.48Z" transform="translate(-7.1 -58.06)"/><path class="a" d="M699.67,697.72c10.48-13,21.48-25.66,31.27-39.19,6-8.34,12.57-16.77,14.91-27.3,3-.49,5.58,1,5.1,3.74-.78,4.48-1.6,9.49-6.89,11.5l-.58-.11.7-.05c-4.5,14.44-14.76,25.13-23.88,36.54-4.3,5.38-9.18,10.3-13.55,15.64C703.74,702.16,701.75,700.43,699.67,697.72Z" transform="translate(-7.1 -58.06)"/><path class="a" d="M493.33,911c-17.55,3.26-34.41-3.53-51.78-2.84-4,.16-5.83-2.31-5.47-5.88.44-4.42,3.8-2,5.86-1.76,17.18,2,34.35,4,51.67,4.2,2.5,0,6.09-1.31,5.88,3.63S495.64,911.08,493.33,911Z" transform="translate(-7.1 -58.06)"/><path class="a" d="M735.25,759.18c1.44-5.55-4-7.89-5.69-12-1.58-3.84-3.87-7.39-6-11.36,8,2.75,24.68,23.39,37.47,45.94-6.77,2.57-6.89,2.65-10.39-2.66-3.27-5-6.17-10.18-9.4-15.18-1.45-2.25-2.33-5.47-6.14-4.88Z" transform="translate(-7.1 -58.06)"/><path class="a" d="M670.41,721.73a115.42,115.42,0,0,0,22.35-19.2c1,.07,1.45-.42,1.39-1.41l.19-.24c.59-.46,1.17-.93,1.75-1.4l0,0c4.3,3.08,4,6.11.09,9.36-7.57,6.28-15,12.7-22.59,19-1.41,1.17-2.86,3.52-5,2.16-2.71-1.74-1.93-4.3-.39-6.61l.45-.22C669.74,723.2,670.35,722.8,670.41,721.73Z" transform="translate(-7.1 -58.06)"/><path class="a" d="M609.26,895.36c.89-4.8,2.82-7,7.16-8,7.11-1.69,14-4.38,21-6.68,1.83-.61,3.63-1.95,4.91.92,1.39,3.12-.51,4.27-2.84,4.92C629.65,889.19,620.42,893.85,609.26,895.36Z" transform="translate(-7.1 -58.06)"/><path class="a" d="M752.44,617.36c5.87-6.18,8-14.17,10.57-21.93,2.29.65,4.19,2,4.88,4.23.94,3-10,19.25-13.14,19.7C753.4,619.55,752.83,618.46,752.44,617.36Z" transform="translate(-7.1 -58.06)"/><path class="a" d="M564.14,746.29c-3.42-3.75-6.65-6.61-9-10.06-4.94-7.16-10.55-11.16-19.91-8.36-4.74,1.43-11.09-8.46-7.48-13.23,7.37-9.75,1.22-17-2.11-25-1.18-2.85-2.34-5.7-3.51-8.54,6-1.62,11.67.25,16.94,1.93,7.17,2.29,12.29.89,17.41-4.53,3.81-4,8.46-11.56,12.58-10.06,4.54,1.66,2.3,10.13,2.61,15.59.42,7.52,3.11,12.64,10.35,15.64a49.18,49.18,0,0,1,16.42,10.57C574.81,711.68,567.85,727.36,564.14,746.29Z" transform="translate(-7.1 -58.06)"/><path class="a" d="M494.17,637.91c-1.59-7.39,1.69-10,8.9-11.62,22.11-4.83,43.89-11.14,65.75-16.88,17.68-4.64,35.5-9.25,53-14.68,7.35-2.29,10.64.56,11,8.92-19.21,5-38.46,9.8-57.64,14.93-25.36,6.79-50.66,13.81-76,20.73L494.5,639A.66.66,0,0,0,494.17,637.91Z" transform="translate(-7.1 -58.06)"/><path class="a" d="M359,677c-2.63-.73-6.72,2.92-7.52-3.38-.65-5.14.9-7.15,5.67-8.26,32.15-7.5,63.61-17.64,95.91-24.68,9.12-2,18.22-5.5,27.35-8.23,2.8-.84,5.87-3,8.63.27-1.16,7.22-5.69,10.3-12.61,12.15C437.26,655.38,398.16,666.28,359,677Z" transform="translate(-7.1 -58.06)"/><path class="a" d="M613.56,674c9.85-12,10.25-23,.63-35.13,3.18.22,4.43-.05,5.25.42,10.27,5.89,18.22,2.61,25-6,1-1.24,2.42-3,4.21-1.7.87.63,1.24,2.5,1.16,3.77-.56,9,1.76,16,11,19.72,2,.81,5.61,5.42,1.52,6.32-13.41,3-14.13,13.63-16.25,25.77C637.93,674.87,629,667.13,613.56,674Z" transform="translate(-7.1 -58.06)"/><path class="a" d="M433.76,721.63c2.7-8.26,9.88-12,8.69-18.53-1-5.65-4.12-10.92-7.26-18.73,14,6.38,25.54,6.25,34.08-8-1,15.33,4.48,24.86,19.41,29.29-16.13,2.55-21.38,12.78-22.23,27.6C458.85,720.45,448.61,716.11,433.76,721.63Zm23.95-6.79a8,8,0,0,0,.51-2.61c-.57-3-.45-6.36-3.47-8.26a2.11,2.11,0,0,0-3,.67c-2,3.58,4.43,3.16,3.22,6.63C454.52,712.58,455.09,714.07,457.71,714.84Z" transform="translate(-7.1 -58.06)"/><path class="a" d="M480.32,330.09c-8-1.84-14-3.17-20-4.62-7.87-1.92-14.48-.9-18.34,7.29a7.32,7.32,0,0,1-2.36,2.44c-2.45,1.79-4,6.06-7.37,5s-2.69-5.51-2.44-8.23c1.33-14-5.21-22.23-18-26.61-2.82-1-5.25-3.08-10.16-6.06,22.67-3.74,34.3-14.94,31.89-38,8,4,11.32,10.1,15.37,15.14,3.65,4.56,7.51,6.15,13.16,5.09,6.4-1.2,12.91-1.74,20-2.65-2.24,7-6.05,12.37-9.7,17.68-3.5,5.08-3.63,9.48-.61,14.8S476.93,322.6,480.32,330.09Z" transform="translate(-7.1 -58.06)"/><path class="a" d="M544.25,319.61c-2.76,4.34-6.57,7.52-12.4,11.46,1.55-14.86-3-25-17.29-27.83,1.08-4.35,4.18-4.52,6.23-4.85,9.4-1.48,12.8-7.39,12.74-16.07,0-5,1.94-5.28,5.62-3,7.22,4.53,18.77,7.81,29.43,7.95-9.65,10.88-11.12,22-1.08,34.17-8-.41-13.64-1.42-18.47-5.22q-7.42-8-14.85-16c-.5,0-1-.1-1.49-.07-.27,0-1.39-1.08-.65.36.12.23,1.47-.18,2.25-.3C535.24,307.91,538.92,314.18,544.25,319.61Z" transform="translate(-7.1 -58.06)"/><path class="a" d="M371.94,337.08l2.58-.3c3.78.17,7.6.56,11.14-1.32l2.78,1.37c-.79,2.15-1.59,4.29-2.39,6.44l.28.38-.23-.41c-5.26,5.22-4.32-4.11-8.81-3.07,5.23,5.57-.48,13.7,5.7,19a1.42,1.42,0,0,0,.36,1.55c.74,7.84-2,10.91-9.81,7.26a6.32,6.32,0,0,0-2.43-.09c-2.14-.81-4.05-.9-5.1,1.66-2.69,2.33-5.58,4.47-8,7-3.87,4-4.68.92-5.66-2.15v-.05c-.31-4.57,1.25-9.37-1.77-13.58-2-4.3-.23-7,3.83-8.49,1.82-.69,4.95,1,5-2.79.05-3.16-3.31-2.46-4.79-4-.75-.77-2.48-.6-4.84-1.06,5.58-5.53,4.46-12.75,7.58-18.48l5.32,5.42.08.15c.3,4.48-4.64,9.26.82,13.49Z" transform="translate(-7.1 -58.06)"/><path class="a" d="M335.33,350.86c4.12-3.61,8.43-4.91,12.75-6.29C347.05,355.49,344.68,356.77,335.33,350.86Z" transform="translate(-7.1 -58.06)"/><path class="a" d="M742.67,415.36c.53-5-4.28-8-4.86-12.89-.53-4.57.09-6,4.55-6.72C753.31,394,755.16,396,761,407c2.25,4.25,4,6.87,1.37,10.9a20.09,20.09,0,0,1-14.87,8.7C741.26,427,743.45,419.63,742.67,415.36Z" transform="translate(-7.1 -58.06)"/><path class="a" d="M267.11,590.85c-.75,5-.81,9.66-2.21,13.84-3,8.87-14.83,10.66-21.81,3.2-8.87-9.49-15-22-14.28-33.82.57-9.37-6.3-15.88-4.44-24.43.11-.51-.23-1.1-.34-1.66-1.45-7.55,5.2-12.08,8.89-15.45,5-4.55,12.4-1.35,16.69,4.94C260.71,553.74,264,572.49,267.11,590.85Z" transform="translate(-7.1 -58.06)"/><path class="a" d="M628.61,436.9,651,479.69c.39.76,1.21,2,1,2.27-4.65,5.84-12.05,4.63-18.15,6.81-3.5,1.25-4.26-1.53-4.24-4.45C629.66,468.47,628.53,452.66,628.61,436.9Z" transform="translate(-7.1 -58.06)"/></svg>