<?xml version="1.0" encoding="UTF-8"?>
<!-- Generator: Adobe Illustrator 19.2.1, SVG Export Plug-In . SVG Version: 6.00 Build 0)  -->
<svg xmlns="http://www.w3.org/2000/svg" xmlns:xlink="http://www.w3.org/1999/xlink" version="1.1" id="layer" x="0px" y="0px" viewBox="0 0 652 652" style="enable-background:new 0 0 652 652;" xml:space="preserve">
<style type="text/css">
	.st0{fill:#F4A81D;}
	.st1{fill-rule:evenodd;clip-rule:evenodd;}
</style>
<g>
	<path class="st0" d="M473,258.7c-37.2-11.3-57.7-52.2-45.8-91.5c4.1-13.6,11.6-25.2,21.1-34.2c0,0,24.8-24.4,64-10.8   c-0.4,0-0.9,0-1.3,0c-23.7,0-42.9,21.2-42.9,47.3c0,26.1,19.2,47.3,42.9,47.3c18.7,0,34.6-13.2,40.5-31.6l0,0c0,0,1.4-4,2.2-10.4   c0.1-1.1,0.3-2.4,0.3-2.4c1.5-16.5-1.4-45.6-33.6-68.9c-43.7-30.8-105.1-27.6-105.1-27.6c-109.2,0-197.7,90.4-197.7,201.9   c0,111.5,88.5,201.9,197.7,201.9h146.7V207.9C550,247.2,510.2,269.9,473,258.7"></path>
	<path d="M113.4,536.1h32.8v-10.9c0,0-26.9,0-30.5,0c-16.1,0-26.1,10.3-26.1,24.8c0,14.4,10.8,24.6,26.8,24.6h29.8v-10.8H113   c-4.8,0-11.1-6-11.1-13.8C101.9,542.2,108.2,536.1,113.4,536.1"></path>
	<rect x="283.8" y="512.9" width="12.2" height="61.7"></rect>
	<path d="M301.6,536.9c2-0.6,7.7-3.8,16.5-2.1c8.7,1.7,14.6,11.6,3.3,37c-1.8,3.4,3.3,3.9,3.3,3.9l8.3-1c0,0,13.9-29.4,3-41.8   c-10.9-12.5-33.4-7.4-34.9-6.5C298,528.3,299.7,537.5,301.6,536.9"></path>
	<polygon points="514.5,525.2 497.5,525.2 497.5,516 485.1,516 485.1,525.2 474.4,525.2 474.4,536.6 485.1,536.6 485.1,574.6    497.5,574.6 497.5,536.6 514.5,536.6  "></polygon>
	<polygon points="562.3,525.2 545.2,525.2 545.2,516 532.9,516 532.9,525.2 522.2,525.2 522.2,536.6 532.9,536.6 532.9,574.6    545.2,574.6 545.2,536.6 562.3,536.6  "></polygon>
	<path d="M217.4,541.1c0-7.2-6.2-15.9-18.3-15.9l-39.7,0v10.9H199c3.9,0,6.1,2.1,6.1,4.9v22.7h-35.1c-3.7,0-6.1-2.3-6.1-5   c0-2.8,2.2-4.9,6.1-4.9h30.8l0-10.4c0,0-22.5,0-30.8,0c-12.1,0-18.3,8.7-18.3,15.9c0,9.1,8.4,15.3,18.5,15.3h47.3v-33.3V541.1z"></path>
	<path d="M410.4,541.1c0-7.2-6.2-15.9-18.3-15.9l-39.7,0v10.9H392c3.9,0,6.1,2.1,6.1,4.9v22.7H363c-3.7,0-6.1-2.3-6.1-5   c0-2.8,2.2-4.9,6.1-4.9h30.8l0-10.4c0,0-22.5,0-30.8,0c-12.1,0-18.3,8.7-18.3,15.9c0,9.1,8.4,15.3,18.5,15.3h47.3v-33.3V541.1z"></path>
	<rect x="225.1" y="525.2" width="12.2" height="49.4"></rect>
	<path d="M243,537c2-0.6,4.9-3.8,13.7-2.2c5.6,1.1,9,5.1,8.6,14.7c-0.1,2.6,11.6,1.7,11.7-0.3c0.1-7.9,1-13.5-5.7-19.8   c-8.3-7.7-27.2-4-28.7-3.1C239.4,528.4,241,537.6,243,537"></path>
	<rect x="418.1" y="525.2" width="12.2" height="49.4"></rect>
	<path d="M436,537c2-0.6,4.9-3.8,13.7-2.2c5.6,1.1,9,5.1,8.6,14.7c-0.1,2.6,11.6,1.7,11.7-0.3c0.1-7.9,1-13.5-5.7-19.8   c-8.3-7.7-27.2-4-28.7-3.1C432.4,528.4,434,537.6,436,537"></path>
	<path class="st1" d="M555.5,567h1.4c0.7,0,1.2,0.3,1.2,0.9c0,0.7-0.5,1-1.5,1h-1.1V567z M554.5,572.5h1v-2.8h0.8l1.8,2.8h1.2   l-1.8-2.8c0.9-0.1,1.6-0.6,1.6-1.8c0-1.2-0.7-1.8-2.2-1.8h-2.4V572.5z M560.9,569.3c0,2.5-2,4.5-4.4,4.5c-2.4,0-4.4-2-4.4-4.5   s2-4.5,4.4-4.5C559,564.9,560.9,566.9,560.9,569.3 M551.1,569.3c0,3,2.4,5.5,5.5,5.5c3,0,5.5-2.4,5.5-5.5c0-3-2.4-5.5-5.5-5.5   C553.5,563.9,551.1,566.3,551.1,569.3"></path>
</g>
</svg>
