<?xml version="1.0" encoding="UTF-8"?>
<svg xmlns="http://www.w3.org/2000/svg" width="200" height="200" viewBox="0 0 200 200">
  <defs>
    <style>.a{fill:#fff;}.b{fill:#233065;}.c{fill:#e01d38;}</style>
  </defs>
  <path class="a" d="M195.86,93l.18-.23a2,2,0,0,0-.66-3A2,2,0,0,0,193.09,93,2,2,0,0,0,195.86,93Zm-69.79,6.42a10.32,10.32,0,0,1,0-2.35c0-1.24-.25-1.46-1.46-1.61a3.09,3.09,0,0,0-3.5,2,9.87,9.87,0,0,1-2.81,3.45,1.1,1.1,0,0,1-1.72-.11c-1.4-1.47-2.83-2.91-4.3-4.3-1.23-1.18-2.25-1.09-3.37.22-.92,1.09-1.83,2.19-2.7,3.33-.44.56-.75.51-1.14,0-.8-1.06-1.62-2.11-2.43-3.16-1.18-1.5-2.57-1.52-3.81,0-.9,1.07-1.78,2.15-2.63,3.26-.39.51-.67.53-1.06,0-.89-1.11-1.81-2.21-2.72-3.31-1.16-1.39-1.88-1.47-3.24-.27-1.6,1.41-3.16,2.85-4.72,4.29-1.15,1.06-1.3,1.06-2.18-.21A11.22,11.22,0,0,0,80,98a1.24,1.24,0,0,0-2.17.64,12.86,12.86,0,0,0-.36,1.85,2.93,2.93,0,0,1-1.34,2.12,1.88,1.88,0,0,1-2.07.16A1.76,1.76,0,0,1,73.3,101a3.42,3.42,0,0,1,1-2.13,7.72,7.72,0,0,1,2.54-1.72c.35-.17.86-.29.8-.76s-.63-.43-1-.45A10.09,10.09,0,0,0,71.71,97a58.82,58.82,0,0,0-6.47,4.1c-1.27.81-1.74.76-2.65-.46A18.65,18.65,0,0,1,61,97.46c-.82-1.69-1.88-2-3.43-.91a41.57,41.57,0,0,0-3.69,3.19c-.24.21-.43.63-.79.5s-.26-.57-.29-.89c-.29-4.11-.28-8.22-.26-12.34,0-.54,0-1-.66-1-1,0-2-.09-3-.08a.78.78,0,0,0-.88.84c-.19,4.61-.58,9.22-.35,13.84a11.66,11.66,0,0,0,.8,4.08A2.35,2.35,0,0,0,52,106a8.24,8.24,0,0,0,2.66-2.36c1.49-1.82,1.49-1.82,2.74.22,1.55,2.54,3.44,3.11,6.15,1.79a16.89,16.89,0,0,0,1.94-1.2c.49-.34,1-.73,1.43-1.08s.75-.32.89.33a3.25,3.25,0,0,0,2,2.3,6.5,6.5,0,0,0,7-1.1c1.22-.94,1.26-1,2.2.18,1.53,1.84,2.35,2,4.28.56,1.58-1.15,3.14-2.34,4.68-3.55.72-.57,1.22-.44,1.71.29a24.07,24.07,0,0,0,2.24,2.92c1.28,1.42,2.22,1.49,3.62.18,1-1,2-1.93,3-3,.61-.71,1-.64,1.57,0a36,36,0,0,0,2.84,3.34,1.26,1.26,0,0,0,1.62.24A4.74,4.74,0,0,0,106,105c.77-.88,1.56-1.73,2.29-2.63.43-.53.79-.5,1.21,0,.83.91,1.65,1.82,2.5,2.71,1.37,1.44,2.29,1.6,4.08.76a19.73,19.73,0,0,0,3.69-2.52,5.71,5.71,0,0,1,1.67-1.17c0,.53,0,1,0,1.39.2,4.14,0,8.3.36,12.44.25,2.6-.06,2.39,2.75,2.27,1.5-.07,1.67-.34,1.67-1.84,0-3.15-.34-6.32.18-9.45s1.81-5.83,4.75-7.43c.71-.39,1.56-.74,2.22-.08a2.65,2.65,0,0,1-.08,2.87,2.32,2.32,0,0,1-2.49,1.07c-.29-.06-.75-.19-.91.15s.28.62.53.84a6,6,0,0,0,2.62,1.36,11.89,11.89,0,0,0,9.59-1.76c.89-.57,1.73-1.22,2.59-1.83a1.56,1.56,0,0,1,.29,1.07,2.45,2.45,0,0,0,2.16,2.48,9.19,9.19,0,0,0,1.88.22,11.59,11.59,0,0,0,8.59-3.3c.47-.47.77-.59,1.09.18a5.08,5.08,0,0,0,2.35,2.49,8.13,8.13,0,0,0,6.64.64c3.32-1,4.76-3.47,4-6.85-.06-.31-.12-.57.21-.79a1.76,1.76,0,0,1,2.71.74c.73,1.74,1.49,3.47,2.37,5.14,1,1.91,1.87,2.09,3.57.73a19.45,19.45,0,0,0,3.69-3.89c.42-.58.69-.55,1.12,0,1.07,1.31,2.23,2.55,3.29,3.87a2.21,2.21,0,0,0,2.67.76A15.18,15.18,0,0,0,199,99.92c.28-.41.57-.91.15-1.37s-1-.3-1.46,0c-.73.45-1.42,1-2.14,1.45a2.69,2.69,0,0,1-3.63-.24,9.86,9.86,0,0,1-1.67-2c-.44-.62-.84-1.27-1.3-1.88a1.81,1.81,0,0,0-2.45-.65,6.29,6.29,0,0,0-2,1.3,24.35,24.35,0,0,0-2,1.85c-.64.71-.95.44-1.23-.28a19.12,19.12,0,0,0-.8-1.93c-.63-1.24-1-1.41-2.38-1.2-3.31.53-6.55,1.46-9.94,1.48-1.19,0-1.24.11-.75,1.18a4.32,4.32,0,0,1-.07,3.84,1.53,1.53,0,0,1-1.47,1,1.59,1.59,0,0,1-1.36-1c-1.29-2.42-.36-4.77,2.27-5.77.33-.12.85-.1.82-.56s-.57-.52-.93-.59a5.82,5.82,0,0,0-4.86,1.23,30.19,30.19,0,0,0-2.57,2.36,17.63,17.63,0,0,1-6.12,4.34c-1.15.41-1.77,0-1.64-1.13.16-1.52-.12-3,.07-4.56.14-1.06-.27-1.47-1.35-1.5s-2.06,0-3.09,0c-1.26,0-1.75.53-1.7,1.8a2.17,2.17,0,0,1-.41,1.59,9.44,9.44,0,0,1-5.62,3.68c-.42.08-.9.29-1.22-.09s.1-.73.24-1.08c1.11-2.65.22-4.57-2.55-5.36-3-.84-5.55.15-7.89,2C127.39,98.24,126.81,98.78,126.07,99.41Zm-81.3,1.92c-.31-.17-.54,0-.76.14a45.35,45.35,0,0,1-12.24,3.33c-1.31.19-1.38.11-1.38-1.17,0-5.24,0-10.49,0-15.74,0-1.46,0-1.48,1.52-1.32a38.47,38.47,0,0,1,10.3,2.54c.36.15.81.42,1.09,0s-.13-.68-.32-1a9.15,9.15,0,0,0-4.52-3.6,37.87,37.87,0,0,0-24.68-1.34A20.4,20.4,0,0,0,3.25,89.44c-3.14,3.65-3.48,8.1-.89,11.82a15.65,15.65,0,0,0,6.21,5.17c8.45,4.07,17.2,4.29,26.07,1.69a20.32,20.32,0,0,0,9.52-5.73C44.43,102.09,44.82,101.83,44.77,101.33ZM148.43,88.89a3.52,3.52,0,0,0-2.54.85A2,2,0,0,0,146,93a4.58,4.58,0,0,0,4.8-.07,2.06,2.06,0,0,0,0-3.38A3.69,3.69,0,0,0,148.43,88.89Z"></path>
  <path class="b" d="M126.07,99.41c.74-.63,1.32-1.17,2-1.65,2.34-1.8,4.91-2.79,7.89-2,2.77.79,3.66,2.71,2.55,5.36-.14.35-.56.71-.24,1.08s.8.17,1.22.09a9.44,9.44,0,0,0,5.62-3.68,2.17,2.17,0,0,0,.41-1.59c-.05-1.27.44-1.77,1.7-1.8,1,0,2.06,0,3.09,0s1.49.44,1.35,1.5c-.19,1.52.09,3-.07,4.56-.13,1.16.49,1.54,1.64,1.13a17.63,17.63,0,0,0,6.12-4.34,30.19,30.19,0,0,1,2.57-2.36,5.82,5.82,0,0,1,4.86-1.23c.36.07.91.09.93.59s-.49.44-.82.56c-2.63,1-3.56,3.35-2.27,5.77a1.59,1.59,0,0,0,1.36,1,1.53,1.53,0,0,0,1.47-1,4.32,4.32,0,0,0,.07-3.84c-.49-1.07-.44-1.17.75-1.18,3.39,0,6.63-.95,9.94-1.48,1.38-.21,1.75,0,2.38,1.2a19.12,19.12,0,0,1,.8,1.93c.28.72.59,1,1.23.28a24.35,24.35,0,0,1,2-1.85,6.29,6.29,0,0,1,2-1.3,1.81,1.81,0,0,1,2.45.65c.46.61.86,1.26,1.3,1.88a9.86,9.86,0,0,0,1.67,2,2.69,2.69,0,0,0,3.63.24c.72-.47,1.41-1,2.14-1.45.46-.29,1-.48,1.46,0s.13,1-.15,1.37a15.18,15.18,0,0,1-7.18,5.61,2.21,2.21,0,0,1-2.67-.76c-1.06-1.32-2.22-2.56-3.29-3.87-.43-.53-.7-.56-1.12,0a19.45,19.45,0,0,1-3.69,3.89c-1.7,1.36-2.57,1.18-3.57-.73-.88-1.67-1.64-3.4-2.37-5.14a1.76,1.76,0,0,0-2.71-.74c-.33.22-.27.48-.21.79.74,3.38-.7,5.85-4,6.85a8.13,8.13,0,0,1-6.64-.64,5.08,5.08,0,0,1-2.35-2.49c-.32-.77-.62-.65-1.09-.18a11.59,11.59,0,0,1-8.59,3.3,9.19,9.19,0,0,1-1.88-.22,2.45,2.45,0,0,1-2.16-2.48,1.56,1.56,0,0,0-.29-1.07c-.86.61-1.7,1.26-2.59,1.83a11.89,11.89,0,0,1-9.59,1.76,6,6,0,0,1-2.62-1.36c-.25-.22-.73-.43-.53-.84s.62-.21.91-.15a2.32,2.32,0,0,0,2.49-1.07,2.65,2.65,0,0,0,.08-2.87c-.66-.66-1.51-.31-2.22.08-2.94,1.6-4.23,4.3-4.75,7.43s-.18,6.3-.18,9.45c0,1.5-.17,1.77-1.67,1.84-2.81.12-2.5.33-2.75-2.27-.4-4.14-.16-8.3-.36-12.44,0-.43,0-.86,0-1.39a5.71,5.71,0,0,0-1.67,1.17,19.73,19.73,0,0,1-3.69,2.52c-1.79.84-2.71.68-4.08-.76-.85-.89-1.67-1.8-2.5-2.71-.42-.46-.78-.49-1.21,0-.73.9-1.52,1.75-2.29,2.63a4.74,4.74,0,0,1-1.45,1.19,1.26,1.26,0,0,1-1.62-.24,36,36,0,0,1-2.84-3.34c-.52-.67-1-.74-1.57,0-.92,1-1.93,2-3,3-1.4,1.31-2.34,1.24-3.62-.18a24.07,24.07,0,0,1-2.24-2.92c-.49-.73-1-.86-1.71-.29-1.54,1.21-3.1,2.4-4.68,3.55-1.93,1.41-2.75,1.28-4.28-.56-.94-1.15-1-1.12-2.2-.18a6.5,6.5,0,0,1-7,1.1,3.25,3.25,0,0,1-2-2.3c-.14-.65-.44-.67-.89-.33s-.94.74-1.43,1.08a16.89,16.89,0,0,1-1.94,1.2c-2.71,1.32-4.6.75-6.15-1.79-1.25-2-1.25-2-2.74-.22A8.24,8.24,0,0,1,52,106a2.35,2.35,0,0,1-3.56-1.32,11.66,11.66,0,0,1-.8-4.08c-.23-4.62.16-9.23.35-13.84a.78.78,0,0,1,.88-.84c1,0,2,0,3,.08.62,0,.66.44.66,1,0,4.12,0,8.23.26,12.34,0,.32-.06.75.29.89s.55-.29.79-.5a41.57,41.57,0,0,1,3.69-3.19c1.55-1.06,2.61-.78,3.43.91a18.65,18.65,0,0,0,1.64,3.17c.91,1.22,1.38,1.27,2.65.46A58.82,58.82,0,0,1,71.71,97a10.09,10.09,0,0,1,4.91-1.06c.36,0,.92-.05,1,.45s-.45.59-.8.76a7.72,7.72,0,0,0-2.54,1.72,3.42,3.42,0,0,0-1,2.13,1.76,1.76,0,0,0,.78,1.81,1.88,1.88,0,0,0,2.07-.16,2.93,2.93,0,0,0,1.34-2.12,12.86,12.86,0,0,1,.36-1.85A1.24,1.24,0,0,1,80,98a11.22,11.22,0,0,1,2.24,2.52c.88,1.27,1,1.27,2.18.21,1.56-1.44,3.12-2.88,4.72-4.29,1.36-1.2,2.08-1.12,3.24.27.91,1.1,1.83,2.2,2.72,3.31.39.5.67.48,1.06,0,.85-1.11,1.73-2.19,2.63-3.26,1.24-1.47,2.63-1.45,3.81,0,.81,1,1.63,2.1,2.43,3.16.39.53.7.58,1.14,0,.87-1.14,1.78-2.24,2.7-3.33,1.12-1.31,2.14-1.4,3.37-.22,1.47,1.39,2.9,2.83,4.3,4.3a1.1,1.1,0,0,0,1.72.11,9.87,9.87,0,0,0,2.81-3.45,3.09,3.09,0,0,1,3.5-2c1.21.15,1.51.37,1.46,1.61A10.32,10.32,0,0,0,126.07,99.41Z"></path>
  <path class="b" d="M44.77,101.33c0,.5-.34.76-.61,1.06a20.32,20.32,0,0,1-9.52,5.73c-8.87,2.6-17.62,2.38-26.07-1.69a15.65,15.65,0,0,1-6.21-5.17c-2.59-3.72-2.25-8.17.89-11.82a20.4,20.4,0,0,1,10.56-6.22,37.87,37.87,0,0,1,24.68,1.34A9.15,9.15,0,0,1,43,88.16c.19.31.54.68.32,1s-.73.11-1.09,0a38.47,38.47,0,0,0-10.3-2.54c-1.48-.16-1.52-.14-1.52,1.32,0,5.25,0,10.5,0,15.74,0,1.28.07,1.36,1.38,1.17A45.35,45.35,0,0,0,44,101.47C44.23,101.37,44.46,101.16,44.77,101.33ZM16.86,95.74h0c0-2.79,0-5.58,0-8.37,0-.82-.32-1.1-1.06-1A17.21,17.21,0,0,0,8.1,89.27c-3.89,2.85-4.8,7.41-2,10.93,2.54,3.21,6.13,4.35,10.08,4.62.71.05.68-.43.68-.92Z"></path>
  <path class="b" d="M148.43,88.89a3.69,3.69,0,0,1,2.37.7,2.06,2.06,0,0,1,0,3.38A4.58,4.58,0,0,1,146,93a2,2,0,0,1-.12-3.3A3.52,3.52,0,0,1,148.43,88.89Z"></path>
  <path class="b" d="M195.86,93a2,2,0,0,1-2.77,0,2,2,0,0,1,2.29-3.24,2,2,0,0,1,.66,3l-.12-.11a6.49,6.49,0,0,0,.23-.75,1.57,1.57,0,0,0-.72-1.71,1.38,1.38,0,0,0-1.88.09l0,0a1.41,1.41,0,0,0-.72,1.66,1.63,1.63,0,0,0,1.2,1.3,2.22,2.22,0,0,0,1.68-.36Z"></path>
  <path class="b" d="M196,92.76l-.18.23-.13-.13.19-.21Z"></path>
  <path class="c" d="M16.86,95.74v8.16c0,.49,0,1-.68.92-3.95-.27-7.54-1.41-10.08-4.62-2.8-3.52-1.89-8.08,2-10.93a17.21,17.21,0,0,1,7.74-2.89c.74-.11,1.08.17,1.06,1,0,2.79,0,5.58,0,8.37Z"></path>
  <path class="a" d="M195.92,92.65l-.19.21a2.22,2.22,0,0,1-1.68.36,1.63,1.63,0,0,1-1.2-1.3,1.41,1.41,0,0,1,.72-1.66c0,.69,0,1.39,0,2.08,0,.18,0,.33.27.32s.22-.1.25-.25-.12-.6.31-.6.48.29.51.62c0,.15.09.24.25.22s.17-.16.2-.28c.3-1.66.09-1.92-1.57-2a1.17,1.17,0,0,1-.26-.1,1.38,1.38,0,0,1,1.88-.09,1.57,1.57,0,0,1,.72,1.71A6.49,6.49,0,0,1,195.92,92.65Z"></path>
  <path class="b" d="M193.55,90.28a1.17,1.17,0,0,0,.26.1c1.66.07,1.87.33,1.57,2,0,.12,0,.27-.2.28s-.24-.07-.25-.22c0-.33-.14-.61-.51-.62s-.26.38-.31.6-.1.24-.25.25-.27-.14-.27-.32c0-.69,0-1.39,0-2.08Z"></path>
</svg>
