<?xml version="1.0" encoding="UTF-8"?>
<svg xmlns="http://www.w3.org/2000/svg" width="200" height="200" viewBox="0 0 200 200">
  <defs>
    <style>.a{fill:#003768;}.b{fill:#fff;}.c{fill:#cd152c;}.d{fill:#c31230;}.e{fill:#ffce01;}</style>
  </defs>
  <ellipse class="a" cx="177.64" cy="126.31" rx="5.32" ry="5.35"></ellipse>
  <path class="b" d="M198.51,83.49A7,7,0,0,0,192.19,80H171.65c-11-20.81-38.54-35.57-70.84-35.57S40.93,59.23,30,80H25.71A12.2,12.2,0,0,0,16,85.39L1.93,107.83A7,7,0,0,0,1.49,115a7,7,0,0,0,6.32,3.46h21.4c10.41,21.58,38.53,37.05,71.6,37.05s61.19-15.47,71.6-37h1.88a12.21,12.21,0,0,0,9.7-5.36l14.08-22.44a7,7,0,0,0,.44-7.19"></path>
  <path class="a" d="M198.51,83.49A7,7,0,0,0,192.19,80H171.65c-11-20.81-38.54-35.57-70.84-35.57S40.93,59.23,30,80H25.71A12.2,12.2,0,0,0,16,85.39L1.93,107.83A7,7,0,0,0,1.49,115a7,7,0,0,0,6.32,3.46h21.4c10.41,21.58,38.53,37.05,71.6,37.05s61.19-15.47,71.6-37h1.88a12.2,12.2,0,0,0,9.7-5.37l14.08-22.43a7,7,0,0,0,.44-7.19M196,89.36l-14.09,22.43a9.66,9.66,0,0,1-7.59,4.2h-3.47c-9.41,21.46-37.23,37.06-70,37.06-23.49,0-45.75-8.25-59.56-22.06a49.16,49.16,0,0,1-10.47-15h-23a4.51,4.51,0,0,1-4.14-2.17A4.54,4.54,0,0,1,4,109.15L18.12,86.72a9.68,9.68,0,0,1,7.59-4.2h5.77A49.88,49.88,0,0,1,41.25,69C55.06,55.2,77.32,47,100.81,47S146.56,55.2,160.37,69a50.1,50.1,0,0,1,9.77,13.51h22.05A4.25,4.25,0,0,1,196,89.36"></path>
  <path class="c" d="M125.91,133.57l5.32-1.94c1.1-.45,1.15-1.29.12-1.87a5.64,5.64,0,0,0-6.72,2.47c-.42,1.11.15,1.71,1.28,1.34"></path>
  <path class="c" d="M105.53,136.18l4.67-.28c1-.09,1.21-.75.53-1.45a4,4,0,0,0-3.1-.87,4,4,0,0,0-2.8,1.23c-.6.78-.28,1.4.7,1.37"></path>
  <path class="c" d="M115.73,135.61l5.08-.77c1.07-.2,1.26-.94.44-1.64a5.13,5.13,0,0,0-6.42,1c-.58.92-.18,1.56.9,1.43"></path>
  <path class="c" d="M136.69,129l5.23-3.38c1.07-.75.92-1.67-.33-2a5.21,5.21,0,0,0-4.16,1,5.27,5.27,0,0,0-2.44,3.25c-.19,1.3.58,1.8,1.7,1.13"></path>
  <path class="d" d="M155.65,116c-16.23,19.86-36.1,22.18-45.71,22.51s-21.21-2.65-32.14-5.3a66.42,66.42,0,0,0-10.49-1.58L70,122.41c8.64,1.49,18.15,3.94,33,4.16,21.67.32,32.92-10.08,33.45-10.58H33.52A47.29,47.29,0,0,0,43,129.24c13.35,13.35,35,21.32,57.8,21.32,31.28,0,57.88-14.51,67.29-34.57Zm-82.82,0H81v6.3L72.83,121Zm-8.89,15.3a91.55,91.55,0,0,0-9.67.1l3-10.27a56.71,56.71,0,0,1,9.45.62Z"></path>
  <path class="c" d="M115.73,62.88c-1.08-.13-1.48.51-.9,1.43a4.4,4.4,0,0,0,2.94,1.62,4.33,4.33,0,0,0,3.48-.64c.82-.71.63-1.45-.44-1.65Z"></path>
  <path class="c" d="M105.53,62.31c-1,0-1.3.58-.7,1.36a4,4,0,0,0,2.8,1.23,3.93,3.93,0,0,0,3.1-.86c.68-.71.44-1.36-.53-1.45Z"></path>
  <path class="c" d="M141.92,72.91l-5.23-3.38c-1.12-.68-1.89-.17-1.7,1.13a6.22,6.22,0,0,0,6.6,4.28c1.25-.37,1.4-1.28.33-2"></path>
  <path class="c" d="M125.91,64.92c-1.13-.38-1.7.23-1.28,1.34a5.65,5.65,0,0,0,6.72,2.46c1-.58,1-1.42-.12-1.87Z"></path>
  <path class="d" d="M72.83,77.72,81,76.39v6.13h55.5S125.18,71.59,103,71.92c-14.85.22-24.36,2.66-33,4.16l-2.67-9.22A66.38,66.38,0,0,0,77.8,65.29c10.93-2.65,22.53-5.63,32.14-5.3s29.49,2.65,45.73,22.53h11.69a48.18,48.18,0,0,0-8.75-11.76c-13.35-13.35-35-21.32-57.8-21.32s-44.45,8-57.8,21.32a48.49,48.49,0,0,0-8.76,11.76H72.83Zm-15.58-.5L54.27,67a91.55,91.55,0,0,0,9.67.1L66.7,76.6a56.71,56.71,0,0,1-9.45.62"></path>
  <path class="a" d="M192.19,85c2,0,2.72,1.36,1.67,3l-14.08,22.43a7.23,7.23,0,0,1-5.49,3H7.81c-2,0-2.72-1.36-1.67-3L20.23,88a7.2,7.2,0,0,1,5.48-3Z"></path>
  <path class="b" d="M29.61,104.19l6.52-10.82-4,0,2.4-4H48.59c4.21,0,6.64.76,8.12,2.55a7.5,7.5,0,0,1,.65,8.13c-1.48,2.46-2.93,5-6.21,6.71-3.63,1.92-9.33,1.45-13.68,1.45H23.19l2.4-4Zm8-.16H40.5a9.86,9.86,0,0,0,5.74-1.3,10,10,0,0,0,3.68-4A3.35,3.35,0,0,0,50,95a3.71,3.71,0,0,0-2.8-1.39H43.91Z"></path>
  <polygon class="b" points="67.97 104.26 70.5 104.26 68.11 108.24 57.03 108.24 59.43 104.26 61.94 104.26 65.83 97.8 63.33 97.84 65.72 93.86 74.29 93.86 67.97 104.26"></polygon>
  <polygon class="b" points="127.6 104.26 130.14 104.26 127.74 108.24 116.66 108.24 119.06 104.26 121.57 104.26 125.46 97.8 122.96 97.84 125.36 93.86 133.92 93.86 127.6 104.26"></polygon>
  <polygon class="b" points="108.39 97.09 116.2 93.37 121.08 93.4 118.73 97.24 116.22 97.25 109.62 100.39 112.19 103.76 115.82 103.8 113.42 107.78 106.93 107.78 103.28 102.32 100.48 107.78 91.43 107.78 93.83 103.8 96.32 103.8 102.91 92.89 100.38 92.93 102.78 88.95 111.38 88.95 105.71 98.36 108.39 97.09"></polygon>
  <path class="b" d="M160,103.87c-.14.31-.14.84.58,1.18a3.12,3.12,0,0,0,1.74.17,3.35,3.35,0,0,0,2.61-1.15c.35-.59.09-.77-1.52-1.09l-.29-.06c-2.75-.55-6.93-1.38-4.83-4.87,1.76-2.93,6.31-4.46,9.89-4.46a12.72,12.72,0,0,1,3.3.6l.17-.33h4.94l-2.86,4.75h-4.4a.89.89,0,0,0-.39-1.3,3.48,3.48,0,0,0-1.69-.26A2.89,2.89,0,0,0,165,98c-.34.55,0,.76,1.69,1.06,2.71.47,7.21,1.26,5,4.92-1.93,3.19-6.72,4.64-10.36,4.64a7.86,7.86,0,0,1-3.75-.82l-.29.48h-5l3-5h5.08Z"></path>
  <path class="b" d="M151.73,95c-1.15-1.6-3.86-1.91-6.21-1.91-5,0-9.75,3.64-11,7.87a5.44,5.44,0,0,0,1.14,5.39,7.88,7.88,0,0,0,5.84,2.19c7.21,0,8.62-5.09,8.62-5.09h-4.23l-.22.2a4.52,4.52,0,0,1-3.44,1.46c-3.21-.17-1.64-3.51-1.64-3.51h11.06l.62-1.55c.33-1.32.91-3-.58-5m-10.27,4.2s1.52-2.88,4.07-2.88c3.22,0,1.48,2.88,1.48,2.88Z"></path>
  <path class="b" d="M71,92.33c2.35,0,4.56-.85,4.92-1.91s-1.24-1.92-3.6-1.92-4.56.86-4.93,1.92,1.25,1.91,3.61,1.91"></path>
  <path class="b" d="M130.48,92.33c2.35,0,4.56-.85,4.92-1.91s-1.24-1.92-3.6-1.92-4.56.86-4.92,1.92,1.24,1.91,3.6,1.91"></path>
  <path class="b" d="M88.49,106.92l2-3.68h-3.4l-.5.75a4,4,0,0,1-3.06,1.4c-1.07,0-2.15.06-2.57-1.32a3.57,3.57,0,0,1,.27-2.6A7.17,7.17,0,0,1,86,97.62a2.14,2.14,0,0,1,2.52,1.49l.1.32H92l2.77-5.57H91.2s0,.89-.3.64a5.42,5.42,0,0,0-3.46-1c-4.64,0-10.27,1.25-12.59,7.46a5.33,5.33,0,0,0,.66,5.38A6.42,6.42,0,0,0,80.57,109c5.83.47,7.92-2,7.92-2"></path>
  <path class="e" d="M54.27,67l3,10.27a56.71,56.71,0,0,0,9.45-.62l-2.76-9.55a91.55,91.55,0,0,1-9.67-.1"></path>
  <polygon class="e" points="80.95 82.54 80.95 76.39 72.83 77.72 72.83 82.54 80.95 82.54"></polygon>
  <path class="e" d="M109.94,60c-9.61-.33-21.21,2.65-32.14,5.3a65.24,65.24,0,0,1-10.49,1.57L70,76.08c8.64-1.5,18.15-3.94,33-4.16,22.2-.33,33.47,10.6,33.47,10.6h19.22C139.43,62.64,119.55,60.32,109.94,60m.79,4.05a3.93,3.93,0,0,1-3.1.86,4,4,0,0,1-2.8-1.23c-.6-.78-.28-1.39.7-1.36l4.67.28c1,.09,1.21.74.53,1.45m10.52,1.25a4.33,4.33,0,0,1-3.48.64,4.4,4.4,0,0,1-2.94-1.62c-.58-.92-.18-1.56.9-1.43l5.08.76c1.07.2,1.26.94.44,1.65m10.1,3.43a5.65,5.65,0,0,1-6.72-2.46c-.42-1.11.15-1.72,1.28-1.34l5.32,1.93c1.1.45,1.15,1.29.12,1.87m10.24,6.22a6.22,6.22,0,0,1-6.6-4.28c-.19-1.3.58-1.81,1.7-1.13l5.23,3.38c1.07.75.92,1.66-.33,2"></path>
  <path class="e" d="M54.27,131.41l3-10.27a56.71,56.71,0,0,1,9.45.62l-2.76,9.55a91.55,91.55,0,0,0-9.67.1"></path>
  <polygon class="e" points="80.95 116.01 80.95 122.31 72.83 120.98 72.83 116.01 80.95 116.01"></polygon>
  <path class="e" d="M155.67,116H136.45S125.18,126.9,103,126.57c-14.85-.22-24.36-2.67-33-4.16l-2.67,9.21A66.42,66.42,0,0,1,77.8,133.2c10.93,2.65,22.53,5.63,32.14,5.3s29.49-2.65,45.73-22.54M110.19,135.9l-4.66.28c-1,0-1.3-.59-.7-1.37a4,4,0,0,1,2.8-1.23,4,4,0,0,1,3.1.87c.68.7.44,1.36-.54,1.45m10.62-1.06-5.08.77c-1.08.13-1.48-.51-.9-1.43a5.13,5.13,0,0,1,6.42-1c.82.7.63,1.44-.44,1.64m10.42-3.21-5.32,1.94c-1.13.37-1.7-.23-1.28-1.34a5.64,5.64,0,0,1,6.72-2.47c1,.58,1,1.42-.12,1.87m10.69-6L136.69,129c-1.12.67-1.89.17-1.7-1.13a5.27,5.27,0,0,1,2.44-3.25,5.21,5.21,0,0,1,4.16-1c1.25.36,1.4,1.28.33,2"></path>
  <path class="e" d="M57,77.29l.05.17h.19a57.58,57.58,0,0,0,9.48-.62l.29,0-.08-.28L64.17,67l0-.18h-.19a93.57,93.57,0,0,1-9.64-.11l-.36,0L54,67Zm6.93-10.24L66.7,76.6a56.71,56.71,0,0,1-9.45.62L54.27,67a91.55,91.55,0,0,0,9.67.1"></path>
  <path class="e" d="M66.73,121.52a56.57,56.57,0,0,0-9.48-.63h-.19l-.05.17-3,10.27-.1.35.36,0a92.1,92.1,0,0,1,9.64-.1h.19l0-.18,2.77-9.55.08-.27Zm-2.79,9.79a91.55,91.55,0,0,0-9.67.1l3-10.27a56.71,56.71,0,0,1,9.45.62Z"></path>
  <polygon class="e" points="81.19 76.39 81.19 76.1 80.91 76.15 72.79 77.47 72.58 77.5 72.58 77.72 72.58 82.54 72.83 82.54 72.83 77.72 80.95 76.39 80.95 82.54 81.19 82.54 81.19 76.39"></polygon>
  <path class="e" d="M127.45,68.65a4.77,4.77,0,0,0,3.9.07c1-.58,1-1.42-.12-1.87l-5.32-1.93c-1.13-.38-1.7.23-1.28,1.34a4.79,4.79,0,0,0,2.82,2.39m-2.58-3.45c.17-.18.52-.19,1,0l5.31,1.94c.43.17.69.41.7.66s-.21.53-.62.76a4.63,4.63,0,0,1-3.68-.09,4.68,4.68,0,0,1-2.68-2.25c-.16-.43-.16-.79,0-1"></path>
  <path class="e" d="M117.77,65.93a4.33,4.33,0,0,0,3.48-.64c.82-.71.63-1.45-.44-1.65l-5.08-.76c-1.08-.13-1.48.51-.9,1.43a4.4,4.4,0,0,0,2.94,1.62m-2.9-2.6c.11-.18.42-.25.82-.21l5.08.77c.4.08.67.24.73.45s-.09.49-.41.76a4.91,4.91,0,0,1-6-.93c-.23-.35-.29-.66-.17-.84"></path>
  <path class="e" d="M137.43,73.91a5.26,5.26,0,0,0,4.16,1c1.25-.37,1.4-1.28.33-2l-5.23-3.38c-1.12-.68-1.89-.17-1.7,1.13a5.27,5.27,0,0,0,2.44,3.25m-1.94-4.35a1.07,1.07,0,0,1,1.07.18l5.22,3.38c.43.29.65.62.6.91s-.36.52-.86.67a5,5,0,0,1-4-1,5.2,5.2,0,0,1-2.34-3.09c-.07-.52,0-.9.26-1.06"></path>
  <path class="e" d="M107.63,64.9a3.93,3.93,0,0,0,3.1-.86c.68-.71.44-1.36-.53-1.45l-4.67-.28c-1,0-1.3.58-.7,1.36a4,4,0,0,0,2.8,1.23m-2.82-2.1c.08-.16.35-.26.7-.25l4.67.28c.35,0,.61.16.67.34s0,.43-.3.69a3.66,3.66,0,0,1-2.9.79A3.81,3.81,0,0,1,105,63.52c-.21-.29-.3-.56-.21-.72"></path>
  <path class="e" d="M69.74,76.15l.06.21.22,0c1.68-.29,3.38-.61,5.17-.95a146.75,146.75,0,0,1,27.8-3.2c20.38-.31,31.63,9,33.12,10.37H156l-.15-.18C144.13,68,128.68,60.38,110,59.74c-9.1-.31-19.9,2.31-30.34,4.85l-1.87.46a66.54,66.54,0,0,1-10.45,1.56l-.31,0,.09.29ZM77.8,65.29c10.93-2.65,22.53-5.63,32.14-5.3s29.49,2.65,45.73,22.53H136.45S125.18,71.59,103,71.92c-14.85.22-24.36,2.66-33,4.16l-2.67-9.22A66.38,66.38,0,0,0,77.8,65.29"></path>
  <path class="e" d="M72.58,116v5.18l.21,0,8.12,1.32.29,0V116H72.58Zm.25,0H81v6.3L72.83,121Z"></path>
  <path class="e" d="M109.94,138.5c-9.61.33-21.21-2.65-32.14-5.3a66.42,66.42,0,0,0-10.49-1.58L70,122.41c8.64,1.49,18.15,3.94,33,4.16,22.13.33,33.39-10.52,33.47-10.6h-.37c-1.59,1.4-12.81,10.65-33.09,10.35a147.57,147.57,0,0,1-27.8-3.2c-1.79-.34-3.49-.67-5.17-1l-.22,0-.06.22-2.67,9.21-.09.3.31,0a65.33,65.33,0,0,1,10.45,1.57l1.87.45c10.44,2.54,21.24,5.17,30.34,4.86,18.73-.65,34.18-8.26,45.91-22.63L156,116h-.32c-16.24,19.88-36.12,22.2-45.73,22.53"></path>
  <path class="e" d="M125.91,133.57l5.32-1.94c1.1-.45,1.15-1.29.12-1.87a5.64,5.64,0,0,0-6.72,2.47c-.42,1.11.15,1.71,1.28,1.34m-1-1.26a4.64,4.64,0,0,1,2.68-2.24,4.59,4.59,0,0,1,3.68-.09c.41.23.64.5.62.75s-.27.49-.7.67l-5.3,1.93c-.45.15-.8.13-1-.05s-.17-.53,0-1"></path>
  <path class="e" d="M115.73,135.61l5.08-.77c1.07-.2,1.26-.94.44-1.64a5.13,5.13,0,0,0-6.42,1c-.58.92-.18,1.56.9,1.43m-.7-1.3a4.24,4.24,0,0,1,2.79-1.5,4.1,4.1,0,0,1,3.27.58h0c.32.27.47.55.41.75s-.33.38-.73.46l-5.07.76c-.41,0-.72,0-.83-.21s-.06-.49.16-.84"></path>
  <path class="e" d="M105.53,136.18l4.67-.28c1-.09,1.21-.75.53-1.45a4,4,0,0,0-3.1-.87,4,4,0,0,0-2.8,1.23c-.6.78-.28,1.4.7,1.37M105,135a3.92,3.92,0,0,1,2.63-1.13,3.7,3.7,0,0,1,2.9.79h0c.25.26.37.52.3.7s-.32.3-.67.33l-4.66.28c-.36,0-.63-.08-.71-.24s0-.44.21-.73"></path>
  <path class="e" d="M136.69,129l5.23-3.37c1.07-.75.92-1.67-.33-2a5.21,5.21,0,0,0-4.16,1,5.27,5.27,0,0,0-2.44,3.25c-.19,1.3.58,1.8,1.7,1.12m-1.46-1.08a5.17,5.17,0,0,1,2.34-3.09,5,5,0,0,1,4-1c.5.14.81.39.86.67s-.17.62-.6.91l-5.21,3.37c-.45.27-.85.34-1.08.19s-.33-.55-.26-1.06"></path>
  <polyline class="e" points="155.67 115.97 136.45 115.97 136.45 115.97 155.67 115.97 155.67 115.97"></polyline>
  <path class="b" d="M174.19,126.32a3.43,3.43,0,1,1,3.44,3.39,3.38,3.38,0,0,1-3.44-3.39m3.44,2.83a2.82,2.82,0,1,0-2.76-2.83,2.73,2.73,0,0,0,2.76,2.83m-.72-.87h-.59v-3.9h1.49c.92,0,1.38.34,1.38,1.11a1,1,0,0,1-1,1.07l1.11,1.72h-.66l-1-1.69h-.68Zm.71-2.19c.5,0,.95,0,.95-.64s-.44-.57-.85-.57h-.81v1.21Z"></path>
</svg>
