<?xml version="1.0" encoding="UTF-8"?>
<svg xmlns="http://www.w3.org/2000/svg" xmlns:xlink="http://www.w3.org/1999/xlink" width="200" height="200" viewBox="0 0 200 200">
  <defs>
    <style>.a{fill:none;}.b{clip-path:url(#a);}.c{fill:#fff;}.d{fill:#0c4f94;}.e{fill:#0f5095;}.f{fill:#536ca7;}.g{fill:#8691be;}.h{fill:#546ca7;}.i{fill:#556da8;}.j{fill:#8792be;}.k{fill:#586fa9;}.l{fill:#818cbb;}.m{fill:#fefefe;}.n{fill:#edeef5;}</style>
    <clipPath id="a">
      <rect class="a" x="1.41" y="80.87" width="197.17" height="38.26"></rect>
    </clipPath>
  </defs>
  <g class="b">
    <path class="c" d="M195.55,80.88c.89,0,1.79,0,2.68,0,.29,0,.4.06.34.35a1.82,1.82,0,0,0,0,.33q0,18.45,0,36.9c0,.57-.11.68-.68.68q-97.91,0-195.8,0c-.57,0-.69-.11-.69-.68,0-4.9,0-9.8,0-14.69.53.16.45.65.5,1a23.78,23.78,0,0,0,.83,3.74,14.13,14.13,0,0,0,13.08,10c6.08.36,12.17.07,18.26.17.67,0,.95-.22.95-.91q0-10,0-20c0-.68-.26-.94-.94-.94q-8.3,0-16.59,0c-.69,0-.94.27-.93,1,0,1.36,0,2.72,0,4.08,0,1.09.06,1.15,1.13,1.15,2.85,0,5.7,0,8.54,0l.93,0c.6,0,.94.28.95.9q0,3.84,0,7.68a.82.82,0,0,1-.95.91c-3.37-.05-6.75.17-10.13-.2s-5.57-2.31-7-5.3A14,14,0,0,1,9,102.08a22.12,22.12,0,0,1,.45-7.3c1.31-5,4.42-7.43,9.7-7.46,4.92,0,9.83,0,14.75,0A2,2,0,0,0,35,87.15c.3-.26.21-.61.21-.93,0-1.44,0-2.88,0-4.31a1.39,1.39,0,0,1,.23-1h4.86a2.16,2.16,0,0,1,.27,1.53v34.47c0,2-.1,1.79,1.83,1.8,1.42,0,2.85,0,4.27,0,.64,0,.94-.24.9-.88,0-.31,0-.61,0-.92q0-17.23,0-34.47a2.16,2.16,0,0,1,.27-1.53h3.35a1.4,1.4,0,0,1,.16.26,4.54,4.54,0,0,1,.09,1.33q0,11,0,22a25.94,25.94,0,0,0,.5,5c.84,4.3,3.54,6.94,7.56,8.37a15.81,15.81,0,0,0,5.19.84c3.55.06,7.1,0,10.64,0,1,0,1.08-.06,1.09-1.1v-4c0-1-.07-1.07-1.11-1.07-2.88,0-5.76,0-8.63,0a11.77,11.77,0,0,1-4.87-1.09,5.21,5.21,0,0,1-3-3.79,14.85,14.85,0,0,1-.35-4.15c0-7.11,0-14.21,0-21.32a1.8,1.8,0,0,1,.23-1.28H79.38a2.1,2.1,0,0,1,.24,1.45q0,17.31,0,34.63c0,1.74,0,1.74,1.72,1.74,5.11,0,10.23,0,15.34,0a27,27,0,0,0,6.4-.63,12.83,12.83,0,0,0,9.25-8.2,28.89,28.89,0,0,0,1.54-13,19.11,19.11,0,0,0-1.64-6.94c-2.3-4.75-5.87-7.85-11.29-8.48l-1.16-.17c-.26,0-.59,0-.63-.4h31.18c0,.32-.24.35-.43.42a5.43,5.43,0,0,0-3.09,3.12c-4.74,11.14-9.54,22.25-14.27,33.39-.35.83-.31.91.59.91,1.78,0,3.57,0,5.36,0a1.33,1.33,0,0,0,1.45-.95c.83-2.13,1.74-4.22,2.63-6.32.14-.34.3-.66.45-1a2.12,2.12,0,0,1,2.13-1.29c4.89,0,9.78,0,14.67,0,1.1,0,1.17.05,1.59,1.09.86,2.15,1.77,4.27,2.62,6.42.65,1.62,1.24,2,3,2q2,0,4,0c1.13,0,1.15,0,.74-1-1.25-3.13-2.55-6.23-3.83-9.35q-3.54-8.65-7.1-17.3c-1.23-3-2.44-6-3.69-9a1.9,1.9,0,0,1-.24-1,.56.56,0,0,1,.13-.24h17.77a1.94,1.94,0,0,1,.23,1.37q0,17.52,0,35.05c0,.4-.12.84.18,1.2a1.17,1.17,0,0,0,.87.2h4.61c1,0,1.05-.08,1.06-1v-11.1c0-4.25,0-8.51,0-12.76,0-.42-.18-1,.33-1.18s.64.45.87.78q5.4,7.69,10.8,15.38c1.74,2.49,3.48,5,5.2,7.47a5.23,5.23,0,0,0,4.91,2.47c1.08-.07,2.17,0,3.26,0h.59a.59.59,0,0,0,.67-.66c0-.31,0-.62,0-.92q0-17.4,0-34.79c0-.49-.12-1,.24-1.45h5.53c-.05.47-.5.47-.79.62a3.39,3.39,0,0,0-1.36,4.78,3.33,3.33,0,0,0,4.65,1.12,3.49,3.49,0,0,0-.43-6c-.28-.14-.69-.1-.73-.55Z"></path>
    <path class="d" d="M188.68,80.88c0,.87,0,1.73,0,2.59q0,17.27,0,34.54c0,.76-.18,1-1,.95-1.83-.11-3.68.12-5.51-.14a4.06,4.06,0,0,1-2.62-1.48c-1.59-1.91-2.89-4-4.31-6-4.39-6.2-8.73-12.43-13.13-18.7a1.48,1.48,0,0,0-.11.89q0,12.3,0,24.61c0,.67-.12.9-.85.88-2.06-.07-4.13,0-6.19-.06-.18-.26-.09-.54-.09-.81q0-18.13,0-36.26c0-.68.15-.92.86-.89,1.26.06,2.51,0,3.77,0h1.06a3.77,3.77,0,0,1,3,1.23A42,42,0,0,1,168.88,89c4,5.7,7.94,11.43,11.93,17.14a2.59,2.59,0,0,1,.43.75q0-12.39,0-24.71c0-.44-.11-.9.22-1.29Z"></path>
    <path class="d" d="M35.28,87.52c-3.77,0-7.54,0-11.31,0-2.12,0-4.25-.1-6.36.09a8.05,8.05,0,0,0-7.44,5.66,19.52,19.52,0,0,0-.11,12.85c1.37,4.13,4.44,6,8.72,6.07,2.88,0,5.76,0,8.63.07.48,0,.54-.19.54-.59,0-2.59,0-5.18,0-7.77,0-.57-.2-.68-.72-.68-3.38,0-6.76,0-10.14,0-.61,0-.81-.13-.79-.77,0-1.76,0-3.51,0-5.26,0-.46.12-.63.61-.63q8.88,0,17.77,0c.53,0,.64.18.64.67q0,10.51,0,21c0,.46-.11.61-.6.61-6.17-.1-12.34.14-18.51-.16-8.74-.43-13.49-6.33-14.47-13.55a3.08,3.08,0,0,0-.32-1.49V96.58a27,27,0,0,1,.82-4.89,14.2,14.2,0,0,1,12-10.57c.92-.16,1.87-.07,2.8-.24h.34A4.29,4.29,0,0,0,18.7,81H34.33c1.2,0,1-.12,1,1.08,0,1.56,0,3.11,0,4.66a1.33,1.33,0,0,1-.09.81Z"></path>
    <path class="d" d="M99.16,80.88a9.89,9.89,0,0,0,2.41.41c6.34,1.08,10.07,5.09,11.73,11a28.35,28.35,0,0,1-.53,17.07c-1.84,5.46-5.78,8.54-11.52,9.31a44.83,44.83,0,0,1-5.68.28c-5,0-10.1,0-15.16,0-.75,0-1-.17-1-1q0-18.06,0-36.12a2.37,2.37,0,0,0-.07-1H97.15a1.68,1.68,0,0,0,1.17,0Z"></path>
    <path class="d" d="M137,81.08c5.16,12.58,10.33,25.16,15.54,37.87h-2c-1.29,0-2.57,0-3.86,0a2.55,2.55,0,0,1-2.64-1.64c-.46-1.07-.9-2.16-1.34-3.23-.55-1.37-1.12-2.72-1.65-4.1a.76.76,0,0,0-.83-.6q-7.67,0-15.33,0a1.7,1.7,0,0,0-1.62,1.1c-1.06,2.15-1.89,4.39-2.83,6.58-.82,1.89-.8,1.9-2.88,1.9h-4.78c-1,0-1,0-.62-.87q4.66-10.92,9.34-21.83,2.5-5.85,5-11.72a5.93,5.93,0,0,1,3.82-3.65h.84a22.06,22.06,0,0,0,3,.09,14.35,14.35,0,0,1,2.78.11Z"></path>
  </g>
  <path class="d" d="M47.87,80.88c0,.34,0,.67,0,1q0,18.11,0,36.2c0,.67-.12.91-.85.89q-2.8-.09-5.61,0c-.78,0-1-.15-1-1q0-18.06,0-36.12a2.22,2.22,0,0,0-.08-1Z"></path>
  <g class="b">
    <path class="c" d="M181.47,80.88v26.38c-.3,0-.32-.22-.42-.36q-7.41-10.65-14.81-21.32a26.77,26.77,0,0,0-3.3-3.75,3.35,3.35,0,0,0-2.23-.81c-.07,0-.1,0-.08-.08s0-.06.05-.06Z"></path>
    <path class="c" d="M17,80.88a11.19,11.19,0,0,1-2.58.4C6.84,82.59,3.18,87.4,1.92,94a10.73,10.73,0,0,1-.49,2.56c0-5,0-10.1,0-15.16,0-.46.09-.55.55-.55,5,0,10,0,15.05,0Z"></path>
  </g>
  <path class="e" d="M195.55,80.88c.16.3.48.21.72.31a3.55,3.55,0,0,1,2.13,3.94A3.44,3.44,0,0,1,195.77,88a3.51,3.51,0,0,1-3.93-1.67,3.66,3.66,0,0,1,2-5.27c.15-.06.36,0,.41-.22Z"></path>
  <path class="f" d="M159.7,81c-1.23,0-2.46.07-3.69,0-.79,0-1,.16-1,1,0,4.92,0,9.84,0,14.76v22.12c-.29-.28-.14-.63-.14-.94q0-18,0-36.09c0-.33,0-.66,0-1h4.86s.06.05,0,.09,0,0,0,0Z"></path>
  <path class="g" d="M51.27,81.08l-.05-.2h7.54v22.06c0,.22,0,.44,0,.66-.55-.28-.39-.81-.39-1.24,0-3.9,0-7.79,0-11.68,0-2.69,0-5.39,0-8.08,0-1.24,0-1.28-1.25-1.28H52.39a1.58,1.58,0,0,1-1.12-.23Z"></path>
  <path class="h" d="M35.28,87.52c0-1.75,0-3.5,0-5.25,0-1.37.17-1.21-1.18-1.22H18.52c-.05,0-.06-.08,0-.11s0-.05.05-.05H35.46c0,2,0,3.92,0,5.88,0,.25.14.55-.14.76Z"></path>
  <path class="i" d="M134.21,81a10.61,10.61,0,0,1-3-.16h3c.05,0,.07.07.05.1s0,.06,0,.06Z"></path>
  <path class="j" d="M134.21,81a.29.29,0,0,1,0-.16h2.85l-.05.2-2.79,0Z"></path>
  <path class="j" d="M18.53,80.88a.86.86,0,0,1,0,.16c-.39-.06-.82.19-1.16-.16Z"></path>
  <path class="k" d="M98.32,80.88a1,1,0,0,1-1.17,0Z"></path>
  <g class="b">
    <path class="l" d="M159.7,81a.68.68,0,0,1,0-.14h1l0,.14Z"></path>
    <path class="d" d="M51.27,81.08c2.25,0,4.51,0,6.77,0,.73,0,.55.47.55.84,0,6.92,0,13.84,0,20.76,0,.32-.1.67.13,1a20.2,20.2,0,0,0,.32,3.73,5.24,5.24,0,0,0,3.76,4.27,15.62,15.62,0,0,0,4.94.74c2.73,0,5.47,0,8.2,0,.64,0,.81.16.79.79,0,1.75,0,3.5,0,5.25,0,.41-.07.6-.54.59-4.43-.1-8.87.21-13.3-.19S55,116.59,52.81,112.7a13.83,13.83,0,0,1-1.49-6.85c-.07-8.26,0-16.51,0-24.77Z"></path>
  </g>
  <path class="c" d="M86.85,99.9c0-4.09,0-8.18,0-12.27,0-.54.07-.79.7-.78,3.1,0,6.2,0,9.3.06,2.29.07,4.51.46,6.27,2.13a8.88,8.88,0,0,1,2.24,3.85,24.37,24.37,0,0,1,.45,13.41c-1,4.25-3.89,6.46-8.41,6.61-3.32.11-6.65,0-10,.07-.62,0-.58-.33-.58-.73q0-6.18,0-12.35Z"></path>
  <path class="c" d="M132.38,88.45c2,5.07,4,10,6,15H126.14l6.24-15Z"></path>
  <path class="m" d="M192.17,84.57a2.74,2.74,0,1,1,5.47-.11,2.8,2.8,0,0,1-2.69,3,2.75,2.75,0,0,1-2.78-2.9Z"></path>
  <path class="e" d="M196.57,86.48a.71.71,0,0,1-1-.4,1,1,0,0,0-.17-.28c-.3-.32-.31-1.06-.93-.87-.47.14-.13.71-.22,1.08-.05.21.13.52-.29.55s-.38-.29-.38-.55c0-1,0-1.94,0-2.91,0-.39.1-.56.52-.53s1,0,1.58.07a1.11,1.11,0,0,1,.37,2c-.46.18-.34.37-.14.66s.47.74.71,1.13Z"></path>
  <path class="n" d="M194.78,83.22c.55,0,1.08,0,1,.55s-.61.51-1,.55-.58-.09-.59-.54.27-.64.59-.56Z"></path>
</svg>
