<?xml version="1.0" encoding="UTF-8"?>
<svg xmlns="http://www.w3.org/2000/svg" width="200" height="200" viewBox="0 0 200 200">
  <defs>
    <style>.a{fill:#dd2c27;}.a,.b{fill-rule:evenodd;}.b{fill:#fff;}</style>
  </defs>
  <path class="a" d="M199.32,132.42c-10.16-13.78-20.8-27.74-20.8-60.25,0-26.59-14.19-47-19.5-54.71-1.36-2-2.44-1.36-3.54-.67-15.76,9.9-42.41,23-72,26.22C52.57,46.4,36.1,47.52,1.73,71c-.57.39-2.3,1.43-.73,3.66,5.94,8.46,19.53,27.36,19.53,52.54,0,33.45,10,48.34,20.75,62.26a2.34,2.34,0,0,0,3.34.33C80.08,167,95.94,164.89,127,161.22c29.58-3.49,58.18-15.12,71.89-26a2.2,2.2,0,0,0,.43-2.81Z"></path>
  <path class="a" d="M175.56,14.7a5,5,0,0,1-5,5A4.85,4.85,0,0,1,167,18.25a4.79,4.79,0,0,1-1.48-3.55A4.85,4.85,0,0,1,167,11.12a5,5,0,0,1,7.1,0,4.85,4.85,0,0,1,1.48,3.58Zm-1.19,0a3.89,3.89,0,0,0-1.13-2.78,3.69,3.69,0,0,0-5.43,0,4,4,0,0,0,0,5.55,3.69,3.69,0,0,0,5.43,0,3.89,3.89,0,0,0,1.13-2.77Zm-3.21,2.61v-1a2.12,2.12,0,0,0-.21-1,.66.66,0,0,0-.58-.41H170v2.35h-1.29V12h2.09a2,2,0,0,1,1.27.32,1,1,0,0,1,.42.84v.45a1.05,1.05,0,0,1-.84,1.09,1.63,1.63,0,0,1,.76.8,2.62,2.62,0,0,1,.21,1v.88Zm.14-3.7v-.2a.64.64,0,0,0-.15-.43.48.48,0,0,0-.37-.17H170v1.43h.78a.47.47,0,0,0,.39-.15.71.71,0,0,0,.13-.48Z"></path>
  <path class="b" d="M65.46,115c-2.76-.39-2.85-1.11-2.85-7V88c0-5.84.09-6.67,2.85-7l1.66-.12A1.24,1.24,0,0,0,67,79.51c-2.15.12-5.08.17-6.94.17s-4.23-.05-6.42-.17a1.24,1.24,0,0,0-.1,1.39l1.57.12c2.81.33,2.9,1.16,2.9,7v6.39c0,1.72-.09,1.77-2.38,1.77h-13c-2.28,0-2.38-.05-2.38-1.77V88c0-5.84.1-6.67,2.86-7l1.56-.12a1.24,1.24,0,0,0-.09-1.39c-2,.12-4.33.17-6.18.17-2,0-4.33-.11-6.67-.17a1.26,1.26,0,0,0-.09,1.39L33,81c2.48.22,2.81,1.16,2.81,7v20c0,5.84-.1,6.39-2.76,7l-1.47.17a1.2,1.2,0,0,0,.09,1.38c1.86,0,4.8-.16,6.85-.16,1.85,0,3.47,0,6,.16a1.22,1.22,0,0,0,.1-1.38L43.23,115c-2.67-.33-2.91-1.11-2.91-7V99.87c0-1.67.1-1.78,2.38-1.78h13c2.29,0,2.38.11,2.38,1.78V108c-.09,5.84,0,6.5-2.9,7l-1.57.17a1.2,1.2,0,0,0,.1,1.38c2.09-.11,4.47-.16,6.42-.16s4.79,0,7.08.16a1.22,1.22,0,0,0,.1-1.38L65.46,115Z"></path>
  <path class="b" d="M123,114.64c-2.41-.34-2.54-1-2.54-5.85V97.21c0-4.51-2.27-8.34-7.83-8.34-3.41,0-6.56,1.68-9.37,3.43a.71.71,0,0,1-.74-.74,14.07,14.07,0,0,1,.14-1.84.78.78,0,0,0-.74-.47c-1.34,1-6.47,1.92-8,2.46a.92.92,0,0,0-.06,1.21l.6.4c1.81,1.22,3.12,1.07,3.12,3.69v11.78c0,4.84-.06,5.51-2.54,5.85l-1,.15a.33.33,0,0,0-.14,0c-.2,0-1.91.21-2.59.21-2.66,0-3.28-3.41-3.14-6.51l.41-11.71c.2-5-2.18-7.87-7.1-7.87S68.7,91.81,68.7,97.15a2.27,2.27,0,0,0,.06.4l5.37-1.63a13.31,13.31,0,0,0,.1-1.4c.13-2.08,2.45-3.69,4.36-3.69,4.23,0,5,4,5,6.52l-.07,2.06c-.07,1-.14,1.62-1.16,2l-8.12,2.9c-4.37,1.54-5.67,4.12-5.67,6.75a6.25,6.25,0,0,0,2.12,4.71,7.13,7.13,0,0,0,4.78,1.54,10.15,10.15,0,0,0,4.91-1.68A10.33,10.33,0,0,1,83,114.24c.41,0,.82.53,1.09.94a5.48,5.48,0,0,0,4.44,2.08,11.51,11.51,0,0,0,4.89-1,.58.58,0,0,0,.28.28c1.87-.13,3.88-.19,6.29-.19s4.28.06,6.09.19a1.17,1.17,0,0,0,.13-1.68l-1.2-.2c-2.41-.4-2.55-1-2.55-5.85V98.49c0-1.95.14-2.89,1-4a7.27,7.27,0,0,1,5.69-2.35c4.55,0,6.29,2.82,6.29,6.66v10c0,4.84-.07,5.45-2.54,5.85l-1.28.2a1.18,1.18,0,0,0,.14,1.68c1.8-.13,3.81-.19,6.22-.19s4.29.06,6.29.19a1.18,1.18,0,0,0,.14-1.68l-1.48-.2Zm-39.8-5.25c0,1.42-.07,2.36-.89,3.17a7.79,7.79,0,0,1-4.16,1.68,4.09,4.09,0,0,1-4.3-4c0-2.63,2-5,6-6.3a13.23,13.23,0,0,1,2.8-.67c.41,0,.68.13.68.87l-.13,5.29Z"></path>
  <path class="b" d="M140,114.66c-8.11,0-10.83-5.73-10.59-12.34H148V100.5c0-5.74-3.8-11.63-9.62-11.63-7.48,0-13.63,5.54-13.63,15.21a14.28,14.28,0,0,0,2.85,8.75,12.2,12.2,0,0,0,9.83,4.43c1.06,0,7.5-.35,11-3.11l-.21-1.72a15.12,15.12,0,0,1-8.24,2.23Zm-10.62-13.75c0-.17,0-.32,0-.46a15.8,15.8,0,0,1,1-4.86,8.46,8.46,0,0,1,7.24-4.7c3.93,0,5.68,3.32,5.29,7.54-.09.87-.15,1.71-.6,2s-1.91.57-6.93.57h-6s0-.08,0-.12Z"></path>
  <path class="b" d="M162,100.51c-2.51-1.35-6.19-3.19-6.19-5.94A4.53,4.53,0,0,1,160.45,90c4.94,0,4.63,2.77,5.85,5.73a1.31,1.31,0,0,0,1.73-.2L168,90.08c-.65-.54-3.3-1.21-6.32-1.21-7.54,0-9.75,2.76-9.75,7.67,0,3.7,2.94,6.06,7.1,8.28,2.65,1.41,6.86,3.37,6.86,6.46,0,2.9-3.46,4.89-6,4.89-4.09,0-6.49-4.08-7.7-7.79a1.29,1.29,0,0,0-1.65.07l.86,6.8c1.79,1.34,4.3,2,7.67,2,5.31,0,10.77-2.24,10.77-7.36,0-5.55-3.95-7.37-7.76-9.39Z"></path>
</svg>
