<?xml version="1.0" encoding="UTF-8"?>
<svg xmlns="http://www.w3.org/2000/svg" xmlns:xlink="http://www.w3.org/1999/xlink" width="200" height="200" viewBox="0 0 200 200">
  <defs>
    <style>.a{fill:none;}.b{fill:#231f20;}.c{clip-path:url(#a);}</style>
    <clipPath id="a">
      <rect class="a" x="0.84" y="48.19" width="198.32" height="103.61"></rect>
    </clipPath>
  </defs>
  <path class="b" d="M34.08,116.27a1.94,1.94,0,1,1,2-1.93,1.9,1.9,0,0,1-2,1.93Zm0-4.65a2.71,2.71,0,1,0,2.81,2.72,2.68,2.68,0,0,0-2.81-2.72Z"></path>
  <polygon class="b" points="61.44 102.13 47.75 102.13 49.31 78.34 40.42 102.13 27.71 102.13 47.88 48.36 61.4 48.36 59.84 72.47 68.9 48.36 81.61 48.36 61.44 102.13 61.44 102.13"></polygon>
  <g class="c">
    <polygon class="b" points="63.09 102.13 83.26 48.36 95.97 48.36 75.8 102.13 63.09 102.13 63.09 102.13"></polygon>
    <path class="b" d="M26.24,83.6C8.48,104.45-8.27,132.21,6.53,145c14.34,12.39,32.26,5,44.48.16S198.33,81.6,198.33,81.6c1.3-.65,1.06-1.47-.57-1.06L50.69,120.38c-18.58,5.22-39.76-6.15-24.45-36.78Z"></path>
  </g>
  <path class="b" d="M34.09,114.05h-.42v-.67H34c.22,0,.47,0,.47.31s-.15.36-.4.36Zm.47.48a.68.68,0,0,0,.7-.77c0-.71-.46-.88-1.23-.88h-1.1v2.91h.74v-1.24h.12l.67,1.24h.85l-.75-1.26Z"></path>
  <path class="b" d="M161.85,52.84a1.94,1.94,0,1,1,0-3.87,1.94,1.94,0,1,1,0,3.87Zm0-4.65a2.71,2.71,0,1,0,2.82,2.72,2.69,2.69,0,0,0-2.82-2.72Z"></path>
  <path class="b" d="M161.86,50.62h-.42V50h.36c.21,0,.46,0,.46.31s-.14.36-.4.36Zm.47.48a.68.68,0,0,0,.71-.77c0-.71-.46-.88-1.23-.88H160.7v2.91h.74V51.12h.13l.67,1.24h.84l-.75-1.26Z"></path>
  <path class="b" d="M112.51,98.55l-.81-28,19.21-21.1-18.4,49.13Zm41-41.23,3.42-9H118.11L104.79,64.49l6.15-16.13H98.07l-20,53.77H90.77l8.54-22.49.59,22.49,39-.08,3.71-10.35H127.78l4.88-13h12.22l3.76-10H136.42l4.19-11.32Z"></path>
</svg>
