<svg xmlns="http://www.w3.org/2000/svg" width="993.22" height="864.21" viewBox="0 0 993.22 864.21"><defs><style>.a{fill:#febe40;}</style></defs><path class="a" d="M657.83,360.08c-2,1-3.89,2.43-6,2.8Q583.42,375,515,387a42.1,42.1,0,0,1-4.44.37c-2.87-2.55-5.91-4.33-7.59-7-2.06-3.23-3-7.19-5.44-10.5q2.79,9.4,5.59,18.82L501.46,390l-6.54-6.25c2,5.9-1.31,6.92-5.31,7.61-7.32,1.27-14.57,3.21-21.94,3.8-9.86.78-19.16,4.21-28.95,5.19-5.51.54-11,1.81-17.19,2.88-4.34-17.09-4.59-35.65-16.19-50.51,2,4.95,4.65,9.76,6,14.89,2.54,9.51,4.43,19.2,6.37,28.85.24,1.21-.88,2.7-1.38,4.05l-1.73-.07,3.24,4.21c-7.12-.94-13,4.65-19.2.05-7,6.78-16.65,4.1-25,7.38v-2.71c-2.55,1.31-5.1,3.42-7.95,4-13.47,2.63-27,4.8-40.53,7.19-4.29.75-8.39,1.08-12.41-1.42-1.61-1-3.9-.91-6-1.35.26,2,.46,3.59.87,6.76-9.87.62-19.36.89-28.76,2-3.87.46-7.44,3.09-11.31,4-2.81.66-5.9.13-8.89.13-3.75,4.23-10.05,2.35-17.12,4.66l15.79-45,9.7,5.92-.56.52c1.53.21,3.05.48,4.58.59s3,0,5.66,0l-11.95-6.32c3.81-4,3.59-5.05-2.75-11.21,9.15-13.74,18.39-27.73,27.83-41.59.77-1.13,2.88-1.35,4.63-2.1-.08-.19-1.12-1.71-.84-2,5.09-5.54,9.51-12.46,15.82-15.84,4.61-2.47,10.42,2.78,15,6.19a5.45,5.45,0,0,0,4.25,1.42c-4-3.56-8-7.24-12.14-10.63-2.72-2.21-2.95-3.83-.28-6.4a259,259,0,0,1,87.84-55.76c2.09-.8,5.15.89,7.75,1.46a4.09,4.09,0,0,0,3.43-.25,28.19,28.19,0,0,0-2.85-1.57A36.22,36.22,0,0,0,409,251.7c14.76-6.35,39.66-13.07,69.9-15.7l6.65,5.56.88-.89c-.52-.59-1-1.23-1.56-1.76s-1.45-1.15-2.17-1.72l.1-1.95c5.92,0,11.84-.18,17.74,0,9,.34,18.07.62,27.05,1.51a256.44,256.44,0,0,1,111.58,37.89c3.48,2.17,5.82,6.14,9.25,8.44,5.88,3.93,12.26,7.12,18.32,10.81,1.56.95,2.7,2.59,4,3.91-.71.63-2.11,1.39-2,1.89.82,4.74,6.3,8.35,12.28,8.32,0,.46,0,.92,0,1.38l.5.22h.55c3.1,2.29,6.61,4.19,9.22,7,6.85,7.22,13.3,14.82,20.4,22.81l-4.66.89,12.16,9.35c-.16.68-.33,1.35-.49,2l-61,8.55c-.2-1-.07-2.66-.68-3-5.85-3.43-11.81-6.65-17.77-9.89-.1-.05-.47.42-1.25,1.12Zm-223.5-64.92c4.7,3.2,8.2,6,12.06,8.11s5.19,4.91,4.81,9.23-.09,8.82-.09,14.07L464,316.92c.71,1.71,1.16,2.81,1.61,3.91l.62-.3c-.09-1.8-.18-3.61-.32-6.26l20.26,6c-1.2-3.49-1.67-6.18-3-8.39-4.25-7.25-3.12-13.51,2.58-19.42,1.92-2,3.29-4.51,4.69-6.48l-9.34-3.21c-1.46,2.75-9.2,4.1-11.11,1.48-3.42-4.69-6.82-9.39-10.43-14.37-.72,1-1.26,1.46-1.31,1.93-1.25,12.73-7.54,20.73-20.77,22.3A24.12,24.12,0,0,0,434.33,295.16ZM560,310.89l4.26,2.93.54-.82c-1-1.1-2-2.19-3.16-3.41l4.23-3.69c-5.07-2.14-10.85-3-14.1-6.39s-3.82-9.1-6.11-15.25c-4.45,12.53-13.37,15.74-25.7,13.62,10.71,8.51,9.89,18,4.35,28.84,11.23-7.33,20.17-4.23,28.1,5.09C555,324,548.74,314.21,560,310.89ZM392.35,360c1.7-2.67,3.08-4.46,4.06-6.44,2.64-5.32,6.08-8.85,12.75-7.69,2.39.41,5-.3,7.49-.5l1.17-1.25c-10.86-7-11.51-16.17-6.33-27.23-10.74,7.09-20.06,6-28.35-3.56,0,6.4,1.51,12.18-.42,16.4s-7.29,7-11.49,10.72C387.13,345,387.13,345,392.35,360Zm-86.47,15.32-.71,1.71c2.43,2.13,4.76,4.39,7.31,6.36,2.73,2.12,5.1,4.34,9.49,3,3.63-1.07,6.88,1.13,7.41,5.36L321,386.85l-1.42,2.44,14.85,9.48c1-3.64,1.49-5.61,2-7.58-.38,6.31,1.42,9.81,6.85,10.59-5.8-2.8,1.45-13.67-9.87-12.89,8.39-6.11,11.58,1.11,16.9,6.27-1-9.45,3.59-13.18,10.77-15.34-8.09-2.2-9.67-8-9.27-16.63-5.31,7.21-10.89,8.94-18.77,4.78,1.51,3.49,2.56,5.27,3,7.19.42,1.67.84,3.85.12,5.18-1.87,3.44-2.94,8.26-9.15,3.77-4.35-3.13-10.33-4-15.53-6A57.65,57.65,0,0,1,305.88,375.28Zm304.78-55c-5.64,6.35-11.5,4.64-17.8,1.67,3.94,7.26,1.8,12.92-3.72,18.23,8.22-1.87,12.19,2.26,15.42,10.15,2.51-7.88,5.31-13.81,14.33-13.45C611.23,333.41,610,327.67,610.66,320.31Zm-239,56-7.78-8.4c5,23.52,5,23.52,9.58,25.76C367.74,386.7,367.4,383.06,371.62,376.29Zm-20.31-73.77-.84,1.48L364,310.37c-3.66-9.32-11.65-11-17.47-15.27-.32.39-.64.79-1,1.18l8.24,6.47Zm268.53,5.1L606,294.71c-4.3,6.41,1.94,7.36,4.18,9.43S614.89,311,619.84,307.62Zm-36.59,31-.94,1.22,13.78,12.57,2.09-3.22Zm72.18-48.23-17-10.83C642.91,287.21,649.63,291.39,655.43,290.41Zm-266.8,3.65-11.32-14C377.24,286.47,383.32,293.69,388.63,294.06ZM435,357.47c-.18,3.48,1.49,6.57,5,4,3.23-2.35,4.26-.08,6.11.88a19.74,19.74,0,0,1,2.86,2.19C446.73,357.88,440.59,358.64,435,357.47Zm-109.94-11.9h-5.63l-.43.76,12.95,6.59.26-.54Zm361.7-24.52-13.27-8.25C676.7,319.32,682.6,322.4,686.75,321.05Z" transform="translate(-3.39 -67.89)"/><path class="a" d="M737.29,791.9c-.46,2-.22,4.86-1.46,5.85-24.77,19.58-51.36,36.21-80.28,49-4,1.77-8.32,3-12,5.25-4.63,2.87-6.66-4.45-11.13-1.75l4.71,3.34.17,2c-19.5,5.44-38.91,11.25-58.54,16.15-8,2-8.22,1.08-16.28-3.7a4.74,4.74,0,0,0-4-.43l9.36,6.71c-12,1.52-22.45,3.67-32.91,3.73-3.86,0-7.76-4.88-11.64-7.54.18-.63.35-1.27.53-1.91,5.34-.29,10.68-.62,16-.85,8.49-.36,9.36-1,9.09-9.24-.34-10.58-.93-21.16-1.49-31.73-.62-11.71-1.4-23.41-2-35.12-.36-7.1-1.12-8.2-8-7.92-15.24.63-30.47,1.52-45.7,2.29-3.76.19-5.07,2.07-5.43,5.86-.26,2.74-2.24,5.32-3.78,8.71l3.65.66c.74,1.28,1.62,4.08,3.52,5.7,1.51,1.3,4.24,1.18,6.9,1.79l5.91,8c-1.63,1-4.21,1.84-5.22,3.57s-.52,4.41-.73,7.18l-5-2.52,6.43,8.11-9.3-2.41c-.19.61-.37,1.21-.55,1.82l6.48,5.44.55-.53-1.94-3.93c10.85,7.94,21.76,1,33.06,3.86-.21,2.85-.45,6.14-.7,9.5-9.88.47-19.43,1-29,1.35-4.61.17-7.13,1.93-6.78,7,.28,4,.06,8,.06,12l-2.42-2.8-1.13.5,1.68,4.94L484,869c.11.59.08,1.44.3,1.5,3.73,1.13,7.41,6.31,11.36-.2.67-1.1,4.35-.39,6.65-.5l12.54-.56L527,878.84c-24.32,3.07-48.56.86-73.31-1.61-.14-2.08-.29-4.24-.42-6.18l11.58,6.61,1.47-1.89c-3-4.3-3.25-10.74-10.36-11.82-.53-.08-1.29-.37-1.47-.77-2.3-5.09-4.51-10.21-6.75-15.33l1-1.27,6.43,3.51c-2.45-5.83-8.78-5.34-13.47-8.88,3.32-12,6.79-24.63,10.27-37.22,1.26-4.58,2.6-9.15,3.82-13.74,1-4-.15-6.45-4.34-7.85-14.67-4.89-14.62-5-18.69,10-2.24,8.23-4.53,16.45-7.14,25.92-4.92-14.49-9.39-27.74-13.93-41-2.69-7.83-14.36-12.45-21.71-8.75l-10.25-9.1-11.17-12.29c-.28-1.67-.55-3.33-1-5.8l12.2,6.06c30.16,15,62.17,23.42,95.58,27,3.7.4,7.18,3,11.46,4.82-.82-1.74-1.42-3-1.62-3.47,15.34-.77,31-1.66,46.58-2.24,2.83-.11,5.7,1.06,8.92,1.72-.11-.75-.24-1.69-.31-2.18,16.22-4,33-7,48.9-12.45,14.5-4.94,28.39-12,42.07-19,20-10.26,37.73-23.77,54.35-38.83,1.78-1.61,4.45-2.26,6.92-3.46.05.08-.6-.91-1.18-1.81,2.59-5,6.38-4.71,10.88-3.35l-4.55-3.08,15.36-17.43,5.43,1.86-3.68-4.94,6.54-5.51.85,1.15c.11-1.73-.37-3.83.43-5.13,7.14-11.59,14.5-23,21.73-34.4l2.92,4.93,1.22-.35c0-1.17.5-2.94-.08-3.42-4.2-3.51-2.06-7-.31-10.56,1.5-3.09,2.86-6.25,4.22-9.41,2.47-5.7,3.92-12.09,10.33-15.07l-.19.21,5.07-24L780.5,581c.16-1.77.32-3.59.49-5.41l0-.27,11.35-5-1.75-2.18,6.89-4-2.74-2.2.15.14c15.45-3,30.88-6.17,46.35-9,11.52-2.13,23.1-3.89,34.91-5.85-2.76,12.24-2.64,24.31-6.34,36.15l-5.48,1.09,0,.89,5.39.47-13,44.75-5.93-.76,4.49,3.12c-1.38,3.36-2.78,6.8-4,9.76l-8.72-5-.58.91,8.08,7.16c-5.12,15.4-11.34,26.74-14.9,26.55.43,1.23.84,2.39,1.47,4.16l-6.42-.29c5.08,7.82-1.67,12.19-3.65,17.11-8.41.63-9.76-7.52-15-10.81-5.65-3.53-10.91-7.71-16.35-11.59-13.07-9.31-26.17-18.58-39.2-27.94-3.9-2.81-6.63-2.38-9.47,1.74-9,13-10,10.9,3.16,20.14,3.75,2.63,7.45,5.34,11.35,8.14-1.52,2.45-3,4.84-4.69,7.56l-4.57-2.71-.54.57,2.84,3.61c-3.29,6.81-6.86,13.07-9.26,19.75-.84,2.32,1.33,5.65,1.89,8.57a56.91,56.91,0,0,1,.55,6.15c1.25.85,3.17,1.66,4.42,3.06,7.58,8.55,16.66,13.13,28.37,11.64,2.38-.3,4.87.22,7.67.38l-.64-1c7-9.14,13.78-18,20.54-26.9,1.85-2.43,3.34-5.18,5.44-7.36a12.22,12.22,0,0,1,6.26-3.27l-2.74,4.33,1.22.75,5.78-3.12,1,.94L820.88,703l-4.63-3.19c1.35,2.55,2.06,3.91,3.13,5.94l-24.9,34.61-4.29-4.77-1.23.5,3.21,6.69c-6.17,6.79-13.19,14.71-20.52,22.33-.79.82-3.56.29-5.11-.35a65.22,65.22,0,0,1-7.4-4.08l-.78,1.39,10.42,6.73c-7.24,5.07-11.38,13.43-20.34,16.17,1.17,3.76-4.88,8.21-11.28,7.06-.92-1.89-3-4.13-2.58-5.6,2-6.76,4.81-13.29,7.31-19.91,4.28-4.08,4.55-14.37.49-20.23-.87,5.65,5.06,12.34-2.27,17.25l1.9,3.08c-1.27,1.59-2.92,3-3.72,4.81a81.54,81.54,0,0,0-2.88,9l-1.52.06a51.85,51.85,0,0,1-2.45-5.31q-11.37-33.5-22.66-67c-1.95-5.75-3.88-6.31-8.65-2.75-2.57,1.93-5.12,3.9-7.35,5.6l-5.53-2.73c.81,1.25,2.53,2.86,2.92,4.74.85,4.06.4,8.46,1.65,12.35,1,3.26.34,4.86-2.12,6.67-5.5,4.06-10.86,8.3-16.33,12.51-1-.74-2-1.45-2.93-2-7.64-4.55-8.05-8.57-18.29.07-1.25,1.05-3.94.51-6,.5-1.83,0-3.67-.31-5.5-.48v1.75l7.67,1.17c-4.67,4.09-2.81,6.59.86,8.92,8.7,5.53,17.4,11.08,26,16.81,1.82,1.22,3.08,3.29,4.27,4.59,1.93.55,4,.69,5.51,1.65,8.09,5,16,10.27,24,15.45,8.21,5.33,8.2,5.33,16.24-.91,2.26-1.75,4.56-3.45,6.6-5Zm-139.56,2.15c11.81,8.56,10.79,23,17.5,34-5.83,2.3-10.94,3.91-15.61,6.36-1.83,1-3.91,4-3.69,5.79.47,3.83,2.28,7.53,3.74,11.2s4.07,4.3,7.85,2.81C623.25,848,639.11,842,654.87,835.9c9-3.48,8.93-3.64,5.53-12.32-.76-2-1.57-3.89-2.28-5.86-1.38-3.8-3.69-4.93-7.58-3.28-5,2.12-10.18,3.9-15.29,5.83a16.82,16.82,0,0,1-1-1.83q-9.83-25.31-19.58-50.62c-1-2.63-2.25-5.21-5.5-4.06-5.74,2-11.31,4.57-16.55,6.74,3.41,8.86,6.36,16.54,9.61,25Zm-8.09-3.51c5,14.63,5,14.63,11.24,13.4l-8-4.53,4-1.13Zm218-228.25-4.75,7.92C809.06,570.4,810.17,568.75,807.68,562.29Zm41.85,67.09,1.88-1.67c-1.83-1.87-3.42-4.16-5.61-5.43-1-.58-3.17.81-6.19,1.73ZM826,644.83l1.33-.74-9.2-18.66L817,626ZM482.37,820.5l-11.07-7.45c-.33.54-.66,1.08-1,1.62C474,816.74,475.27,822.81,482.37,820.5ZM826.88,628.13c.35-.54.69-1.08,1-1.63l-12.53-8.78-1.25,1.88Z" transform="translate(-3.39 -67.89)"/><path class="a" d="M280.34,320.53l-4.57,2.06,9.77,6.64c-7.67,11.63-15.15,22.87-22.53,34.19-1.55,2.38-2.55,5.13-4.16,7.46-.85,1.22-2.47,1.91-3.12,2.39-5.38,13.45-10.63,26.59-16.59,41.52.59,4-1.25,9.28-5.83,13.23l-7.3-2.5,9.57,10.63-112,19.7c2-11.62,3.36-22.87,6-33.81,3.65-15.18,8.18-30.15,12.55-45.15.6-2.08,2.44-3.79,3.29-5.76,3.21-15.67,11.11-29.62,18-43.91.46-1,2.46-1.15,2.77-1.28,1.26-3.64,2-7.21,3.65-10.22,5.07-9,10.54-17.84,15.88-26.78,1.18,1.26,2,2.11,1.89,2,1.31-3.32,2-7.19,4.11-10,7.66-10.25,15.75-20.17,23.82-30.12.78-1,2.48-1.19,4-1.87.29-.81.46-3,1.63-4.29a371.94,371.94,0,0,1,79.09-65.61c1.79-1.11,4.19-1.25,6.28-1.83.1-.39.05-2,.64-2.26,17.39-8.67,34.6-17.81,52.42-25.5,7.54-3.25,15.15-6.82,23.25-8.86,8.87-2.25,17.61-5,26.5-7.16,1.89-.46,4.32.2,6.21,1,4.15,1.81,8.12,4,12.16,6.1L450,151.71l2.75,14.66-1.79.81-6.55-5.75L439.29,163c3.63,4.9,7.27,9.29,10.3,14.08,1.78,2.81,3.41,6.17,3.68,9.4.8,9.88.91,19.82,1.29,29.74l-6.22,3.26L442,225.74c-.57-.44-1.32-1.37-1.7-1.24-5.8,2-11.54,4.15-17.3,6.27l.15,1.06,16.33-.91-.27,0c.68-.88,1.35-1.77,2-2.66l5.35,3.51c-6.27,1.5-12,2.73-17.59,4.24a89.06,89.06,0,0,0-12.32,4c-5.84,2.53-11.51,2.84-17.31.21.53-2.93.62-5.8,4.65-6.81,1.1-.28,2.17-4.51,1.66-6.51-1.19-4.72-3.35-9.18-5.59-15l6.25,2.35,1.1-.94a31.81,31.81,0,0,1-13.26-16.57c-2.74-7.59-6-15-9.18-23,6.69-.87,12.09-8.51,18.66-1.08-8.3.23-12.94,6.2-10.61,13.94,1.14,3.8,2.75,7.47,3.72,10.05,1.4-3.92,3.07-8.64,4.75-13.35l.34-2.29,2.76-8.42,2.59-.33,1.28,4.93,8.05-4.15c-3.4-1.14-6.54-5.53-9.39-.42L402,168.38l1.77-.31a83.29,83.29,0,0,0-.64-9.37c-.42-2.39-1.66-4.64-2.48-7-1.49-4.24-3.93-5.43-8.37-3.65-14.11,5.67-28.38,10.95-42.54,16.5-15.75,6.17-13.75,4.09-8,19.64,1.46,3.92,3.81,5.29,8,3.48,4.91-2.14,10-3.79,15.31-5.74,1.7,4.5,3.14,8.41,4.64,12.3,3.43,8.83,6.9,17.64,10.33,26.47,1.86,4.75,3.55,9.58,5.6,14.25a6.68,6.68,0,0,0,3.33,3.52,81,81,0,0,0,9.76,2.13l3.05,4.43-23.58,9.7-3.86-3.34-1.11,1,3,4.43-9.37,2.86c-.21.31-.77,2-1.94,2.71a283.31,283.31,0,0,0-56.89,42.87c-1.7,1.67-5.2,1.5-8,2.22.74.94,1.64,2.11,2.49,3.21-3.6,4.09-7.14,8.2-10.81,12.2-.45.48-1.59.34-2.4.5ZM415.73,164.91l1,1.29.24.11,15.55,7.23c-.3-1.54-.52-2.65-.74-3.76a10.52,10.52,0,0,1,3.18.07c2.19.71,4.29,1.71,6.42,2.6l.87-1.83c-3.64-2.58-7.13-5.41-11-7.64s-7.89-3.78-12.28-5.83l-4.41,2.53.33,1.24h5.41l-1.87,3.28.09.13-2.81.44ZM442,191.85l1.13.81,6.33.78.8-1.76-10.81-9.32a46.76,46.76,0,0,1-1.11,5c-1,2.74-.35,4,2.73,3.4Zm-210.21,173c-6,6.23-5.31,10.46,5.85,26.17A75.64,75.64,0,0,0,232,379.77c-4.33-7-3-12.43,4.11-15.39a40.16,40.16,0,0,1,5.91-1.61L236,355.2c15.38,9.14,12.34,9,22.16-3.95,3-3.92,2.52-6.7-1.58-9.41-5-3.32-9.83-7-14-9.94,4.63-11.56,9-22.39,13.48-33.71-.1-.16-.71-1.22-1.4-2.4l2.88-1.39c-1.89-1.94-5-3.65-5.54-6-1.8-7.48-7.64-10.43-13.4-13.67-11.79-6.62-22.78-5.05-32.18,4.76-2.17,2.26-3.73,5.08-5.79,7.47-.81.95-2.2,1.41-3.2,2a28.55,28.55,0,0,1-2,5.38c-1.78,2.94-4,5.62-6,8.44-8.8,12.6-10,10.58,3.47,20.12,12.64,8.93,25.19,18,37.79,27,3.89,2.77,6.49,5.6,1.63,10C231.55,360.58,232,362.66,231.82,364.87Zm50.86-74.18c-.23.33-.47.65-.71,1a53.73,53.73,0,0,0,4.93,2.93c1.57.73,4,.58,4.85,1.72,3,4,5.44,2.79,8.57.24a115,115,0,0,1,9.72-6.5c.61-2.33,0-5.84-.45-9.38-.36-2.77-.53-5.57-.85-9l8.48-6.61c3.12-2.43,6.26-4.85,9.31-7.22,15.3,9.62,10.51,9.79,24.87-1,.46-.34.84-.78,1.27-1.16,2.7-2.43,2.84-4.67-.14-7.11a29.69,29.69,0,0,1-3.6-4c-2.53-.82-4.84-1.06-6.56-2.2-10.48-6.91-20.7-14.21-31.29-20.93-2.62-1.67-6.18-1.75-4.21-6.42l-2.1,2c-4.69-2.56-9.28-4.24-12.8-7.19-7.11-6-13-4.66-18.78,1.57a15.69,15.69,0,0,1-2.72,2.11c-3.63,2.46-4.81,5.53-3.11,9.82s3.19,9,4.51,13.55c.53,1.81,0,4,.63,5.71,1.1,2.94,3,5.59,4.08,8.53.51,1.35-.05,3.1-.13,4.66-1.35-.22-2.69-.54-4.05-.64-1.61-.11-3.23,0-6.21,0l10.73,6.51,2.67-2.21c3.75,11.29,7.33,22.09,11,33.28ZM309.73,177.6c2.63,7.88,8.75,7.87,15.49,7.16a49.41,49.41,0,0,0-10.38-10C314,174.24,311.06,176.84,309.73,177.6ZM435,213.52c.16-2.36.64-4.77.35-7.08-.14-1.13-1.66-2.85-2.64-2.92a4.35,4.35,0,0,0-3.41,2.24,4.81,4.81,0,0,0,.69,4.1C431.05,211.2,432.82,212,435,213.52ZM154.75,356.08l.24,2.15L167.06,361c-1.74-3.19-3.16-5.82-4.65-8.58-.55.28-2.1,1.14-3.7,1.91C157.42,355,156.07,355.5,154.75,356.08Zm89.83,15.29,3.29-5.95H237.39ZM217.29,387.3c-3.7-6.5-8.2-8.46-12.45-6Zm-26.54-15.74c1.81.3,3.65.5,5.43.94,1,.25,2.84,1,2.8,1.34-.7,5.53,3.4,2.55,5.89,4.09C201.9,372,195.28,368.82,190.75,371.56ZM165.46,398l-.44,1.1q3.72,4.47,7.43,8.93l.81-.5c-.52-2.35-1-4.7-1.59-7.27Zm97.73-148.16.14-1.43-7.51-4.26-.62.83L257,247.6l-4.65.26c0,.42,0,.84,0,1.27ZM177.85,409.2c2.78-5.63-1.3-5.64-4.11-6.6a8.52,8.52,0,0,0-.76,1.27l5.44,2.06-4.15,2.3.49,2c2.37,0,4.74,0,7.1-.08a12.08,12.08,0,0,0,.4-2.41Zm236.5-176.6c0-.3,0-.61,0-.92h-5.16l.07,1.38ZM420.08,215a5.45,5.45,0,0,0-.54-.61s-.36.15-.37.25a3.47,3.47,0,0,0,.1.78Z" transform="translate(-3.39 -67.89)"/><path class="a" d="M448.34,219.48l6.22-3.26c3.31.86,6.66,2.56,9.94,2.44,12.61-.46,25.2-1.6,37.8-2.29,5-.27,10.07-.05,14.89-.05-5.87-2.95-3.47-9.1-3.87-14.44-.47-6.15-2.17-7.5-8.26-7.08-9.72.66-19.45,1-28.81,1.5-.32-3.35-.61-6.43-.95-10.05,6.9-.44,13.86-.15,20.48-1.52,6.24-1.29,12-2.7,18,.93-.31-.3-.58-.76-.94-.87-7.17-2.18-11.28-6.14-9.87-14.45.66-3.92-2.15-6.11-6.06-5.75-4.5.42-9.07,1.64-10.85-5.49l-1.18,1.84,2.44,4.24H473.86c-.21-3.05-.43-6.19-.66-9.6,10.2-.53,19.92-1.2,29.65-1.48,5.25-.15,7.53-2,7.31-7.61-.59-14.93-.4-14.84-15.27-13.56-7.43.64-14.89,1.11-22.34,1.08-2,0-4.23-1.79-5.81-3.32-2-1.91-3.39-4.41-4.86-6.38a335.09,335.09,0,0,1,73.16-.48c3.74.39,7.43,1.31,12.74,2.28,8.49-2,17.35,1.53,25.8,7l-2.91-3.92.57-1.35c12.4,3.76,24.86,7.31,37.14,11.42,2.57.86,4.33,4,6.73,5.66.92.65,2.58.24,3.9.31-.61-1.23-1.23-2.46-2-4.06,5.82,1.54,12.15,2.07,16,8-1.9,4.54,3.27,1.63,3.75,3.55,1.45,5.82,6.74,6.88,11.18,9.9-.66-6.85-7.86-12.86-15.07-13.31.55-.8,1.4-2.37,1.6-2.29,7.21,2.9,14.42,5.85,21.49,9.08,1.14.52,1.67,2.39,1.73,2.48,2.6.21,4.26-.09,5.49.5a373.16,373.16,0,0,1,69.07,42.6c37.3,29.38,68.76,64,93,104.94,4.4,7.4,8.44,15,13,23.18-11.05,2-21.5,3.85-32,5.69-5.07.89-10.14,1.82-15.24,2.49-4.89.64-6.41-1.7-5.38-6.53,1.78-8.31,3.08-16.73,4.69-25.71l-4.93.3c4.6,9.71,0,18.44-3.31,27.32-11.67-12.19-26.76-19.29-41-27.59l-18.54-10.62-1.36,1.67c8,1.19,9.28,7,10.31,13.15.36,2.14,1.95,4.09,3,6.12l.44,2c2,9.27,3.91,18.53,6,28.53-3.76.85-7.33,2-11,2.28-1.27.09-3-1.82-4-3.2-21.49-30.55-47.62-56.29-79.39-76-10-6.23-20.74-11.38-31.08-17.14-4.47-2.49-8.7-5.43-13.23-7.81-1.23-.64-3.38.59-4.73,0-14.2-5.8-29-9.43-44-12.61-28-5.95-56.24-6.45-84.61-3.55-6.6.67-13.14,1.87-20.11,2.88-.44-3-.93-6.32-1.41-9.61l.18.23C447.91,221.25,448.12,220.36,448.34,219.48ZM676,200.59c-3.72-.65-7.48-1.13-11.16-2-2.79-.65-5.46-1.79-8.19-2.72l-.6,2.42,6.93,1.3-2.64,2.13,23.92,12.6c-8.27,12-16.3,23.95-24.67,35.63-1.45,2-4.31,3-6.36,4.43l2.32,1.51c-3.13,4.17-1.22,7,2.64,9.22,1.15.68,2.2,1.52,3.3,2.28,8.13,5.64,8.82,5.51,14.31-2.54L703.59,224c4,1.61,8.42,2.71,12.08,5,8.06,5.1,8.18,5.29,13.75-2.79.43-.63,1-1.19,1.41-1.81,4.8-6.82,4.59-8.13-2.12-12.76-14.46-10-29-19.8-43.34-30-3.15-2.24-4.9-1.11-6.66,1.18-2.63,3.42-5.07,7-7.59,10.49l2.47-2.65L665,185.67l-2.32,2.3,13.21,12.62Zm-91.87,19.25c5.12,7.64,10.22,15.28,20.71,16,.28,0,.44.87.79,1.15,2.13,1.72,4.31,3.39,6.47,5.07.55-.67,1.09-1.34,1.64-2L608,235.25l.59-1L635,247.69l-.65,1.29-5.73-.81,7.09,5.15c.5-2.1.82-3.48,1.15-4.85l5.6.93.11-.52-33.06-15.52c1.62-4.42,3.2-8.05,4.26-11.82,1.27-4.49,2-9.14,3.11-13.68,1-3.9,2.22-7.73,3.27-11.61,1.24-4.58,2.34-9.21,3.62-13.78s2.68-9,4-13.44l9.35,1.2c.18-.8.36-1.6.53-2.4l-8.79-2.58c1.43-8.28,1.43-8.28-8.54-12.71-.18-.08-.34-.19-.51-.27-6.34-3-9.43-1.66-11.29,5-2.85,10.29-5.72,20.57-8.91,32-5.06-14.47-9.66-27.69-14.3-40.9-2-5.6-12.35-11.5-18-10a5.21,5.21,0,0,0-3.24,2.85q-5.41,17.82-10.41,35.76c-1.92,6.87-3.52,13.82-5.34,21.05l-9.08-2.84-.3.68,8.45,5.58c-2,4.92-3,4.54-6.77,1.4-4.48-3.68-10-6.1-15.07-9.06l-.78,1.32L545,209c-.35,1.5-1.53,3.59-1,5.1.93,2.72,2.3,6.13,4.53,7.34,2.54,1.39,6.3.32,9.38,1,4.24.94,6.35-.34,7.31-4.58.59-2.62,2-5.05,3.09-7.56Zm132.53,37.1c-.38,2.88-.44,6.08-1.4,9-.25.75-4.39,1.36-4.9.67-2.1-2.83-3.49-6.19-4.85-8.8-2.13,3.07-1.58,6.55,2.58,9.71,3.54,2.69,6.84,2.22,9.55-1.12C720.81,262.41,719.3,259.18,716.61,256.94Zm-9.31,57-11.65-8.5-.87,1.13c3.06,2.63,5.83,5.75,9.25,7.76s7.69,3.07,11.88,4.66c-1.49-2.82-2.88-5.42-4.45-8.39l-.94,2.68-2.76-3C707.6,311.56,707.5,312.28,707.3,313.91Zm21.81-78c-.51,4.84,2,8.46,6.47,9.23,3.29.58,7.95-3.16,8.83-7.09C735.43,245,733.92,244.78,729.11,235.88ZM532.69,216.42l12.53,6.89C535.91,211.55,535.65,211.42,532.69,216.42Z" transform="translate(-3.39 -67.89)"/><path class="a" d="M432.81,626.32c3.33-1.06,6.59-2.46,10-3.09,13.3-2.5,26.57-5.64,40-6.79,9.88-.85,19.08-4.22,28.85-5.27,10.39-1.13,20.65-3.51,31-5.38,10.12-1.84,20.18-4.2,30.38-5.39,4.07-.47,9-4.5,12.92,1,.1.14,1.73-.79,2.16-1l21.62,24.24c-1.63-3.69-2.89-7.41-4.84-10.73-3.31-5.64-3.49-5.53,3.48-6.14-2.13-3.78-4.38-6.78-9.08-5L596,597.54l-1.19.45v6.4l-1,.19c-.59-2.42-1.18-4.85-1.82-7.46,14.59-2.55,28.83-4.76,42.93-7.66,5.55-1.14,8.81,2.57,13,4.24,2.67,1,5.19,2.46,7.78,3.72.35-.56.7-1.13,1.06-1.69l-4.28-5.68-1.05.78.27,3.06-1.06.32c-1.16-2.18-2.33-4.36-3.72-7,35.67-5.73,71-13.36,106.79-18l.22,1.37-8.9,2.86,5.55,4.09,3.48-4.62,1.38.82c-3.06,7-1.6,16.06-8.91,20.76.26,1.32,1.22,3.1.74,4.33-2,5.33-4.55,10.48-6.78,15.75-1.77,4.14-3.91,6-8.37,2.23,1.28,2,2.56,4.07,4,6.46a265,265,0,0,1-54.14,71.59c-16,15-33.21,28.24-52.81,38.22l.08.13a23.71,23.71,0,0,0-2.91-4.26c-1.93-1.82-5.14-2.89-6.08-5-1.81-4.15-4.78-2-7.3-2.36l.22.15a16.11,16.11,0,0,0-2.5-3.07c-3.89-2.93-8.19-5.4-11.8-8.64-3.08-2.78-5.43-6.38-8.1-9.62l-1.29.83c.13.9.25,1.8.45,3.17l-8.48-1.18-3.92-1.61-9.31-7.89-4.13-3-14.66-7.36c-.23-1.64-.61-4.3-1-7.23l-4.65,3-2.71-2c-.34,1.58-.68,3.16-1.12,5.24-5-3.86-13.59-1.32-16.69-7.8-2.38,0-4.55.5-6.35-.1-4.29-1.45-8.32-3.69-12.63-5.08-3.67-1.19-6.54-5.76-11.25-2.91-12.38-7.39-25-14.42-37-22.3C447.94,638.86,440.55,632.32,432.81,626.32ZM620.07,680.9c-3.4-3-4.91-5-.69-8.29,3.63-2.85,6.62-6.51,10-9.89-4.93-4.29-13.17-1.38-18-8.63,2.64,1.3,4.06,2,5.36,2.66l-9.83-13.18c-1.56,2.46-3.57,5.16-5.08,8.11-1.76,3.44-4.18,4.85-8.1,4.66-3.42-.16-6.89.48-10.25.76,1.8,6.61,10.84,8.69,8.12,16.55-1.87,5.4-4.26,10.62-5.9,14.65,4.06-1.52,10-3.13,15.26-5.86,7.71-4,10.53,4.91,16.64,5.47-.23-2.42-.46-4.8-.71-7.42Zm47.71-66c-8.06,3.12-13.15-.22-17.34-6.74.16,8.29-4.22,12.2-11.42,14.31,8,2.4,9.69,8.24,9.74,15.59,4.72-6.28,10.26-8,17.72-4.66C661.55,626.64,662.82,620.9,667.78,614.86Zm-2.19,32.6.33,1.08c3-.81,6.06-2.38,9-2.19,2.49.17,4.85,2.37,6.29,3.14.24-2.58.51-5.37.64-6.78l-10.76-1.83,2.49,3.31Zm-12,6.49,7-3.93-.19-2c-7.34,6-13.37,2.3-19.3-2.09l-.78,1.87L655,657.19l1.26-1.65Zm-31,45.06,1.44-1.93L607.79,685l-1.11,1.42ZM701.8,586c-1.24,6,5.56,11.76,12.12,10.15C708.87,593.29,702,593.5,701.8,586Z" transform="translate(-3.39 -67.89)"/><path class="a" d="M432.81,626.32c7.74,6,15.13,12.54,23.29,17.88,12.06,7.88,24.67,14.91,37,22.3,3.75,2.62,7.48,5.26,11.25,7.85.61.41,1.78,1,2,.79,3.3-3,6.16.2,8.92.87,7.73,1.89,15.26,4.53,23.69,7.12l-5.3,4.15-19.79-5c1.85,5.21,3.08,9.58,4.94,13.67,1.65,3.64.88,6.41-1.44,9.35-2.78,3.51-5.28,7.25-8.46,11.67,6.13,0,11.22-.29,16.25.13a9.92,9.92,0,0,1,6,2.91c3.32,3.7,6.09,7.91,9.66,12.69l4.15-13.59L553.3,723c.2-.38.39-.76.58-1.14l-10.21-6.56,21.62-8.41c-3.52-2.39-6.33-4.72-9.5-6.38-5.79-3-8.61-7.16-6.29-13.7l14.74,4,4.13,3-3.58,2.35L561,691.9c2.41,9.78,12.82,17.26,18.11,13h-5.41l-.39-1,4.33-2.26,3.92,1.61c7.55,4.36,15.1,8.7,22.64,13.08,3,1.77,6,3.62,9.08,5.43l-.22-.15,16.29,11.65-.08-.13c-5.23,6-11.66,4.89-18.41,2,0,.56,0,1.11-.08,1.67l7.56,3.32c-14.23,5.44-27.28,11.27-40.85,15.37-12.71,3.85-26,5.87-39,8.7-3.29.71-6.4,1.62-8.78-2.2-1.36-2.17-3.67-3.76-5.79-5.84l-.72,1.79-3.43-3.64-.75.58c1.25,2.77,2.59,5.5,3.7,8.32.3.77-.09,1.82-.2,3.11-15,0-30.16,1.08-45.08-.21-41.45-3.57-80.34-15.77-115.75-38-4.22-2.64-7.45-7.21-10.42-11.4-2.56-3.62-.29-13.41,2.82-17.38.56-.72,0-3-.79-3.93-1-1.22-2.68-1.85-4.84-3.22l2.29,13.21c-2.17-1.4-3.16-2-4.17-2.69-7.34-4.67-13.5-10.74-19.74-16.73l-28.61-33.27-1.17-3.5,3.23.39,11.61,8.86c.15-2.31.27-4.36.33-5.22L300.94,649c8-1.66,15.95-3.77,24-4.74,2.55-.3,5.46,2.43,9.36,4.33L329.48,643c10.38-1.42,20.23-2.74,30.06-4.17,1.38-.2,2.64-1.28,4-1.39,4.1-.35,8.82-3.86,12,2,.15.3,1.91-.25,2.92-.4,4.12,4.3,10.13,5.82,14.11,10.9,2.93,3.73,8.93,5.05,13.54,7.48.3.16.44.62,1,1.47h-6.77l4,2.82L403,662.9l-9.05-10c.62,9.44-5.79,10.95-12.68,12.84,8.12,3,8.51,9.36,7.72,16.39,8.93-5.4,8.93-5.4,18.91-1.2-.83-2.56-1.59-4.06-1.74-5.61-.22-2.22-.63-4.79.24-6.66s3.16-2.79,5.77-4.89c-.62-1.54-1-5.7-3.22-7.45-6.77-5.32-14.27-9.72-21.5-14.44-1.62-1.06-3.33-2-5-3l-1.37-4.5c16.15-3,32.62-6,49.11-9C431,625.34,431.92,626,432.81,626.32Zm47.12,78.18c-10.63-8.62-9.2-18.24-4.1-28.88-11.1,6.43-20.32,5-28.59-5,2.43,12.58-1.82,21-14.65,25.58,5.21,1.72,8.5,3.22,11.94,3.82,4.2.72,5.54,3.35,6.25,7,.35,1.78,1.21,3.48,1.38,5.25.08.88-.87,1.86-1.8,3.64l3.08,3.7C458.63,707.06,466.48,701.3,479.93,704.5Zm28.18,32.11c.34-.55.69-1.1,1-1.65l-17-11.74,9-1.57c-1.86-1.14-3.25-2-4.65-2.83-1.23-.72-2.48-1.39-4.18-2.33-.73,3-1.55,6.26-2.23,9l13.19,8-4.17,3L515,750.4l.8-.79-12.17-13.35ZM382.35,706l-1.52,1.81,9.21,8c-.06-1.36-.1-2.21-.17-3.71,4.3,7,5.64,7.8,9.9,5.51Zm123.38,21,11.79,8.31,1.1-1.32-.84,2.61h4.44C517.9,729.75,511.54,728.79,505.73,727Zm-180-60.85-9.83-11.7-2.56,4.48Zm164.79,51.21.87-1.54-4.81-5.38c-1.09,1.34-2.17,2.69-3.85,4.77Z" transform="translate(-3.39 -67.89)"/><path class="a" d="M368.56,747.24l11.17,12.29c1.18,1.66,2,3.91,3.6,4.88,6.91,4.2,5.32,10,3.67,16.06-2.57,9.35-5.08,18.72-7.84,28.91l-9.4-5.8-.48.65A53.48,53.48,0,0,0,373.8,808c4.12,2.74,4.33,6,2.78,10.54-2.65,7.78-4.49,15.84-6.6,23.8-.22.86-.25,2.51.11,2.67,5.28,2.27,10.53,4.81,16.06,6.11,1.27.29,3.58-3.89,5.4-6a5.32,5.32,0,0,0,.53-.93l15.29,1.63.62-.92-9.5-4.44,3.13-1.93L394.13,836c4.32-16.61,4.32-16.61,7.69-17.38,3.07,8.25,6.22,16.49,9.15,24.8.6,1.71.4,3.7,1.22,5.31q2,6,4,12l.19-.08-5.07-5.27c-1.45,1.36-3.28,4.3-5.79,5.09-2.33.73-5.39-.82-9.73-1.69l4.43,7.56c-5.33-1.42-10.28-2.59-15.14-4.08s-9.75-3.22-14.56-5c-5-1.85-9.84-4.24-14.94-5.73-4.43-1.29-7.82-4.39-12.2-5.79-4.84-1.55-10.88-3-13.61-6.56-3.07-4.05-8.47-3.77-11-8,.21.92.42,1.84.64,2.75l-.75.46-2.56-4.1c-2.65-.69-5-.71-6.56-1.8-17.55-12.07-35.06-24.19-52.34-36.64-2.06-1.49-2.69-5-4-7.55l-1.8,2.23c0-1.42.4-3.86-.08-4.05-1.41-.54-3.16-.19-4.27-.19-33.09-28.18-58.88-62.07-79.88-99.75a11.15,11.15,0,0,0,2.41-1.44c.18-.18-.59-1.73-.65-1.72-5.71,1.64-4.07-4-7.39-6.54l41.43-7.34,5.08-.92c11.35-2,12-1.7,17.33,7.83l1.37-3.37c.63,2.18,1.12,3.86,2,6.87,2.53-7.89-3.54-9.79-6.36-13.7,13-2.34,26.25-5,39.58-7,7-1.08,14.16.65,16.65,7.94,3.15,9.25,10.86,14.18,16.94,20.53,10.09,10.52,20.91,20.38,31.79,30.11,5.7,5.09,12.23,9.24,18.31,13.92,4.66,3.6,9.2,7.38,13.18,10.59,0,.13-.27-1-.59-2.1l.86-.65Zm-18.12-1.38,1.17-1.39c-6.48-4.53-12.86-9.21-19.57-13.37-.83-.52-4,1.3-5.05,2.78-6.46,9-12.59,18.19-19,27.24-.79,1.12-2.87,1.4-3.51,2.54-3.1,5.52-5.91,11.19-8.81,16.79l-27.39-16.22s-.5-1.4-1.31-3.66l-2,5.81,8.86,4.9c-1.87,2.68-3.59,4.93-5.09,7.33-4.26,6.83-4.19,7.27,2.35,11.79Q289,802.76,307,815c12.55,8.54,12.47,8.44,20.69-4.54,2.38-3.74,2-6.13-1.71-8.5-4.55-2.93-8.91-6.18-13-9,1.13-2,1.64-3.51,2.63-4.56,2.63-2.76,2.76-8.67,9.05-7.18.58.14,3.14-3.62,2.7-4.4-2.11-3.73.07-6,1.94-8.57,3.77-5.29,7.2-10.83,11.13-16,1.61-2.11,4.18-3.5,6.42-5.31l-1.52-2.65,1-.79Zm-6.66,47.53c2.12-5.3,9.38-6.83,16.63-2.28,5.54,3.47.08,8.44.15,13.64l-9.49-10.37c-1.25,2.52-2.14,4.33-3.08,6.24l4.2,1.31-.18.87h-3.7L358.77,816l2.61-4.62,2.55,3.2,1.24-.85-3.41-5.31c1-7.1,1.92-14,2.91-21.21-1.69,1.17-2.68,2.4-3.39,2.26q-9.81-2-19.54-4.5c-1.51-.38-2.85-1.45-4.47-2.31C339.48,786.28,341.45,789.55,343.78,793.39Zm23.46-34.09-5.65-6,3.87.24-4.82-11.33V777l-1.84-.41-.93,1.31,8.13,5.68c-1.21-8.14-2.39-16-3.61-24.23Zm-41.71-27-23.73-21.4L300.54,712a11.43,11.43,0,0,1,6,9.9c.17,2.37,4.33,5,7.19,6.48C317,730.14,320.83,730.78,325.53,732.25Zm-81.9,10.15c1.08,11,10.77,9.38,15.22,14.43.45-.57.91-1.13,1.36-1.69Zm108.62,75.4c1.08,1.85,2.95,3.69,3.07,5.62.12,2.13-1.37,4.35-2.17,6.52l.74.26,6.45-11.56Z" transform="translate(-3.39 -67.89)"/><path class="a" d="M389.06,109.16c6.48,1.13,10.26-2.53,12.95-7.8l8,2.46-4.7-5.89,8.25-10.07,8,2.82.7-1.84c-1.22-.45-2.84-.57-3.55-1.44-.86-1-1.73-3.23-1.21-4a104.79,104.79,0,0,1,7.29-8.94l40,23.23,23.88-20.16,4.79,3.84c-4.1-8.64,3.26-9.51,6.3-13.46l35.66,29.75L575.21,74.4c6.08,7.24,12.14,14.53,18.29,21.74,3.82,4.48,7.07,11.17,11.85,12.59,4.43,1.32,10.57-3,15.93-4.93,8.79-3.16,17.55-6.39,26.94-9.82,6.39,11.22,13.09,22.23,19,33.66,2.83,5.46,6,6.43,11.76,5.16,12.36-2.72,24.92-4.58,37.72-6.85,4.65,13,9.33,25.71,13.64,38.5,1.23,3.65,2.87,5,6.84,4.88,13.57-.28,27.16-.11,41.17-.11,2.38,13.7,4.84,27.14,7,40.63.56,3.55,1.76,5.25,5.52,5.83,13.34,2,26.62,4.45,40.58,6.83.13,1.89.38,3.91.38,5.93,0,12.06,0,24.12-.31,36.18-.08,3.26,1,4.65,4.08,5.7,13.22,4.59,26.35,9.45,39.68,14.28l-7.3,40-20.65,3.67c-6.78-11.61-13.2-23.29-20.25-34.57a372.6,372.6,0,0,0-57.87-70.9c-2.75-2.65-6.39-4.94-7.84-8.19-1.53-3.42-.93-7.8-1.26-11.81-4.36.61-2.85,4.51-2,9.17l-17.36-14a381.47,381.47,0,0,0-78.7-48.64,368.58,368.58,0,0,0-78.78-26.43c-8.34-1.8-16.78-3.1-25.14-4.81-2.11-.43-4-1.83-6.13-2.21-1.31-.24-3,1.15-4.22.86-5.81-1.34-12.83.08-16.34-7-.43-.86-2.28-1-5.19-2.19,2.17,3.2,3.39,5,5.71,8.4-7.09-1.48-12.79-2.88-18.56-3.77-1.72-.26-3.65,1.3-5.51,1.4-16.61.88-33.22,1.61-49.83,2.39l-13.95.66c-.18-.59.06.2.23.79l-41.4,8.42-9.3-11.17Zm262.64,14L666,133.76l.93-1.29-11.28-9.16,6.1.91C658.67,117.76,655.49,120.78,651.7,123.16Zm54.64,8.71c.73,5.83,2.62,10.64,9.88,10.57Q711.28,137.14,706.34,131.87ZM515.86,101.65l-9.25-4.1,8,11C515.17,105.33,515.53,103.4,515.86,101.65Z" transform="translate(-3.39 -67.89)"/><path class="a" d="M708.54,833c.35-.07.79,0,1-.23,1-.82,1.89-1.72,3-2.78-1.29-.8-2.38-1.49-3.55-2.23,7-5.06,13.55-10.91,21.08-14.89,7.2-3.79,11.91-10.48,19.33-14.94.52,2.82,1.76,5.25,1.12,7-1.55,4.16,1.26,2.88,3.07,3,4.35,2.22,8.65,4.52,13,6.65,2.72,1.31,5.57,2.36,8.36,3.52l5.32,3.91c-.57,3.18-1.24,6.86-1.93,10.73h-9.27c-.74-3.95-1.51-8-2.27-12l-.92.07c.31,3.83.61,7.67,1,12.12-9.52,0-19.06.43-28.53-.17-5.08-.33-7,1.66-8.45,5.92-4,11.68-8.14,23.28-12.25,34.91a30.35,30.35,0,0,1-1.37,2.77c-13.16-2.44-26.21-4.75-39.21-7.31-4-.78-6.72-.38-8.79,3.75-3.55,7.07-7.65,13.86-11.62,20.7-2.74,4.72-5.66,9.34-8.8,14.51-12.39-4.52-25.09-9-37.67-13.82-3.91-1.49-6.39-1.26-9.15,2.39-5.79,7.67-12.2,14.87-18.72,22.69l-6.84-3.68L580,922l-4.23,5.5c-7-4.12-14-7.7-20.44-12.12-6.09-4.2-11.58-9.28-17-13.7L503,932.11c-16.51-4.49-25.71-18.93-38.61-27.62-4.64,2.68-9.08,5.61-13.84,7.82-1.94.9-4.59.25-6.91.31,0,0,.17-.34.17-.34-4.62,6.77-9.82,12.67-19,12.57l.16.17-2.91-2.16c.12-.11.3-.2.33-.33s-.09-.29-.15-.43l.06.83c-8.36-9.59-16.68-19.22-25.17-28.69-.87-1-3.1-1.81-4.16-1.38-3.77,1.55-7.09,2.55-10-1.53-.32-.45-1.84-.06-4.11-.06l5.61,4.94-33.43,12.43c-2.31-5.73-4.35-11.24-6.77-16.57-.63-1.39-2.81-2-3.66-3.38a98.44,98.44,0,0,1-7-12.58c-.79-1.82-.42-4.45.15-6.5,1.44-5.11,3.31-10.11,5-15.15l-.12.18a19.27,19.27,0,0,1,4.26.56c17.14,6.28,34.07,13.22,51.45,18.77,12.08,3.86,24.75,5.89,37.18,8.59,5.05,1.1,10.35,1.23,13.52,6.49.72,1.18,3.12,1.33,4.75,2l1.37-1.86L445.92,887l2-2.37,8.9,6.41-2-4.69c1.83,0,3.73-.59,4.55.1,2.95,2.51,5.74,3.25,9.28,1.24,1-.59,2.62-.29,4-.29,18.9,0,37.81,0,56.72-.12,3.62,0,7-.36,9.69,3.12,1,1.3,3.62,1.37,7.12,2.54l-4-6.26c10.37-1.72,20.28-3.32,30.16-5,4.14-.7,8.3-1.38,12.33-2.48,5.17-1.4,8.76-.61,10.88,5,.57,1.5,3.62,2.06,6.86,3.73-1.21-3.09-1.46-5.78-2.92-7-1.88-1.54-4.74-1.87-6.93-2.64,16.94-5.76,33.7-11.52,50.51-17.1,1.89-.63,4.11-.29,6.37-.41.11-4.67,9.65-7.66,17.83-5l-4.07-1.82c1-1.54,1.15-1.95,1.41-2.09,11-5.79,21.86-11.67,32.94-17.22,2.25-1.13,5.13-1,7.72-1.42,2.77,5.47,8.32,2.68,12.46,4.12.14.05.61-.83,1.64-2.29l-6.86-1.3C711.14,833.47,709.84,833.25,708.54,833Zm-317,51.84.26-.25s-.13.41-.14.4l-.42.06Zm19.27,11.42,4.93-1.79c.74-3.87,1.44-7.51,2.38-12.41-1.73.19-5.76-.58-7.28,1-3.65,3.87-2.93,10.54.31,13.12l4.41,10.33h6.85C420.83,900.74,416.47,897.79,410.81,896.29ZM359.6,875l-11.42-4.46c.59,5.91,1.07,6.28,8.39,5.41-3.17,4.5-1.95,7.13,3,8.3Zm106.6,28.09,1.58-.39c-.14-8.84-.2-9-5.52-10.55ZM487,901.64c.49-3.92-1.95-5.89-14.28-9.37ZM400.47,877.3l-10.7-1.52c-.06.65-.13,1.3-.19,1.94C393,877.52,395.78,884.2,400.47,877.3Z" transform="translate(-3.39 -67.89)"/><path class="a" d="M113.25,343.36c1-1.34,1.66-2.75,2.74-3.43,4.37-2.73,8.81-5.37,13.37-7.77,2.68-1.4,3.77-2.62,3-6.13-2.81-13.62-5.05-27.35-7.61-41.69,6.79-2.25,13.6-4.37,20.32-6.77,7.08-2.52,14.14-5.11,21-8.12,1.26-.56,2.21-3.23,2.25-4.95.21-9.86.1-19.72.1-30.53l5.06,3.49.59-.38c-1.17-1.54-2.81-2.91-3.4-4.64a79.72,79.72,0,0,1-2.07-9.42c2.57.51,5.14,1,7.69,1.56a3.49,3.49,0,0,0,2.68,0l-3-3.42,37.43-6.4c2.9,3.43,5.41,7.64,11.54,7.79-3.35-3.56-6.48-6.07-8.54-9.27-4.07-6.32.29-12.77.73-19.15s2.23-12.76,3.16-19.17c.59-4.12,2.49-6,6.77-5.9,8.42.2,16.85.14,25.28.09,3,0,5.92.5,8.94.45,5.64-.09,7.35-2.39,8.91-7,4-12,8.57-23.89,13.21-36.66l29.37,5.33c-2.56,15.36-2.88,14-12.77,12.4l5.26,2.94-2,1.37,3.17,1.43c.17,13.37-6.65,21.18-17.72,27.47-21.36,12.15-39.66,28.55-57.5,45.35-6.18,5.81-12,12-18.68,18.8l-4-6.72-1.44,1.4,4.36,5.93c-7.65,9.84-15.26,19.51-22.73,29.29a263.76,263.76,0,0,0-19.94,29.56c-6.13,10.79-12.22,21.63-17.74,32.74a341.72,341.72,0,0,0-15,33.59c-4.22,11.49-6.74,23.59-10.51,35.27-3.62,11.2-4.16,23.29-9,34,0,3.74.38,7.54-.08,11.23-1.24,10.2-1.37,10.24-11.48,12.06a31.91,31.91,0,0,1-11.5.35l4.78-.28L86,441.05l-.54,3.5c-3.78-5.84-7.84-12.12-12-18.58l35.66-30c-3.17-8.22-6.3-16.33-9.59-24.89l4.12-1.51c-9.59-1.89-6.46-11.26-10.8-15.75C100.12,350.64,104.9,342.69,113.25,343.36ZM264.58,175.78c1.93,7.07,2,7.16,9.9,9-2.12-2.55-3.37-4.22-4.8-5.71-1-1.06-3.15-1.83-3.21-2.82-.3-4.95-3.27-3.72-5.89-3.52-.19.48-.39,1-.58,1.43Z" transform="translate(-3.39 -67.89)"/><path class="a" d="M338.86,854.46l-7.58,15.69c-2.53-.35-5.39-1.42-8-1-13.11,2.19-26.16,4.77-39.84,7.32-3.82-10.59-7.71-21.08-11.39-31.64C267.9,833,268,833,255.37,833c-11.09,0-22.17,0-34,0-2.43-15.53-4.82-30.87-7.13-45.64l-45.58-7.54V748.05l4.16,3.72c.12-.39.41-1,.32-1-5.2-3.69-4.71-9.12-4.89-14.54,0-1.41-2.08-3.43-3.64-4-11.77-4.42-23.67-8.52-35.49-12.82a31.42,31.42,0,0,1-4.58-2.57l.75-1.38,2.64,1.42c-.67-2.38-2.27-4.86-1.65-6.47,3.15-8.14,1.16-17.42,5.32-25.38l6.6,4.49,1.09-1.38c-1.87-1.54-3.81-3-5.57-4.66-.84-.79-2-2.2-1.8-2.9a4.56,4.56,0,0,1,2.83-2.62A129.83,129.83,0,0,1,150.46,675c1.48-.16,3.95,1.37,4.67,2.78,16.27,32.08,37.52,60.66,61.09,87.66,1.91,2.19,2.94,5.22,5,7.2,2.49,2.38,6,3.71,8.47,6.1a431.85,431.85,0,0,0,79.4,59.78c1.47.87,3.36,1.14,4.6,2.21s2,2.83,3.15,4.56c2.76-1.26,18.12,4.81,21.89,9.4ZM152.94,720.54l-.55,2,8.73,4.63c1.17-5.07,4.58-6.27,10.16-3-.5,1-1,2-1.15,2.26l8.59,6.62c-1.56-4-3.39-8.45-6.7-10.83C166.18,718.1,159.33,722.07,152.94,720.54Zm74.89,101.39-1.15.76,5.25,7.76,5.84-2Z" transform="translate(-3.39 -67.89)"/><path class="a" d="M524.26,435l-2.14-3.12c7-.4,13.58-1.92,19.66-.85,8.65,1.53,18.29-2.73,26.28,3.94l-4.18-4.85L577.24,426c1.32,8.24,2.68,15.83,3.7,23.47.59,4.39-2.31,6-6.16,6.66-16.61,2.83-33.21,5.73-49.53,8.56L530,479.77c10.56-1.84,21.24-3.52,31.84-5.6,9.18-1.8,12.15.16,13.42,9.49.46,3.4,1.19,6.76,1.83,10.13,1,5.55-1,8.65-6.51,9.73-11.75,2.28-23.51,4.52-35.85,6.89.94,5.21,1.81,10,2.56,14.18l9.8,1.13c2.6-1,5.92-2.82,9.47-3.59,8.57-1.84,17.24-3.19,25.87-4.73,6.3-1.13,10.26,1.33,12.22,8.62a111.58,111.58,0,0,1,2.66,16.31c.36,3.15-.81,5.3-4.64,5.84A84,84,0,0,0,578,551.6c-5.8,1.94-9.38-1.72-13.58-4.29l5.74,5.3-38.65,6.92c-4.37.78-8.72,1.9-13.12,2.13-2.06.11-4.21-1.52-6.33-2.35l.58-1.37,3.08.63c-5.26-5.84-7.41-12.07-5.41-20-2-1.63-5.08-3.88-.57-5.78-1.25-2.54-2.83-4.63-3.31-6.94-1.72-8.3-3.17-16.67-4.51-25.05a30,30,0,0,1-.06-5.91c-1.41-5.39-2.5-9.52-3.82-14.59l4.65,2.36c0-.81.19-1.41,0-1.48-7.15-3.8-6.08-11.24-7.54-17.43-1.35-5.74-2.07-11.64-2.89-17.5-.42-3-1.48-4.84,3.33-7.25,5.54-2.79,11-3.45,16.56-4.51C516.07,433.76,520.29,434.75,524.26,435Zm-13.6,73.59c2.7,5.64,9.15-5.37,10.66,3.37l6.69-5.58c-.46,3.58-.75,5.88-1,8.18l2.13.43c.45-2.14,1.56-4.4,1.2-6.4-.68-3.87-2.2-7.6-3.25-11l-3.32,4.2,2.57,3.51-6-1.74,1.93-4.24-10.6,5.39,5.09,2.06Zm1.58,32.89,14.15,6.77c.18-.48.36-1,.55-1.43C521.88,545.42,519.34,536.86,512.24,541.44Z" transform="translate(-3.39 -67.89)"/><path class="a" d="M350.49,569.52c-6.4-1.33-12.15,5-17-1.58-1.39,6.17-6.25,5.91-18.17-.54,1.16,1.52,2.31,3,3.19,4.17-2.67,3.24-5.28,6.41-8.49,10.29l-1.41-.48c.16,1,0,2.11.52,2.82,3.69,5.22.69,13.73-5.6,15.48-1.83.51-3.73.78-5.61,1.11-4.2.76-8.41,1.47-12.61,2.24-6.05,1.1-9.44-1.76-8.47-7.9,3-18.91,6.25-37.78,9.36-56.67.74-4.49,1.15-9.05,2-13.51.38-1.91,1.57-3.65,2.44-5.58-2.13-7.62,2.56-15.47,2-23.94l3.92.75c-5-3.23-2.06-7.42-1.61-11.16,1.42-12.08,2.28-12.92,14.44-14.91,4.7-.78,9.38-1.69,14.09-2.35,4.55-.65,7.43,1.48,9.62,5.51,6.46,11.91,13.22,23.66,19.85,35.47,10.89,19.43,21.84,38.83,32.6,58.34a59.32,59.32,0,0,1,5,12.37c.38,1.34-1.27,4.65-2.28,4.77-6.87.85-13.86,1.82-20.73,1.36C357.82,584.92,353.44,577.29,350.49,569.52Zm-34.76-22.34,22.4-3.95c-5.78-10.66-11.33-20.88-17.73-32.66C318.73,523.73,317.28,535.1,315.73,547.18Zm51.34,11-13.88-8.89C352.79,553.18,357.47,556.64,367.07,558.17Z" transform="translate(-3.39 -67.89)"/><path class="a" d="M742.08,398.39c2.8-1.81,3.1-6.49,7.79-6.3,2.92.12,4.47.65,4.9,3.94a12.37,12.37,0,0,0,3.05,5.8c1.89,2.28,2.88,1.77,4.46-1.25l-4.14-5.89,4.13-.55-4.92-4.07h17.37c-.05-.19-.23-.91-.52-2.11l36.27-6.27c2.92-.5,5.84-1,8.77-1.45,7.19-1,8.7.05,10.74,7.6l-4.49.55c4.77,1.9,8,10.2,7.16,17-.61,5.15-4.74,6-8.69,6.83s-7.88,1.34-11.82,2c-3.73.66-7.45,1.38-11.9,2.21,1.36,8.12,2.63,16.12,4,24.1,1.66,9.38,3.57,18.72,5.07,28.12.23,1.43-1.18,3.12-1.54,4,1.17,2.42,2.7,4.52,3.22,6.84,1.6,7.25,2.88,14.57,4.17,21.88.82,4.68-1,8-5.83,8.88-6.3,1.22-12.64,2.72-19,2.87-2.2.05-6-3.21-6.5-5.55-2.86-12.22-5-24.61-7.24-37-2.85-15.9-5.52-31.83-8.4-48.46-7.3,1.24-14.36,2.34-21.38,3.67-11.87,2.25-15-.51-13.91-12.64a13.66,13.66,0,0,1,.57-2.22Z" transform="translate(-3.39 -67.89)"/><path class="a" d="M775,818.16c-2.79-1.16-5.64-2.21-8.36-3.52-4.4-2.13-8.7-4.43-13-6.65-1-3.6-2.08-7.2-3.23-11.16a394.83,394.83,0,0,0,75.91-87.11l3.5,3.27c0-1.07,0-1.49,0-1.91.13-2.57-.55-5.57.55-7.63,6.08-11.4,12.61-22.58,19.18-34.18l9.73,9.05,9.13,9c1.07,3.18,2.47,6.28,3.16,9.53,1.13,5.36,1.81,10.82,2.78,16.9l-4.82-2.37-.56.85,7.14,5.23c-10.45,3.79-20,7.42-29.66,10.57-1.45.47-3.71-1.12-5.43-2-1.53-.84-2.84-2.09-4.74-2.47l5.81,5.46a13,13,0,0,1-2.13,1.55c-9.1,3.43-9,3.42-8.51,12.91.23,4.39.22,8.81.07,13.2,0,1.26-1,2.48-1.68,4.14,4.53,5.17.66,12.12,2.16,18.85-14.15,2.47-27.74,5.07-41.42,7.09-3.77.55-4.63,2.23-5.12,5.39-1.39,9-3,18-4.61,27.44Z" transform="translate(-3.39 -67.89)"/><path class="a" d="M286.85,641.09c-.77.8-1.43,2.15-2.32,2.33-10.36,2-20.72,4.05-31.15,5.61-2.32.34-4.92-1.12-7.51-1.78l2.11,4c-2.4-1.73-3.56-2.56-3.74-2.68-8.1,5.75-17.48,4.62-25.92,6.52-9.3,2.09-18.77,3.48-28.16,5.15s-18.78,3.33-28.18,5c-3.19.56-6.46.78-9.58,1.59-3.86,1-7.37,1.89-9.91-2.47-.4-.67-2.24-.49-3.87.6l5.77,3.29c-5.06.86-8.48,1.43-11.89,2-22.08,3.9-44.14,8-66.27,11.56-3.81.62-7.94-.75-11.55-2.12-.83.3-1.79,1-2.47.82-11.65-3.35-19.12-11.16-23.83-22.5l2.6.61c-7-13.58-6.42-28.77-10.39-44l5,1.9C16.28,610,19.28,599.71,16,589.82l8.13,2.87L19.07,586l-1.93,2.11a86.2,86.2,0,0,1-2.5-9.15c-2-12.39-3.72-24.85-5.84-37.23-1.25-7.3-3-14.52-4.67-21.73-2.32-9.77,1.16-18.14,5.66-26.65,2.21,1.1,4.09,2,6.63,3.29-1.61-2.55-3.93-4.65-3.58-6.1.45-1.85,3-3.22,4.76-4.7,7.33-6.21,16.55-6.72,25.4-8.34.32-.06.7.34,1,.33,3.43-.18,6.86-.4,10.74-.64,0,0,.59-2,1.55-2.21,10.46-1.94,21-3.59,31.48-5.28.5-.08,1.08.3,1.63.47l3.15,3.12c.6,1.55,1.21,3.09,2.29,5.85-11.2,1.2-22.23,1.91-33.09,3.69a241.18,241.18,0,0,0-28.61,6.79,28.87,28.87,0,0,0-11.71,6.56c-3.53,3.45-5.7,8.27-8.8,13l-3.28-1.27c-.05.78-.19,1.38-.07,1.43,3.3,1.55,3.73,4.26,4.32,7.69,6.12,35.63,12.6,71.21,18.92,106.81,1.29,7.27,2.33,14.58,3.52,22.1H31.15c-.08.41-.31.88-.18,1,4.32,4.33,7.57,9.39,11,14.47,7.4,11,18.47,11.77,30.59,9.53,20.23-3.74,40.61-6.71,60.86-10.34,25.46-4.56,50.86-9.51,76.3-14.18,11.25-2.06,22.54-3.84,33.82-5.75-.07.86-.13,1.71-.26,3.57,1.22-1.29,1.69-2.24,2.38-2.43,6.36-1.76,12.75-3.4,19.14-5,.92-.24,1.94-.1,2.83-.38,6.65-2.08,13-3.14,17.39,4.19.29.47,1.35.48,2.05.7Z" transform="translate(-3.39 -67.89)"/><path class="a" d="M429.26,541.12c-6.25,1.12-8.27-2.33-8.94-7.83-.69-5.68-2.13-11.26-2.7-16.94-.25-2.44.87-5,1.54-8.4-3.53-4.55-2.71-11.23-2.1-17.51,1-9.94,2.79-19.81,4.3-29.7a39.93,39.93,0,0,1,1.65-8.22,5.81,5.81,0,0,1,3.74-3c8-1.7,16.11-3.06,23.36-4.39l12.19,9.57,1.42-1.68-9.22-8.56c4-.63,7.48-2.11,10.55-1.49,7.86,1.61,7.76,2,9.18,11.5.42,2.83,1,5.64,1.56,8.44.81,3.79,2.1,8.17-2.17,10.23-4,1.93-8.65,4.36-12.47.92-4.55,5.28-11.71,2.57-17.06,6.05,1.17,7.25,2.42,14.72,3.56,22.22s1.09,15.26,3.55,22.21c2.16,6.12,1.42,12.42,3.58,18.57s4.16,13.48,2.62,22.09c3,4,1.86,6.83-5.1,8.19-5.42,1-10.83,2.39-16.3,2.92-2.59.25-5.33-1.13-8-1.77l.45-1.62,3.29.16c-5.45-5.57-8.71-11.36-5.25-19l-2.63-2.18c1.26-4.46,8.62-3,7.51-8.9,7.66,3.58,13.79.74,20.66-5.89l-13.21-1.36c.17.57-.1-.29-.38-1.18l-6.1,3.06,3,2.11-.92,1.39-8-4.83-.44.5Z" transform="translate(-3.39 -67.89)"/><path class="a" d="M650,478c-.81-.45-1.69-1.39-2.42-1.28-10.11,1.54-20.2,3.23-30.44,4.91-.71-2.77-1.13-4.38-1.63-6.32l3.2.47c-4.86-3-5.38-6.24-1.44-10.61L614,466.29c-.44-2.81-.86-5.54-1.35-8.66l12.62,6c.26-.52.52-1.05.79-1.57-3.7-2.11-7.57-4-11-6.42a10,10,0,0,1-3.8-5.42c-1.8-8.36-3.14-16.83-4.63-25.25-.81-4.54,1-7.54,5.5-8.48A97,97,0,0,1,627.38,414c2.79-.13,6.53.69,8.37,2.55,16.42,16.52,32.52,33.38,48.71,50.14l.09-.16c-2.49.62-5.9.36-4.59,4.7l-8.14-2.89c.21.43.43.86.65,1.29-2.51,1.34-4.91,3-7.56,3.94-4.93,1.75-10,3.09-15,4.61Z" transform="translate(-3.39 -67.89)"/><path class="a" d="M159.86,513.34l-6-3c.74-2.23,1.59-4.79,2.45-7.36l-1-.39L152.47,509c-2.87-7.07-2.1-9.06,2.89-11.47l5.38,1.87c.92-5.64,6-4.23,9.27-4.84,14.12-2.69,28.34-4.85,42.55-7,18.78-2.8,34.69,7,40.63,25.69,2.26,7.1,2.59,14.82,3.66,21.36-7,1.31-12.53,2.42-18.06,3.35-5.7.95-11.41,3.44-17.34.39,1.19-2.3,2.79-4.33,3.33-6.62,2-8.63-4.76-15-13.93-13.34-5.8,1.07-11.67,1.85-17.35,3.36s-10.79.5-16-1.27l-4.26-12.78C162.57,513.83,162.57,513.83,159.86,513.34Z" transform="translate(-3.39 -67.89)"/><path class="a" d="M684.46,466.7c-.86-7-1.59-14-2.62-21-.92-6.17-2.18-12.29-3.35-18.8l4.28,1.7c-6.82-3.52-5.81-10.19-6.55-15.89-.52-4,.19-7.3,5.58-7.91,5.79-.66,11.43-2.47,17.18-3.57,5-.95,8.8,1.15,8.91,6.23.13,6,3.92,11.36,1.53,18.26-1.36,3.93,3.26,9.62,4.24,14.7,3.18,16.63,5.9,33.34,8.84,50,.93,5.22,2.15,10.39,2.92,15.62.25,1.69-.51,3.53-.81,5.31l-36.72-32.15q-1.67-6.35-3.34-12.69Z" transform="translate(-3.39 -67.89)"/><path class="a" d="M214.42,571.05l-17.81,4.41c.1,9.9,5.13,19.44,3.28,28.43,1.07,3.16,2.8,5.78,2.5,8.15-.26,2.12-2.42,5.22-4.31,5.71a110.7,110.7,0,0,1-20.8,3.59c-2.06.14-5.81-2.83-6.3-5-2.54-11-4.31-22.11-6.18-33.22-.12-.72,1.19-1.69.37-2-1.26-5.74-2.66-11.44-3.74-17.21-3-16-5.89-32.05-8.79-48.09a21.53,21.53,0,0,1,0-3.26l4.69,2.42c9.1,8.59,18.35,17,27.28,25.81C194.68,550.75,204.49,561,214.42,571.05Zm-24-16.51-15.18-16.42c-.37,3.11-.62,5.14-.81,6.73l6.46,4.76-.81-3.11C182.78,549.57,182.55,555.15,190.43,554.54Zm-26.32-25.78c-.86,1.15-2,2.17-2.42,3.42s-.48,3.4.24,4c3,2.34,6.28,4.23,9.47,6.28l1.25-1.27c-1.11-1.13-2.24-2.24-3.32-3.39s-1.87-2.06-2.8-3.1l2.63-1.71-2.77,2.71C165.67,533.48,164.94,531.29,164.11,528.76Zm10.18,22.86c-1.59,8.49-1.59,8.49,8.93,11.29-.33-1.06-1-2.31-1.87-2.42-3.19-.43-3.45-2.37-3.14-4.93a8.73,8.73,0,0,0-.44-2.52l-.81.08c-.35,1.53-.71,3.06-1.36,5.83C175,555.62,174.65,553.62,174.29,551.62Z" transform="translate(-3.39 -67.89)"/><path class="a" d="M868.4,687.32l-9.13-9-9-12.08c11.78-23.2,19.94-48.33,26.25-74.11,1.1-4.48,5.64-6.4,10.46-4.49l7.43,6.35,5.65,4.48-8.79,7.62c4.76,12.92,9.36,25.8,14.3,38.55,1.35,3.47,1.14,5.28-2.4,7.19C892.29,657.67,881.74,664,870.93,670c-2.94,1.61-4.21,3-3.26,6.62C868.55,680,868.2,683.73,868.4,687.32Z" transform="translate(-3.39 -67.89)"/><path class="a" d="M92.59,473.28l-3.15-3.12c6.81-2.94,13.67-5.16,21.75-.67l-2.41-4.2,17.06-1.53c5.15-2.55,11.9-2.76,18.3-4.24,7.05-1.62,14-3.48,21.15.6l-3.64-3c4.19-.88,8.56-2,13-2.65,4-.58,8.2-.18,12.16-1,5.37-1.06,10.53-3.2,15.9-4.21q30.79-5.83,61.68-11.13c2-.34,4.2.78,6.64,1.29l-1.88-3.19,10.41,1.8c1.55-1,2.51-2.16,3.65-2.4,10.22-2.12,20.4-4.6,30.73-6,11-1.46,21.62-4.83,32.68-5.91,5.25-.52,10.43-1.73,16-2.7l-1.73,5.34-5.11,4.59a29.25,29.25,0,0,1-20,2.94c-1.58,3.31-63.51,14.54-69.86,10.92.62,1.21,1,2,1.56,3l-170,29.87Z" transform="translate(-3.39 -67.89)"/><path class="a" d="M792.65,345.93c10.45-2.09,20.63-7.28,31.89-3.48l-.92-2.75c15.33-2.8,30.62-5.68,45.94-8.35,21.23-3.7,42.47-7.36,63.75-10.81,18.12-2.93,36.24,10.36,39.39,28.67,2.78,16.13,5.44,32.29,8.19,48.65C973,395.6,969,391,968.18,382.56c-1-10.59-3.55-21-5.38-31.55-2.2-12.65-15.33-23-29.73-20.33-30.27,5.65-60.63,10.8-91,16.12-12.59,2.2-25.19,4.38-37.82,6.36a7.54,7.54,0,0,1-5-1.32,72.19,72.19,0,0,1-6.81-6.08Z" transform="translate(-3.39 -67.89)"/><path class="a" d="M389.06,109.16l4.58,5.55c-2.36,3.71-2.38,6.14,2.9,7.07,1.55.28,2.69,2.87,3.71,4l-57.67,20.65-2-2.68c-1.15,8.25-8.9,9.55-13.71,9.76-5.25.22-10.7-4.5-16.35-7.2,1.81-5.22,3.38-9.77,5-14.52l13.23,2.36c2.58-4.45,5.21-8.85,7.71-13.33,1.52-2.74,3.15-3.33,5.79-1.25,2.43,1.92,5.16,3.47,7.77,5.19,2-3.55,5.9-1.4,9.42-.55a29.08,29.08,0,0,1,6.82,2.66c4.78,2.54,6.37-.3,8.25-5.06l-7.3,3.17L358,97.36,359.2,96Z" transform="translate(-3.39 -67.89)"/><path class="a" d="M617.07,482.41c8.33.65,16.66-4.29,25.2,2.2-.87-1.68-1.38-2.68-2-4l7.2-1.54c3.13,17.51,6.26,34.7,9.23,51.93.7,4.09-1.51,6.58-5.48,7.33-5.61,1.06-11.25,1.9-16.87,2.94-4.83.89-7.24-1.49-8.06-5.88-1.29-6.91-2.44-13.85-3.68-21l6.64,3.73.69-1.2c-.74-.42-1.53-.78-2.23-1.26-3.65-2.5-6.41-5.15-6.8-10.29C620.31,498,618.51,490.7,617.07,482.41Z" transform="translate(-3.39 -67.89)"/><path class="a" d="M214.42,571.05c-9.93-10.09-19.74-20.3-29.83-30.23-8.93-8.77-18.18-17.22-27.28-25.81l2.55-1.67c2.71.49,2.71.49,13.36-5.63l4.26,12.78c.21.31.4.86.64.89,11.08,1.16,10.24,10.24,11.79,17.71.35,1.66.52,3.35.86,5.66,6.89-1.15,13.69-1.75,20.15-3.55,5.3-1.47,10.23.22,15.24,0,8.42-.4,16.77-2.24,25.16-3.38a5.9,5.9,0,0,1,4.27,1.12h-2.2V546l-3.41-.6c1.83,9.78-5.13,14.2-11.67,18.4-1.43.92-4.74-1.07-7.21-1.73.54,3.84-.56,7.7-6.76,7.72l-.89-3.45C221.76,570.94,218.51,571.77,214.42,571.05Z" transform="translate(-3.39 -67.89)"/><path class="a" d="M894.36,594l-7.43-6.35-3.8-4.9L880.2,588l-1.9-1.86c2.31-13.53,4.63-27.05,7.18-42l9.18,1.83,4.27,2.4c-1.25,5.2,3.38,5.32,6.69,6.65-3.39-3.24-1.67-11.41-9.72-10.16l10.27-4c3.23,7.06,8.23,12.33,10.07,19.26,3.41,5.11,7,10.57,10.77,16.13-7.72,6.42-15.21,12.3-22.27,18.66C900.58,598.6,897.85,593.6,894.36,594Z" transform="translate(-3.39 -67.89)"/><path class="a" d="M414.39,611.38c8.85-1.87,17.67-4,26.57-5.57q47.51-8.67,95.06-17.07c9.19-1.64,18.37-3.33,27.61-4.65,2.93-.43,6.38-.94,7.71,3.45.53,1.75,2.35,3.11,3.66,4.76-11.5,2.06-23.44,4.21-35.39,6.32C503.74,605,467.89,611.33,432,617.48c-3.45.59-7.15-.27-10.73-.45Z" transform="translate(-3.39 -67.89)"/><path class="a" d="M970,520.52c-3.1,1.23-6.11,2.93-9.33,3.6-9.86,2-19.77,4-29.75,5.33-2.75.37-5.81-1.33-8.68-2.23-3.09-1-6.12-2.11-10.74-3.72l9,7.84-.46.83-7.85-3.72c.13,1.77.21,3.07.31,4.45-7.67,1.29-15.4,2.38-23,4-3.58.75-6.58,1.78-6.15-5l-2,1.6v6c-5.05,0-10.45-.35-15.77.13-3.06.29-5.93,2.28-9,2.89-11.57,2.3-23.18,4.38-34.79,6.46a22.49,22.49,0,0,1-6.82.46c-1-.13-1.76-1.92-2.62-2.95-.12-.18-.22-.35-.3-.5l-3.29-4.43c15.88-3.49,30.86-6.76,47.06-8.1,2-3.06,7-1.38,11-2.64,4.64-1.48,9-1.81,13.13,1.85l-3.16-4c8.15-1.05,15.77-1.81,23.32-3.05,6.47-1.07,12.82-2.81,19.27-4,11.34-2.16,22.67-4.42,34.08-6.05,2.78-.39,5.89,1.54,9.05,2.46l-1.62,3.51,8.77-1.65A3.75,3.75,0,0,0,970,520.52Z" transform="translate(-3.39 -67.89)"/><path class="a" d="M414,495.88c-.84-4-1.5-7.11-2.18-10.24,0-.17-.23-.3-.57-.7-7.49,1.34-15.16,2.63-22.8,4.1-7.79,1.5-10.48-.25-11.86-8-.83-4.68-1.39-9.42-2.5-14-1.36-5.68,1.65-8.43,6.37-9.4,10.43-2.17,20.94-4,31.45-5.69,5.32-.88,7.87,1.3,7.13,6.6-.79,5.64-3,11.08-3.78,16.72-.8,5.84-.61,11.81-.87,17.72C414.34,493.63,414.19,494.34,414,495.88Z" transform="translate(-3.39 -67.89)"/><path class="a" d="M970,520.52a3.75,3.75,0,0,1-.4-.77,12.53,12.53,0,0,0-2.68-2.15,51.92,51.92,0,0,0-5.53-1.68l.18-1.67c2.27-.56,4.56-1,6.8-1.7,12.23-3.52,20-16.43,17.76-28.92-2.42-13.23-4.7-26.48-7-39.73q-4.2-24.13-8.34-48.26c10.34,2.13,12,10.09,13.36,18.6,3.85,23.3,8.16,46.52,12,69.82,1.94,11.79-2.22,22-10.84,29.82-2.41,2.19-7.14,1.84-11.32,2.77L977.9,519l.11,1.56Z" transform="translate(-3.39 -67.89)"/><path class="a" d="M687.89,479.23l36.72,32.15,3.66,9.64-1.93-.19c-1.05,1.38-1.82,3.41-3.2,4a12,12,0,0,1-6.83.89c-4.59-1-9-2.7-13.52-4.12l-11.23-3-7.95-6.18c-5.75-4.46-6.06-10-3.18-16.15a24.12,24.12,0,0,0,1.11-4.37c.59-1.33,1.19-2.65,1.78-4,.87-1.82,1.69-3.66,2.61-5.45C686.51,481.38,687.23,480.32,687.89,479.23Z" transform="translate(-3.39 -67.89)"/><path class="a" d="M639.19,577c2.93-1.89,6.89-2.61,7.67-7,.09-.48,1.47-.89,2.3-1,19.12-3.47,38.23-7,57.4-10.19,2.17-.37,4.66,1.25,7.26,2-.17-.61-.48-1.78-.8-2.94,12.7-2.3,25.39-4.65,38.1-6.86a6.33,6.33,0,0,1,4.18.64c3,2,5.72,4.33,9,6.89-3.48.7-7.76.78-11.26,2.47-5.56,2.69-6.1-3.36-9.57-4.89l.33,2.74h-8.43l0,1.13,8.5.78.06,1.34q-30.57,5.58-61.14,11.16c-14.25,2.57-28.5,5.17-42.8,7.45-1.92.31-4.12-1.14-6.2-1.77l-1.05-2.87Z" transform="translate(-3.39 -67.89)"/><path class="a" d="M741.17,305.8c14.28,8.3,29.37,15.4,41,27.59-.63,8.38-7.4,7.62-13.24,8.57-.33-1.15-.71-2.51-1.09-3.86l-1.22-.27-2,5-22,3.9c-1.34-6.86-2.61-13.33-3.78-19.34l8.49-4L735,318.13l-.44-2c-1-4.44-2-8.89-3.16-14.1Z" transform="translate(-3.39 -67.89)"/><path class="a" d="M521.26,397.53l4.32,4.72-100.65,18c.21-2.8.39-5.17.66-8.67-1.61,1-3.65,1.73-3.59,2.23,1.16,9.83-6.67,7.34-11.93,9.16,1.28-3.47,1.64-7.2,3.68-9.21s5.68-2.7,8.75-3.26c26-4.72,52.06-9.29,78.1-13.9,2.43-.43,4.93-.63,7.3-1.28,4.31-1.17,8.45-1.51,12.34,1.22Z" transform="translate(-3.39 -67.89)"/><path class="a" d="M298.27,652.72,326.88,686c5.42,6.33,11.21,12.4,16.13,19.1,2.7,3.68,3.93,8.44,5.08,13.07C321.14,700.68,299.85,678,280.7,652c4-.69,7.17-1.08,10.23-1.79,2.26-.53,4.27-1.28,4.28,2.29C295.21,652.55,297.21,652.64,298.27,652.72Z" transform="translate(-3.39 -67.89)"/><path class="a" d="M287.05,641.29l-7-7.94c10.34,1.58,19.53-7.66,28.84,1.39l-3.54-5.33c21.17-2,41.31-9.67,62.53-8l.18,1.76h-4.85l6.17,5.42-38.47,6.83c-12.11,2.14-24.21,4.4-36.36,6.34-2.46.39-5.11-.4-7.66-.65Z" transform="translate(-3.39 -67.89)"/><path class="a" d="M666.23,369.23c.61-.78,1.09-2,1.86-2.25,2.37-.66,4.88-.8,7.28-1.38,5.65-1.35,11.11-2,15.33,4l.75-1.49-3.76-4.4c17.52-3.2,34.9-6.54,52.34-9.49,7.53-1.27,4.69,5.42,6.84,9.16-19.59,3.42-38.45,6.85-57.38,9.93-5.44.89-11,.79-16.57,1.15Z" transform="translate(-3.39 -67.89)"/><path class="a" d="M666.23,369.23l6.69,5.27c-.83.8-1.54,2.15-2.48,2.33-16.55,3.1-33.06,6.59-49.74,8.65-4.19.52-9-3.68-13.45-5.72l.53-2c7.38-1.37,14.76-2.79,22.15-4.11,10.11-1.8,20.21-3.63,30.35-5.22C662.18,368.17,664.24,369,666.23,369.23Z" transform="translate(-3.39 -67.89)"/><path class="a" d="M450,151.71l-22.23-11.15-3.51-4.15,6.93,3.35-6.79-9.28c14.67-2.15,29-11.24,43.14,3.43-2.71.23-4.26.43-5.82.5-10.65.45-11.67,1.71-10.74,12.73C451.1,148.62,450.35,150.18,450,151.71Z" transform="translate(-3.39 -67.89)"/><path class="a" d="M416.36,860.68l-.19.08c1.51.21,3,.46,4.53.63,6,.7,12.19,5.27,16.64.32,1.32-6.76,2.41-12.33,3.6-18.4,9.39,9.68,11.91,20.69,10.42,33.61l-36.8-6.37c-.5-2.07-1-4.24-1.68-6.85Zm27.91,3.71,4.86-7.21c-3.19.62-6.75.34-7.58,1.71C440.43,860.73,440.84,864.2,444.27,864.39Z" transform="translate(-3.39 -67.89)"/><path class="a" d="M632.78,576.12l1.05,2.87c-1.9,4.6-8.32,5.89-13.23,3.27-1.19,1-2,2.32-3,2.52-10.25,2-20.51,3.89-30.82,5.54-1.19.19-3-1-3.9-2a73.16,73.16,0,0,1-5-6.8c15.45-2.66,30.83-5.46,46.29-7.84,2.25-.34,4.8,1.28,7.22,2Z" transform="translate(-3.39 -67.89)"/><path class="a" d="M355.8,431.05l5.11-4.59c4-4.71,8.89-7,15.13-7.86,11.81-1.64,23.51-4.17,36-6.48-2.1,6.73-4.36,11.56-11.63,12.49-12.56,1.62-25.06,3.81-37.59,5.72C360.53,430.69,358.16,430.81,355.8,431.05Z" transform="translate(-3.39 -67.89)"/><path class="a" d="M414.39,611.38l6.88,5.65c1.4,3.92-2.36,2.88-3.59,3.11-11.56,2.22-23.18,4.1-34.78,6.09-3.72.64-7.44,1.32-12.12,2.15l4.05-3.25-9.37-6c10-1.77,19.93-3.67,29.92-5.28C401.68,612.78,408.05,612.17,414.39,611.38Z" transform="translate(-3.39 -67.89)"/><path class="a" d="M792.48,345.76c1.69,2.75,3.38,5.51,5.3,8.62l-49.29,8.75-3-10.09c10.12-1.36,20.13-2.62,30.11-4.08,5.71-.83,11.36-2,17-3Z" transform="translate(-3.39 -67.89)"/><path class="a" d="M683.32,488c-.59,1.32-1.19,2.64-1.78,4L677,502.64,650,478l-.14.21c3.32-.59,6.68-1,10-1.78,7.41-1.69,14.75-5.91,22.27-.37C686.3,479.63,682.09,484.07,683.32,488Zm-6.9-.38c1.85-5-3.72-11.06-11.14-11.51-1.31,3.81-3.52,7.64,3.94,7.26C671.45,483.22,673.82,486,676.42,487.58Z" transform="translate(-3.39 -67.89)"/><path class="a" d="M559.51,390.64l-4-4.37c13.06.05,24.11-6.59,36.25-3.18,1.42-6.52,12.41-5.29,23.6,4.23-11.75,1.34-22.59,2.5-33.4,3.88-1.91.24-3.73,1.34-5.56,2.12-5.78,2.49-10.8,1.46-15.1-3.14Z" transform="translate(-3.39 -67.89)"/><path class="a" d="M812,545.94c.08.15.18.32.3.5-3.16,4.69-7.9,5.56-13.14,6.17-7.34.85-14.59,2.53-22.52,4,.39-2.77.64-4.58.89-6.4l-1.45-.44c-.7,2.23-1.41,4.45-2.17,6.85-7.14,2.29-7.14,2.29-12.29-7.54,12.43-2,24.64-3.89,36.85-5.8l-5.4,3c.16,1.15.39,2.93.65,4.84l7.56-.69c-1.18-2.79-2.07-4.88-2.95-7C803.82,539.31,807.77,543.46,812,545.94Z" transform="translate(-3.39 -67.89)"/><path class="a" d="M559.51,390.64l1.74-.46,3,5.46c-10.26.47-21,8.45-31.14-2.08l4,5.81c-5.67,3.31-10.84,1.41-15.82-1.84l-1-1-2.19-3c10.88-1.94,21.43-4.09,32.07-5.5,1.93-.26,4.32,2.39,6.37,3.87.77.56,1.18,1.62,2.48,3.5C559.25,393,559.38,391.82,559.51,390.64Z" transform="translate(-3.39 -67.89)"/><path class="a" d="M363.69,119.85l-5.55-2.25c.15.42.3.84.44,1.26l-7.83,2.52-.87-1.73,3-4.79-10.55-4.61c1.68-2.74,3.36-5.39,4.94-8.1s3-5.27,5.09-9.11c1.85,2,3.79,3.29,4.39,5C359.21,105,361.24,112,363.69,119.85Z" transform="translate(-3.39 -67.89)"/><path class="a" d="M775.49,688.91l10.27,6.79,1-1.41-10-7.57,1.32-1.66,11.44,8.14c-3.33,4.73-6.39,9-9.44,13.38-2.43,3.45-5.41,4.8-9.29,2.37s-4.42-6.17-2.31-9.91S773.23,692.14,775.49,688.91Z" transform="translate(-3.39 -67.89)"/><path class="a" d="M525.46,812.94l-5.09,1.15,4,1.58,0,1.35c-4.65,0-9.66,1.08-13.85-.31s-7.39-5.23-12-8.76C511.39,805.32,518.8,806.75,525.46,812.94Z" transform="translate(-3.39 -67.89)"/><path class="a" d="M742.08,398.39,733.52,411c-3.41-2.46-4.61-8.58-2.23-11.32,4.37-5,4.37-5,11.93-5.65C742.81,395.56,742.45,397,742.08,398.39Z" transform="translate(-3.39 -67.89)"/><path class="a" d="M781,575.31l0,.27c-1.54-1.14-3.39-2-4.53-3.48-1.48-1.89-2.4-4.22-4.13-7.4l22.6-2.67-.15-.14a5.62,5.62,0,0,1-1.08,1.27c-4.3,2.67-8.72,5.17-12.86,8.06C780.25,571.64,780.94,573.9,781,575.31Z" transform="translate(-3.39 -67.89)"/><path class="a" d="M691.56,518.63l11.23,3L713.6,527c-9.3,4.5-16.56.38-22.81-7a1.19,1.19,0,0,1-.15-1C690.72,518.75,691.24,518.73,691.56,518.63Z" transform="translate(-3.39 -67.89)"/><path class="a" d="M304.47,167l4-16.27,5.31,1.8-3.32,2.75c2.16,1.1,4,2,7.12,3.64Z" transform="translate(-3.39 -67.89)"/><path class="a" d="M280.34,320.53l9,3,.51,1.43c-1.48.47-3.64,1.78-4.32,1.23C283.57,324.59,279.2,324.93,280.34,320.53Z" transform="translate(-3.39 -67.89)"/><path class="a" d="M632.78,576.12l-1.39-.43-1.28-3.39L642.49,571l.07,2.21-4.26-.57c.3,1.47.59,2.95.89,4.43Z" transform="translate(-3.39 -67.89)"/><path class="a" d="M762.75,592.94l-4.89,1.73c1.83-5.46,3.35-10,4.88-14.6l1,.15q-.56,6.46-1.13,12.92Z" transform="translate(-3.39 -67.89)"/><path class="a" d="M574,425.92l-15.79,2.42-.36-2.23,15.94-2.4Z" transform="translate(-3.39 -67.89)"/><path class="a" d="M422.34,922.93l-.06-.83c.06.14.18.3.15.43s-.21.22-.33.33Z" transform="translate(-3.39 -67.89)"/><path class="a" d="M682.08,309.65h-.55l-.5-.22Z" transform="translate(-3.39 -67.89)"/><path class="a" d="M447.69,222.14l-.18-.23Z" transform="translate(-3.39 -67.89)"/><path class="a" d="M443.84,912.28s-.16.34-.17.34A3.59,3.59,0,0,1,443.84,912.28Z" transform="translate(-3.39 -67.89)"/><path class="a" d="M425,925l-.16-.17Z" transform="translate(-3.39 -67.89)"/><path class="a" d="M401.53,183.34c-1.4-.05-3.28.43-4.08-.29a5.13,5.13,0,0,1-1.3-4.17c.31-1.53,1.74-2.83,2.68-4.23l1.68.76q.69,2.81,1.37,5.62C401.76,181.81,401.64,182.57,401.53,183.34Z" transform="translate(-3.39 -67.89)"/><path class="a" d="M418.45,164.2,417,166.32l-.25-.12c.61-.62,1.22-1.24,1.82-1.87Z" transform="translate(-3.39 -67.89)"/><path class="a" d="M439.5,230.92l-.26-.3.27-.19-.27.53Z" transform="translate(-3.39 -67.89)"/><path class="a" d="M415.73,164.77v0Z" transform="translate(-3.39 -67.89)"/><path class="a" d="M568.32,210.3c.79-4.16,1.46-8.35,2.41-12.47s2.18-8.4,3.65-13.94c4.14,12.21,7.88,23.15,11.47,34.12.12.38-1.15,1.21-1.77,1.83Z" transform="translate(-3.39 -67.89)"/><path class="a" d="M707.66,769l-18.25-13.23,11-8.55,8.09,21.13Z" transform="translate(-3.39 -67.89)"/><path class="a" d="M210.55,309.08c3.52-5.07,6.35-10.08,10.16-14.19,1.52-1.64,5.44-2.23,7.83-1.61,3.75,1,5.16,4.45,3.83,8.22-.7,2-2.3,3.66-3.68,5.77L225.06,303l-1,.47,2.42,7.15-4.65,6.56Z" transform="translate(-3.39 -67.89)"/><path class="a" d="M298.22,253.71c7-6.06-5.59-5.63-2.28-10.61l8.89,3c-4.52-5.15-11.94-5.47-13.22-13.06l19.83,13-11.62,8.42Z" transform="translate(-3.39 -67.89)"/><path class="a" d="M443.25,192.61,442,192l-.59-1.29Z" transform="translate(-3.39 -67.89)"/><path class="a" d="M675.92,200.59c.51,1.66.2,3.14,3.25,3.44,2.79.28,5.29,3.43,9,6.07-2,.62-3.4,1.63-4.26,1.26-4.68-2-9.55-4.07-7.95-10.77Z" transform="translate(-3.39 -67.89)"/></svg>