<?xml version="1.0" encoding="UTF-8"?>
<!-- Generator: Adobe Illustrator 17.0.0, SVG Export Plug-In . SVG Version: 6.00 Build 0)  -->
<svg xmlns="http://www.w3.org/2000/svg" xmlns:xlink="http://www.w3.org/1999/xlink" version="1.1" id="Layer_1" x="0px" y="0px" width="500px" height="500px" viewBox="0 0 500 500" style="enable-background:new 0 0 500 500;" xml:space="preserve">
<style type="text/css">
	.st0{fill:#2652A4;}
</style>
<g>
	<g>
		<path class="st0" d="M118.8,198.3H91.5l20-107.2c2.6-0.4,5-0.7,7.3-0.9V65.9H86.4L42.6,290.6h31.6l12-64.1h32.6V198.3z"></path>
		<path class="st0" d="M188.9,196.6v-76.3c0,0-2-54.1-51.8-54.4v25c21.3,4.4,23,20.9,23,20.9v74.7c0,0-2.3,11.8-8.2,11.8h-14.7v28.2    h13.5c0,0,9.5,2.9,9.5,11.4v52.7h27.6v-68.8c0,0-0.1-3-2.4-5.6v-13C185.3,203.2,188.9,200.8,188.9,196.6z"></path>
	</g>
</g>
<path class="st0" d="M397.8,1.5h-179V345h251.6L397.8,1.5z M299.3,92.1h-29v105.7h29v29.4h-29v64.7h-29.2V65.9h58.2V92.1z   M358.6,291.9l-12.3-64.7h-32.7v-29.4h27.2L323,104.7c-1.8-8.9-7.1-11.6-9.4-12.3V65.9H348l42.9,226.1H358.6z"></path>
<g>
	<path class="st0" d="M25.7,394.5h27.9c11.2,0,14.9,5.1,14.9,12c0,5.7-3.2,9.3-7.3,10.6v0.1c5.3,1.1,6.4,5.7,6.4,11.9   c0,2.1,0.1,7,1.9,9.5h-10c-0.7-1.2-1.1-3.5-1.1-6.7c0-6.3-0.9-10.8-7.7-10.8H35v17.4h-9.3V394.5z M51,414.3c5.1,0,7.9-1.5,7.9-6.5   c0-4.6-3-6.4-7.9-6.4H35v12.9H51z"></path>
	<path class="st0" d="M77.6,394.5h38.3v6.9h-29v11.1h27.9v6.9H86.9v12.2h29.5v6.9H77.6V394.5z"></path>
	<path class="st0" d="M119.5,394.5h10.4l14.4,35.3l14.1-35.3h10l-19.4,44.1h-9.8L119.5,394.5z"></path>
	<path class="st0" d="M173.4,394.5h38.3v6.9h-29v11.1h27.9v6.9h-27.9v12.2h29.5v6.9h-38.8V394.5z"></path>
	<path class="st0" d="M220.7,394.5h27.9c11.2,0,14.9,5.1,14.9,12c0,5.7-3.2,9.3-7.3,10.6v0.1c5.3,1.1,6.4,5.7,6.4,11.9   c0,2.1,0.1,7,1.9,9.5h-10c-0.7-1.2-1.1-3.5-1.1-6.7c0-6.3-0.9-10.8-7.7-10.8H230v17.4h-9.3V394.5z M246,414.3   c5.1,0,7.9-1.5,7.9-6.5c0-4.6-3-6.4-7.9-6.4h-16v12.9H246z"></path>
	<path class="st0" d="M289.8,393.3c6.8,0,20.4,1.2,21.6,14h-10c-0.3-3.4-3.4-7.1-11.1-7.1c-6.2,0-10.3,1.9-10.3,6.1   c0,10.4,32.9,0.4,32.9,19.3c0,11.4-11.8,14.3-21.2,14.3c-15.9,0-22.2-6.2-22.4-15.5h10c0.2,5.8,5.1,8.6,12.7,8.6   c5.6,0,10.9-1.7,10.9-6.5c0-10.9-32.5-1.4-32.5-19.5C270.3,397.1,279,393.3,289.8,393.3z"></path>
	<path class="st0" d="M320,394.5h9.3v44.1H320V394.5z"></path>
	<path class="st0" d="M339.8,394.5H369c10.1,0,12.7,5.4,12.7,11c0,6.3-3.6,8.1-6,9.2c3.4,1.1,8,3.5,8,10.9c0,4.9-3.1,13-15,13h-28.9   V394.5z M349.1,412.4h17.3c2.6,0,6-0.6,6-5.6c0-3.6-2.2-5.4-7.6-5.4h-15.7V412.4z M349.1,431.7h16.6c4.1,0,8.3-0.8,8.3-6.5   c0-4.1-2.8-6.2-7-6.2h-18V431.7z"></path>
	<path class="st0" d="M392.9,394.5h9.3v36.8H429v7.3h-36.1V394.5z"></path>
	<path class="st0" d="M435.6,394.5H474v6.9h-29v11.1h27.9v6.9h-27.9v12.2h29.5v6.9h-38.8V394.5z"></path>
</g>
<g>
	<path class="st0" d="M115.1,453.7h8.7l15.6,35.1h-8.2l-3.7-8.7H111l-3.6,8.7h-8L115.1,453.7z M125.3,474.6l-6-14.8l-6.1,14.8H125.3   z"></path>
	<path class="st0" d="M148.7,453.7h21.6c8.6,0,11.4,5.3,11.4,10.9c0,5.4-3.4,10.8-11.3,10.8h-14.3v13.4h-7.4V453.7z M156.1,469.9   h11.8c4.2,0,6.4-1.1,6.4-5.3c0-4.3-3-5.4-5.9-5.4h-12.4V469.9z"></path>
	<path class="st0" d="M193.1,453.7h21.6c8.6,0,11.4,5.3,11.4,10.9c0,5.4-3.4,10.8-11.3,10.8h-14.3v13.4h-7.4V453.7z M200.5,469.9   h11.8c4.2,0,6.4-1.1,6.4-5.3c0-4.3-3-5.4-5.9-5.4h-12.4V469.9z"></path>
	<path class="st0" d="M247.2,453.7h8.7l15.6,35.1h-8.2l-3.7-8.7h-16.5l-3.6,8.7h-8L247.2,453.7z M257.5,474.6l-6-14.8l-6.1,14.8   H257.5z"></path>
	<path class="st0" d="M280.9,453.7h22.2c8.9,0,11.8,4.1,11.8,9.5c0,4.6-2.5,7.4-5.8,8.5v0.1c4.2,0.9,5.1,4.5,5.1,9.5   c0,1.7,0,5.6,1.5,7.5h-8c-0.5-1-0.9-2.8-0.9-5.3c0-5-0.7-8.5-6.1-8.5h-12.5v13.9h-7.4V453.7z M301,469.4c4.1,0,6.3-1.2,6.3-5.2   c0-3.6-2.4-5.1-6.3-5.1h-12.7v10.2H301z"></path>
	<path class="st0" d="M327.1,453.7h30.5v5.5h-23.1v8.8h22.2v5.5h-22.2v9.7h23.5v5.5h-30.9V453.7z"></path>
	<path class="st0" d="M369.6,453.7h7.4V483h21.3v5.8h-28.7V453.7z"></path>
</g>
</svg>
